<mxfile host="app.diagrams.net" agent="Mozilla/5.0 (Macintosh; Intel Mac OS X 10_15_7) AppleWebKit/537.36 (KHTML, like Gecko) Chrome/134.0.0.0 Safari/537.36" version="26.1.2">
  <diagram name="Page-1" id="OCP5y0nsN-t6K5XUVpC1">
    <mxGraphModel dx="609" dy="343" grid="1" gridSize="10" guides="1" tooltips="1" connect="1" arrows="1" fold="1" page="1" pageScale="1" pageWidth="827" pageHeight="1169" math="0" shadow="0">
      <root>
        <mxCell id="0" />
        <mxCell id="1" parent="0" />
        <mxCell id="PqfnIOR5tWagAkAa2jEj-4" style="edgeStyle=orthogonalEdgeStyle;rounded=0;orthogonalLoop=1;jettySize=auto;html=1;exitX=1;exitY=0.5;exitDx=0;exitDy=0;" edge="1" parent="1" source="PqfnIOR5tWagAkAa2jEj-1" target="PqfnIOR5tWagAkAa2jEj-3">
          <mxGeometry relative="1" as="geometry" />
        </mxCell>
        <mxCell id="PqfnIOR5tWagAkAa2jEj-1" value="Parquet Files" style="shape=image;verticalLabelPosition=bottom;labelBackgroundColor=default;verticalAlign=top;aspect=fixed;imageAspect=0;image=data:image/png,iVBORw0KGgoAAAANSUhEUgAAAhAAAAFYCAYAAAAC48UVAAAMTmlDQ1BJQ0MgUHJvZmlsZQAASImVVwdYU8kWnltSIQQIhCIl9CaISAkgJYQWekcQlZAECCXGhKBiRxdXcK2ICJYVXQVR7ICIDXXVlUWxu5bFgsrKurguduVNCKDLvvK9+b65899/zvxzzrkz994BgN7Fl0rzUE0A8iUFsriQANaklFQWqQdgQBfoATKw5wvkUk5MTASAZbj9e3l9AyDK9qqjUuuf/f+1aAlFcgEASAzEGUK5IB/iQwDgrQKprAAAohTyFjMLpEpcDrGODDoIca0SZ6lwqxJnqPDlQZuEOC7EjwEgq/P5siwANPogzyoUZEEdOowWOEuEYgnE/hD75udPF0K8EGJbaAPnpCv12Rlf6WT9TTNjRJPPzxrBqlgGCzlQLJfm8Wf/n+n43yU/TzE8hw2s6tmy0DhlzDBvj3OnhyuxOsRvJRlR0RBrA4DiYuGgvRIzsxWhiSp71FYg58KcASbEE+V58bwhPk7IDwyH2AjiTEleVMSQTXGmOFhpA/OHVooLeAkQ60NcK5IHxQ/ZnJRNjxue90amjMsZ4p/xZYM+KPU/K3ITOSp9TDtbxBvSx5yKshOSIaZCHFgoToqCWAPiKHlufPiQTVpRNjdq2EamiFPGYgmxTCQJCVDpYxWZsuC4Iftd+fLh2LGT2WJe1BC+UpCdEKrKFfZYwB/0H8aC9YkknMRhHZF8UsRwLEJRYJAqdpwskiTGq3hcX1oQEKcai9tL82KG7PEAUV6IkjeHOEFeGD88trAALk6VPl4iLYhJUPmJV+Xww2JU/uD7QATggkDAAgpYM8B0kAPEHb1NvfBO1RMM+EAGsoAIOA4xwyOSB3sk8BoPisDvEImAfGRcwGCvCBRC/tMoVsmJRzjV1RFkDvUpVXLBE4jzQTjIg/eKQSXJiAdJ4DFkxP/wiA+rAMaQB6uy/9/zw+wXhgOZiCFGMTwjiz5sSQwiBhJDicFEO9wQ98W98Qh49YfVBWfjnsNxfLEnPCF0Eh4SrhO6CLeniYtlo7yMBF1QP3goPxlf5we3hppueADuA9WhMs7EDYEj7grn4eB+cGY3yHKH/FZmhTVK+28RfPWEhuwozhSUokfxp9iOHqlhr+E2oqLM9df5UfmaMZJv7kjP6Pm5X2VfCNvw0ZbYt9hB7Bx2CruAtWJNgIWdwJqxduyYEo+suMeDK254trhBf3Khzug18+XJKjMpd6537nH+qOorEM0qUG5G7nTpbJk4K7uAxYFfDBGLJxE4jWW5OLu4AaD8/qheb69iB78rCLP9C7f4VwB8TgwMDBz9woWdAGC/B3wlHPnC2bLhp0UNgPNHBApZoYrDlRcCfHPQ4e4zACbAAtjCeFyAO/AG/iAIhIFokABSwFTofTZc5zIwE8wFi0AJKAOrwDpQBbaAbaAW7AEHQBNoBafAj+AiuAyugztw9XSD56APvAYfEAQhITSEgRggpogV4oC4IGzEFwlCIpA4JAVJR7IQCaJA5iKLkTJkDVKFbEXqkP3IEeQUcgHpRG4jD5Ae5E/kPYqh6qgOaoxao+NQNspBw9EEdAqahc5Ai9Al6Aq0Eq1Bd6ON6Cn0Inod7UKfo/0YwNQwJmaGOWJsjItFY6lYJibD5mOlWAVWgzVgLfA5X8W6sF7sHU7EGTgLd4QrOBRPxAX4DHw+vhyvwmvxRvwMfhV/gPfhnwk0ghHBgeBF4BEmEbIIMwklhArCDsJhwlm4l7oJr4lEIpNoQ/SAezGFmEOcQ1xO3ETcSzxJ7CQ+IvaTSCQDkgPJhxRN4pMKSCWkDaTdpBOkK6Ru0luyGtmU7EIOJqeSJeRicgV5F/k4+Qr5KfkDRZNiRfGiRFOElNmUlZTtlBbKJUo35QNVi2pD9aEmUHOoi6iV1AbqWepd6is1NTVzNU+1WDWx2kK1SrV9aufVHqi9U9dWt1fnqqepK9RXqO9UP6l+W/0VjUazpvnTUmkFtBW0Otpp2n3aWw2GhpMGT0OosUCjWqNR44rGCzqFbkXn0KfSi+gV9IP0S/ReTYqmtSZXk685X7Na84jmTc1+LYbWeK1orXyt5Vq7tC5oPdMmaVtrB2kLtZdob9M+rf2IgTEsGFyGgLGYsZ1xltGtQ9Sx0eHp5OiU6ezR6dDp09XWddVN0p2lW617TLeLiTGtmTxmHnMl8wDzBvO9nrEeR0+kt0yvQe+K3hv9Mfr++iL9Uv29+tf13xuwDIIMcg1WGzQZ3DPEDe0NYw1nGm42PGvYO0ZnjPcYwZjSMQfG/GKEGtkbxRnNMdpm1G7Ub2xiHGIsNd5gfNq414Rp4m+SY1Juctykx5Rh6msqNi03PWH6G0uXxWHlsSpZZ1h9ZkZmoWYKs61mHWYfzG3ME82Lzfea37OgWrAtMi3KLdos+ixNLSMt51rWW/5iRbFiW2Vbrbc6Z/XG2sY62XqpdZP1Mxt9G55NkU29zV1bmq2f7QzbGttrdkQ7tl2u3Sa7y/aovZt9tn21/SUH1MHdQeywyaFzLGGs51jJ2JqxNx3VHTmOhY71jg+cmE4RTsVOTU4vxlmOSx23ety5cZ+d3ZzznLc73xmvPT5sfPH4lvF/uti7CFyqXa5NoE0InrBgQvOEl64OriLXza633BhukW5L3drcPrl7uMvcG9x7PCw90j02etxk67Bj2MvZ5z0JngGeCzxbPd95uXsVeB3w+sPb0TvXe5f3s4k2E0UTt0985GPuw/fZ6tPly/JN9/3et8vPzI/vV+P30N/CX+i/w/8px46Tw9nNeRHgHCALOBzwhuvFncc9GYgFhgSWBnYEaQclBlUF3Q82D84Krg/uC3ELmRNyMpQQGh66OvQmz5gn4NXx+sI8wuaFnQlXD48Prwp/GGEfIYtoiUQjwyLXRt6NsoqSRDVFg2he9NroezE2MTNijsYSY2Niq2OfxI2Pmxt3Lp4RPy1+V/zrhICElQl3Em0TFYltSfSktKS6pDfJgclrkrsmjZs0b9LFFMMUcUpzKik1KXVHav/koMnrJnenuaWVpN2YYjNl1pQLUw2n5k09No0+jT/tYDohPTl9V/pHfjS/ht+fwcvYmNEn4ArWC54L/YXlwh6Rj2iN6GmmT+aazGdZPllrs3qy/bIrsnvFXHGV+GVOaM6WnDe50bk7cwfykvP25pPz0/OPSLQluZIz002mz5reKXWQlki7ZnjNWDejTxYu2yFH5FPkzQU68Ee/XWGr+EbxoNC3sLrw7cykmQdnac2SzGqfbT972eynRcFFP8zB5wjmtM01m7to7oN5nHlb5yPzM+a3LbBYsGRB98KQhbWLqItyF/1c7Fy8pvivxcmLW5YYL1m45NE3Id/Ul2iUyEpuLvVeuuVb/Fvxtx3LJizbsOxzqbD0pzLnsoqyj8sFy3/6bvx3ld8NrMhc0bHSfeXmVcRVklU3Vvutrl2jtaZozaO1kWsby1nlpeV/rZu27kKFa8WW9dT1ivVdlRGVzRssN6za8LEqu+p6dUD13o1GG5dtfLNJuOnKZv/NDVuMt5Rtef+9+PtbW0O2NtZY11RsI24r3PZke9L2cz+wf6jbYbijbMennZKdXbVxtWfqPOrqdhntWlmP1ivqe3an7b68J3BPc4Njw9a9zL1l+8A+xb7f9qfvv3Eg/EDbQfbBhkNWhzYeZhwubUQaZzf2NWU3dTWnNHceCTvS1uLdcvio09GdrWat1cd0j608Tj2+5PjAiaIT/SelJ3tPZZ161Dat7c7pSaevnYk903E2/Oz5H4N/PH2Oc+7EeZ/zrRe8Lhz5if1T00X3i43tbu2Hf3b7+XCHe0fjJY9LzZc9L7d0Tuw8fsXvyqmrgVd/vMa7dvF61PXOG4k3bt1Mu9l1S3jr2e282y9/Kfzlw52Fdwl3S+9p3qu4b3S/5le7X/d2uXcdexD4oP1h/MM7jwSPnj+WP/7YveQJ7UnFU9Ondc9cnrX2BPdc/m3yb93Ppc8/9Jb8rvX7xhe2Lw794f9He9+kvu6XspcDfy5/ZfBq51+uf7X1x/Tff53/+sOb0rcGb2vfsd+de5/8/umHmR9JHys/2X1q+Rz++e5A/sCAlC/jD/4KYEB5tMkE4M+dANBSAGDAcyN1sup8OFgQ1Zl2EIH/hFVnyMHiDkAD/KeP7YV/NzcB2LcdAGuoT08DIIYGQIInQCdMGKnDZ7nBc6eyEOHZ4PuQTxn5GeDfFNWZ9Cu/R7dAqeoKRrf/AqAZgwwmEkfbAAAAbGVYSWZNTQAqAAAACAAEARoABQAAAAEAAAA+ARsABQAAAAEAAABGASgAAwAAAAEAAgAAh2kABAAAAAEAAABOAAAAAAAAAJAAAAABAAAAkAAAAAEAAqACAAQAAAABAAACEKADAAQAAAABAAABWAAAAAD4dDNaAAAACXBIWXMAABYlAAAWJQFJUiTwAABAAElEQVR4Aey9+ZIdR5anF5lI7CC4r7VPLzNj0pjeRtUPoKfQX3o7VZvMZKaZ6e7qrmJxX0Fi3xJAJvR9v+N+781kYiEJgFmsE5k3wsPD3Y/78bPF8SW2bvzh9w+XjWMr4a1l/+HDZatuKoZU+9tby9ZCwP+HhLcqq+dtwsblSAShfX7Gk2ujqMRtkbZyV5Z5bvhiovHf9Nf81/JnSsWIzJa/rX+Onf7dDomiyVXzHp4fovRV71HmU/Nz3cKoGMm42Y+B4WN/K+OBsEaDBoJXn8404xbDwhiPguml4RcuPDf+m/6a/1r+REpOUcm15W8URTRH65/joX+3o8Mhzm3+6tCTQAjzXxvg4b7GQKn6aSR4P30KSUvyZLGAmTcejDX164xQMc6EJouIGBkbfuNf8pEqmv5AQ/Nfy5+Wv61/jrn+3Z5uwij3od234zNQlqPiFWTRbYZV+VB17AIEvVbBOLQNwvHDSIjxoSbgv/KZcJQcDVHFNPxCYOM/BAQytiaVNP01/7X8afnb+ucY69/tiG0FlYFYBhgGDE+UkYDCTzynMWdh3zfEGBDloZjzIJLeYY3KWLeeZYC4HwKpbIxYDTyzWKA+bPiNfwkhVNP01/zX8qfEaMvf1j/KRRUlepTQsdO/N/7wT0hsqqYpkUpiAnjvEUNhBr0haaLNglk08vjEhnkkSywM7sfzoRfy3FOlfJg3TX0aDX+Nq/h4Gv9FKyGmGfSm6U/eUZQ0/7X8mfJVzmj5W1olIqP1T2TlpI/nqX+3ffsPgDEHgvn/dR/Tz06pjjFd7qb3wOf+J17PA9kqaQJJlo7kliLNnc41neFKkPwNH6Q0/kUCpND0F35o/oMaInFCFy1/Wv6GGlr/REpG2R4D/csciNL6MSQIziGICqHyt8Y8S9LZd3onKocpKq7Shs/rZMPGrUaDiy4s17iSi7w9JA2xDT+YavwX0TT9yTEeYkLGaf6L3Gj50/JXdmj9s6Fbf3r9iyYvkR09TgfRP6sjjEtEdRoGQDwJ83HMh5WlQCqLqoNS56FrLRDseMs3zTAaChMNf4US8dP4n6QT8pD2mv7Kf9f8txI3CpFIlpIhxsM8MpJHy5/CA+eWv61/nqf+rUmUklu0GJfJh9Fkw9tAZHhzPDM8/RDxKJlfTlb5+cPQ8OpeELXugk60DON4VInqOrM0fPAhfgeOy5Jo/EsfIiV0M3BjuOkvmAm9iKLw1GSm5r+WP9BCy9/WP89b/66GMCKDhoehhDagEdwlpqbKL2tO2yICnet8nvxGKuQ1S7juO/mBwzSVbpTnBMxoShTD9EaYsOGvcYXruvHf9Df5q67Nf5qSLX8iXiNUJ30oPiOUW/62/nmB+nf74f7w90mJBidFyqX8y7DaBXUo0PlLBA+1A+pmJsh13zj/hwFyQA1YfmZVGqCshl+4Ex2N/6Y/6cCj+a/lD7TQ8rf1z3HWv+WBsIb+8ACsPAJ4BvyLkve6EmyV1G4tGRcqTzpOuaY405cDgsAaBWVbcD/KC7xkqPQNfyKm8d/0Jy0MOhhkId8UuzT/tfwp6ijxuiaQ0Ie3LX9BgocYqaP1j9gAH4Ncfqz+zRTv8hBQqOU6tBCEex3eCe5XjgajOYYztZKGkyvftJhNXwrAJIRGvpXhkSEMyo9AtDUkME/DL1yIjMY/OPBo+pv8E7IAI81/kSSRGfUmI7+U9DHU8kcaKS3R8rf1z5Qfz1r/Zo5FhhwkNulNL0QC3kwCLD6dwosHPCoRltQxBhJFjod8yZNYfzEGTAuYEZcy4fBYLhoehBt+RF5Q0/gPRUk04xcSKdITTfNo+gMnIkTjiiv/seOb/1r+DFnb8ncIjNY/z03/Dg/EkMp8LnVtuZdwUjDVNlEYDJHpnjjGYwV94rnfzqRJZr4STirTEKrvPFCO9zzQyPD5eFxXkzb8xn9oZ1IHN/w3/ckpzX8tfySDSNaWv7KEv8kXhFv/OGb1YvVvPBB2g8cWC83TJ55Dpwotfumk4ZcYXgXT7Y8xNlP45lzDD6usidPXMGLwSADDX1ZhmF6g/MbR8Bv/RQ6cm/7giua/lj8tf1v/KAeOp/6dkxyiwv1cd+T2UOyGJd+MmwxFbwbfBPQhaAxoEMeNMe2EFGCi8cv74yh3ZT2Tm3RjlScJ62j4jf+QT9Nf+EdcNP+1/Gn5i1xs/RMledz07zAgpuKSVMtAsLbVZ8xpSNURZ/XvhWdlMWxzUciNRDwwFymSeZbgrWHhJHWFktbCG744FXfBUm7Eikfjv+mv6EC2kjT8Nf+1/JESWv6KBSTl8Ia3/lFrICGiPKYG8dbwc9C/JY7sAsWS4xAVEzcDMSWqfE4Fqj65aggkl9nMhFsiQW9NmA41xpxc43IgxPCFnoY6fF6/hi8eGv8hFYkjA94JxMPV9Nf81/JHfuCAFFr+tv45DvoXM34q80GZ47ZGG7ypN2Arm2MjefbBXkXWO9Ek7c3kjuy73tQPRmWiS4wN3yA8Ngo0PG4b/sRN419btOlvMMYGuzT/ySMeIqXlT0nUMi2mHBUzLX9b/zwv/RuaK2XtTAbfggc7EiyvQKII1wS/pNWDwH85EkjoV344qpzJypal0eC9JU2nqyR9sOyGL0Ya/01/8kxYKw6Y5r/CR+Gk5Y+Ss+WvSGj9c1z0bwyImoqAd8Ba2T9cQ6w5z7DxJdyc/RjDIBGkdN2mGXIpCzi5RkevDIwqnGRrwWBUwy/ENP4loqa/5r8pc0qoeFZitPxp+RsJ0frn2OhfDIhiVpW6+j5MinXgkkz3b/BpLaXiYf0nUXUkXB3/MunIaN64yyyL8NyWWgPBe4+CYe5ZWMMvbDT+m/6KT/L58ua/lj8tf1v/HHP9u3Xzn3//MDtHqtDjVoier1PuVW9DsB0IJHp9QvqXoaBFgV2yyjtMB7XD2GhqVRqP+Ohk7RzX8Bv/TX+xq1dMteKhFcdsBFapKtD81/JHEZ43upa/rX9Ururu56t/t1cy23kM6vgBL1LJtyADG/VInfLQaB9YRSvrueZCGFPpRmEky26UGhEcM1/ymNXIhh9ENP4lhnE0/clZxSCTlYqFgqDJR81/CpGWPy1/W/+U5Hxx+hdTdRzOY+DIbpIKqyGocqFf8pgbDQ7OSfBwKH3H7k3nNEkHPTySrIK5SXDcW4bsPudNJ0PDL7xpeRV6cx+UNf6b/iQESSOMVQTS/AdjgJOWPy1/iz1a/7xo/auvC8kEWL0DBOttJlHElaCK4FKdaeDZU5zKNzHykNdHCrRYJElDRPF3ys0pbwkzP3nyut3wxU3jv+mv+U9OQB4oP7y0/AERIKNYo+Vv65/iDQjiuOjfrRt/+D08C4W6qFxdPg6D8nEOFb1pjFh14ni2cfHxLGKGD17XBSR+Amn4jf+mvzXzDD6SR3I0/7X8afnb+metPqdkOHCNTh0xM3zwui4g8c9A/9YQBgIqzgCAW7CSbD224S0Wj8AGEc80psyzYTbEeCgfqw/qsSHikj3nyp0vc1YQoA2/8R9yafobXNP8V/RQ6Gj50/IXSmj9EwV9nPQvcgrlXro+vLqf2Y8rBwkCvcJ+QLPMAK/+RjOg7DI3RiE1ezJpzJuUI257aEljyz0pyIbf+JcO6mj6C3cM/lFeNP9F3rT8UVKGSVr+tv45Lvp3ewvl7vzFSZxbrumchGo8Sy/V/67AzDg9zxRxY85jPBMRcVqHObxaBrExGMxsFPf+kmbcm6rhN/6hj6a/4ozmv5Y/JT8jMlv+tv451vo3yziH6Ipqj7HgaorJxxoGlWDRC2FrvN3PGIT3Y1rEamN+npqH/8yXUDWYYcP7kA2qRhKf+bgycE58w2/8QxISRtPfZJDmv5Y/EZCyRctfFQwHl0zLa/1T+FBovkD9K0tGQM03wJLZehmGk2T0kx2VYQcTeEzL0CC/9Rc2jSBvGmHiGsgwzXRIsPyCO49RGJeGX7jwXDuANv5DJZNUuDb9hVHCOc1/wzMKNiSRlj+TUURIy9/WPxGY4Q4pIz+Vi4FnqH9dOJtCt1fTJqfHABMCYG5TqeI32WRS78ssMI4HPuNn3SpAXh44PFHHWOY5C7LcJB0BLg2/bDkxE5zq6RE9jf+mP5gl/CJBcDT/tfxp+Vu80PonIqHUrsEo4henf5kDMSqgVBrVmB91UpNpBGTogmd+2yKEmzwoOn1H46jsPDDgP0GNCMOVz4Sj5NHrFtPwC4E1XwRkgeHGfwhMAmr6a/5r+ZN3i5a/rX+On/7NyFG8Bequ+BAwDDJj0ntUWeI5YREY5DucMQ5Mq5EwP5iVrA5rJFAllbFBOg2NGA2VtzwTWhj5j6FRcFQcDb/x74xdSKHpr/mv5U9kYsvf1j/HUv/e+MM/obGpWjbysZNQ+8NDMGwBJbmxIWQbYaqHuiVGHp9oWHhE7sfVui5zZM1zT5WyPh8uvIa/xlXjv+mv+a8kRAmTEhstf1r+5uUScmj9c3z0L6swYNZo/RqDz2wF72tMYq3uSSdb51sZZphDFYnX8zCycPVZhiZiSHDLC6W5A8bHhitBvA/1oOEHdc4pXiEzGDc6eGr8N/01/4U5ImMUSMovPyK1YpkwUcuflr8KzdI4rX9AhTpX3uB4lvqXORCqpWJEGbIsfWMMAZLvbZsi40/eDkOiUgxG3chlvBmqVEupSZ+WlXI81a5U3BPb8MVYGVLgJjhPjKHGf9Nf81/kxngpaflTL3KKiFIEFVLOrg4QJs48Wv62/nHRhbokfOTpGepfXvtLZUWPAwj7YHUUQNR8jAYqEE/CfBzyXVFq7JtJxeVMSEKHNgLBMizfNMNoKCpv+CuUiJ/G/ySwQfBNf81/9f7U8mclbhWikawlQ41HeChIPFr+Fh44t/55vvq3JlGK7mgxLpMOo8mGtUtkaHM8Mzzt4LjKzC8lq/z8YWh4dS1urSigEZZhHI8qUV1nloYPPsTvwHFZEo1/6UOkhG4Gbgw3/QUzoRdRFJ6azNT81/IHWmj52/rneevf1RBGZNDwMJTQBjSCu8TUVPllzWhbRKBznc+T30iFvGYJ130HnzhMU+lGebpQoilRDNMbYcKGv8YVQ0eN/6a/yV91bf7TlGz5E/EaoTrpQ/EZodzyt/XPC9S/2w/3h79LSjQ4KVIu5V+G1S6oQ4HOXyJ4qB1QNzNBrvvG+T8MkANqwPIzq8UAZTX8wp3oaPw3/UkHHs1/LX+ghZa/rX+Os/4tD4Q19IcHYOURwDPgX5S815Vgq6R2a8m4UHnScco1xZm+HBAE1igo24L7UV7gJUOlb/gTMY3/pj9pYdDBIAv5ptil+a/lT1FHidc1gYQ+vG35CxI8xEgdrX/EBvgY5PJj9W+meJeHgEIt16GFINzr8E5wv3I0GM0xnKmVNJxc+abFbPpSACYhNPKtDI8MYVB+BKKtIYF5Gn7hQmQ0/sGBR9Pf5J+QBRhp/oskicyoNxn5paSPoZY/0khpiZa/rX+m/HjW+jdzLDLkILFJb3ohEvBmEmDx6RRePOBRibCkjjGQKHKwKptsmTAZY8C0gBlxKRMOj+Wi4UG44UfkBTWN/1CURDN+IZEiPdE0j6Y/cCJCNK648h87vvmv5U/L39Y/0sAL0L/DAzGk8na96ZXlWsJJwVTbtGAwRKZ74hiPFfSJ5347kyaZ+Uo4qUxDqL7zQDne88DyfT4e19WkDX/jzUns8OO/8S8umv6a/ySDlj9goeXvEI8rucB96x/HrF6s/o0HIgQpaBZa2y+hzvCpQptfhPfwSwyrxnT7Y4zNFL451/CDXcrhKc/XMwPzokTSrazCMD1p/I2j4Tf+ixw4N/3BFc1/LX9a/rb+UQ4cT/07JzlEhfu57sjtodgNS74ZNxmK3gy+CelD0CDwhSBujGknpAATjV/en0e5q7cHcpNurPIkYR0Nv/Ef8mn6C/+Ii+a/lj8tf5GLrX+iJI+b/h0GxFRckmoZCNa2+syd5j0QZ/XvhWdlMWxzUciNRDwwFymSeZbgrWHhJHWFhjej4n3c8IMlESw6cm78N/1JCMV8koa/5r+WP1JCy1+xgKQsIREdEg6J8JwSVH4x3PrnmevfEkd2gWKJXig5Ba6991BU+ZwOqP7I1YokV5JxIv3MkQTpUGPMyTUuB0IMX+hpqMPn9Wv44qHxH1KROJr+xAJH81/Ln5a/rX+Op/7FjJ/KvITVvK3RBp/VG7AknGMjefbBXkXWO5HpY0psJHdk3/WmfjkvE11ibPgG4bFRoOFx2/Anbhr/2qJNfxsMJWlwNP8VHkpotPwpidryt/UPL6Mb4uJ56t/QXClr7Xzfggc7pg51X3E1wS9p9SDwX44E0viVG44qx0cWa16NBu/1L8zYall5HMw18zX8xn/RmxSiA2KTRvzMvPFNfyIBTPDf/AculDMtf0REy98SHytNI220/nm++jcGRE1FwDsQES3a4zDKtcAbVz+FuLMf0zFGmtl1mz7IRTU4ShiCbsXg5iXPpmIwquEXYhr/ElHTX/Nfyx85QTpQWla45W/UjQKi9c+x0b8YEEWgKnX1fToJ68Alme7f4NNaSsXD+k8iidr7TF4hvW+M5o27xLJ8bGSu9cxwwTDjLKzhFzYa/01/xSf5fHfzX8uflr9qn9Y/6tehL9UVKtdcPWV896fTv1s3//n3D7NzpFWKW8EajiP3qWoZBEbHMpgJNq5Ifz0JNWKPXbLKW0ZELIex0dSqEBFB0oYvQTT+m/6mZBh8teKhFcdsBDZ4z2DzX8uflr+tf2JRvDj9u72yGRxHhACH06Ckk29BhoivAEHD44jSIxx/AxnngkNjKt0wHiRsC/YVk2PmE1jDL/RmmAf0NP5DInVq+iu2k20mKxULBT+Tj5r/QE7Ln5a/UZ6yRuufF6V/MVXG4TwGjuwmqbAagioXbIs85kaFX9IM42IYHY7dm85pkjpbZooRTPLE1qOUodCb86aToeEX3uz5xn/T3+CVXJr/Wv5ICIqGlr8gogRk65966f8p9a++jnSIW2UarLeZ6iPHYkO19ajGWyRkKLl8EyMPeWlKDIpYJElDRLWvQFh43hJmfvLkdbvhi6DG/6Cl0InEJLk0/TX/QRdFGi1/FLKRrS1/W/8M2cjFfZV+Kv27deMPv8dmgCpdVG6dxjGqV3cqetNIvCsininXVx/PImb44HVdQOInkIbf+G/6WzPP4CN5JEfzX8uflr+tf9bqc0qGA9fo1BEzwwev6wIS/wz0bw1hIKDiDAC4BSvJ1mMb3mLxCmwQ8UxjyjwbZkOMh/Kx+aAeGyIu2XOu3PkyZwUB2vAb/yGXpr/BNc1/RQ+FjpY/LX+hhNY/UdDHSf8ip1DupevDq/uZfbFyECHQK+wHNMsM8OpvNAPKLnNjFFKzN5LGvEk54raHljS23NOCbPiNf+mgjqa/cMfgH+VF81/kTcsfJWWYpOVv65/jon+3t1Duzl+cxLnlmspJqMaz9FL97wrMjNPzTBE35jzGMxERp3WYw6tlEBuDwcxGce8vaca9qRp+4x/6aPorzmj+a/lT8jMis+Vv659jrX+zjHOIrqj2GAuupph8rGFQCRa9ELbG2/2MQXg/pkWsNubnqXn4z3wJVYMZNrwP2aBqJPGZjysD58Q3/MY/JCFhNP1NBmn+a/kTASlbtPxVwXBwybS81j+FD4XmC9S/smQE1HwDLJmtl2E4SUY/2VEZdjCBx7QMDfJbf2HTCPKmESaugQzTTIcEyy+48xiFcWn4hQvPtQNo4z9UMkmFa9NfGCWc0/w3PKNgQxJp+TMZRYS0/G39E4EZ7pAy8lO5GHiG+teNG1Lo9mra5PQYYEIAzG0qVfwmm0zqfZkFxvHAZ/ysWwXIywOHJ+oYy0xmQZabpCPApeGXLSdmglM9PaKn8d/0B7OEXyQIjua/lj8tf4sXWv9EJJTaNRhF/OL0L3MgRgWUSqMa86NOajKNgAxd8MxvW4RwkwdFp+9oHJWdBwb8J6gRYbjymXCUPHrdYhp+IbDmi4AsMNz4D4FJQE1/zX8tf/Ju0fK39c/x078ZOYq3QN0VHwKGQWZMeo8qSzwnLAKDfIczxoFpNRLmB7OS1WGNBKqkMjZIp6ERo6HylmdCCyP/MTQKjoqj4Tf+nbELKTT9Nf+1/IlMbPnb+udY6t8bf/gnNDZVy0Y+dhJqf3gIhi2gJDc2hGwjTPVQt8TI4xMNC4/I/bha12WOrHnuqVLW58OF1/DXuGr8N/01/5WEKGFSYqPlT8vfvFxCDq1/jo/+ZRUGzBqtX2Pwma3gfY1JrNU96WTrfCvDDHOoIvF6HkYWrj7L0EQMCW55oTR3wPjYcCWI96EeNPygzjnFK2QG40YHT43/pr/mvzBHZIwCSfnlR/xWLBMmavnT8lehWRqn9Q+oUOfKGxzPUv8yB0K1VIwoQ5alb4whQPK9bVNk/MnbYUhUisGoG7mMN0OVaik16dOyUo6n2pWKe2IbvhgrQwrcBOeJMdT4b/pr/ovcGC8lLX/qRU4RUYqgQsrZ1QHCxJlHy9/WPy66UJeEjzw9Q/3La3+prOhxAGEfrI4CiJqP0UAF4kmYj0O+K0qNfTOpuJwJSejQRiBYhuWbZhgNReUNf4US8dP4nwQ2CL7pr/mv3p9a/qzErUI0krVkqPEIDwWJR8vfwgPn1j/PV//WJErRHS3GZdJhNNmwdokMbY5nhqcdHFeZ+aVklZ8/DA2vrsWtFQU0wjKM41ElquvM0vDBh/gdOC5LovEvfYiU0M3AjeGmv2Am9CKKwlOTmZr/Wv5ACy1/W/88b/27GsKIDBoehhLagEZwl5iaKr+sGW2LCHSu83nyG6mQ1yzhuu/gE4dpKt0oTxdKNCWKYXojTNjw17hi6Kjx3/Q3+auuzX+aki1/Il4jVCd9KD4jlFv+tv55gfp3++H+8HdJiQYnRcql/Muw2gV1KND5SwQPtQPqZibIdd84/4cBckANWH5mtRigrIZfuBMdjf+mP+nAo/mv5Q+00PK39c9x1r/lgbCG/vAArDwCeAb8i5L3uhJsldRuLRkXKk86TrmmONOXA4LAGgVlW3A/ygu8ZKj0DX8ipvHf9CctDDoYZCHfFLs0/7X8Keoo8bomkNCHty1/QYKHGKmj9Y/YAB+DXH6s/s0U7/IQUKjlOrQQhHsd3gnuV44GozmGM7WShpMr37SYTV8KwCSERr6V4ZEhDMqPQLQ1JDBPwy9ciIzGPzjwaPqb/BOyACPNf5EkkRn1JiO/lPQx1PJHGikt0fK39c+UH89a/2aORYYcJDbpTS9EAt5MAiw+ncKLBzwqEZbUMQYSRQ5WZZMtEyZjDJgWMCMuZcLhsVw0PAg3/Ii8oKbxH4qSaMYvJFKkJ5rm0fQHTkSIxhVX/mPHN/+1/Gn52/pHGngB+nd4IIZU3q43vbJcSzgpmGqbFgyGyHRPHOOxgj7x3G9n0iQzXwknlWkI1XceKMd7Hli+z8fjupq04W+8OYkdfvw3/sVF01/zn2TQ8gcstPwd4nElF7hv/eOY1YvVv/FAhCAFzUJr+yXUGT5VaPOL8B5+iWHVmG5/jLGZwjfnGn6wSzk85fl6ZmBelEi6lVUYpieNv3E0/MZ/kQPnpj+4ovmv5U/L39Y/yoHjqX/nJIeocD/XHbk9FLthyTfjJkPRm8E3IX0IGgS+EMSNMe2EFGCi8cv78yh39fZAbtKNVZ4krKPhN/5DPk1/4R9x0fzX8qflL3Kx9U+U5HHTv8OAmIpLUi0DwdpWn7nTvAfirP698Kwshm0uCrmRiAfmIkUyzxK8NSycpK7Q8GZUvI8bfrAkgkVHzo3/pj8JoZhP0vDX/NfyR0po+SsWkJQlJKJDwiERnlOCyi+GW/88c/1b4sguUCzRCyWnwLX3Hooqn9MB1R+5WpHkSjJOpJ85kiAdaow5ucblQIjhCz0Ndfi8fg1fPDT+QyoSR9OfWOBo/mv50/K39c/x1L+Y8VOZl7CatzXa4LN6A5aEc2wkzz7Yq8h6JzJ9TImN5I7su97UL+dlokuMDd8gPDYKNDxuG/7ETeNfW7Tpb4OhJA2O5r/CQwmNlj8lUVv+tv7hZXRDXDxP/RuaK2Wtne9b8GDH1KHuK64m+CWtHgT+y5FAGr9yw1Hl+MhizavR4L3+hRlbLSuPg7lmvobf+C96k0J0QGzSiJ+ZN77pTySACf6b/8CFcqblj4ho+VviY6VppI3WP89X/8aAqKkIeAciokV7HEa5Fnjj6qcQd/ZjOsZIM7tu0we5qAZHCUPQrRjcvOTZVAxGNfxCTONfImr6a/5r+SMnSAdKywq3/I26UUC0/jk2+hcDoghUpa6+TydhHbgk0/0bfFpLqXhY/0kkUXufySuk943RvHGXWJaPjcy1nhkuGGachTX8wkbjv+mv+CSf727+a/nT8lft0/pH/Tr0pbpC5Zqrp4zv/nT6d+vmP//+YXaOtEpxK1jDceQ+VS2DwOhYBjPBxhXpryehRuyxS1Z5y4iI5TA2mloVIiJI2vAliMZ/09+UDIOvVjy04piNwAbvGWz+a/nT8rf1TyyKF6d/t1c2g+OIEOBwGpR08i3IEPEVIGh4HFF6hONvIONccGhMpRvGg4Rtwb5icsx8Amv4hd4M84Cexn9IpE5Nf8V2ss1kpWKh4GfyUfMfyGn50/I3ylPWaP3zovQvpso4nMfAkd0kFVZDUOWCbZHH3KjwS5phXAyjw7F70zlNUmfLTDGCSZ7YepQyFHpz3nQyNPzCmz3f+G/6G7ySS/Nfyx8JQdHQ8hdElIBs/VMv/T+l/tXXkQ5xq0yD9TZTfeRYbKi2HtV4i4QMJZdvYuQhL02JQRGLJGmIqPYVCAvPW8LMT568bjd8EdT4H7QUOpGYJJemv+Y/6KJIo+WPQjayteVv658hG7m4r9JPpX+3bvzh99gMUKWLyq3TOEb16k5FbxqJd0XEM+X66uNZxAwfvK4LSPwE0vAb/01/a+YZfCSP5Gj+a/nT8rf1z1p9Tslw4BqdOmJm+OB1XUDin4H+rSEMBFScAQC3YCXZemzDWyxegQ0inmlMmWfDbIjxUD42H9RjQ8Qle86VO1/mrCBAG37jP+TS9De4pvmv6KHQ0fKn5S+U0PonCvo46V/kFMq9dH14dT+zL1YOIgR6hf2AZpkBXv2NZkDZZW6MQmr2RtKYNylH3PbQksaWe1qQDb/xLx3U0fQX7hj8o7xo/ou8afmjpAyTtPxt/XNc9O/2Fsrd+YuTOLdcUzkJ1XiWXqr/XYGZcXqeKeLGnMd4JiLitA5zeLUMYmMwmNko7v0lzbg3VcNv/EMfTX/FGc1/LX9KfkZktvxt/XOs9W+WcQ7RFdUeY8HVFJOPNQwqwaIXwtZ4u58xCO/HtIjVxvw8NQ//mS+hajDDhvchG1SNJD7zcWXgnPiG3/iHJCSMpr/JIM1/LX8iIGWLlr8qGA4umZbX+qfwodB8gfpXloyAmm+AJbP1MgwnyegnOyrDDibwmJahQX7rL2waQd40wsQ1kGGa6ZBg+QV3HqMwLg2/cOG5dgBt/IdKJqlwbfoLo4Rzmv+GZxRsSCItfyajiJCWv61/IjDDHVJGfioXA89Q/7pxQwrdXk2bnB4DTAiAuU2lit9kk0m9L7PAOB74jJ91qwB5eeDwRB1jmcksyHKTdAS4NPyy5cRMcKqnR/Q0/pv+YJbwiwTB0fzX8qflb/FC65+IhFK7BqOIX5z+ZQ7EqIBSaVRjftRJTaYRkKELnvltixBu8qDo9B2No7LzwID/BDUiDFc+E46SR69bTMMvBNZ8EZAFhhv/ITAJqOmv+a/lT94tWv62/jl++jcjR/EWqLviQ8AwyIxJ71FlieeERWCQ73DGODCtRsL8YFayOqyRQJVUxgbpNDRiNFTe8kxoYeQ/hkbBUXE0/Ma/M3Yhhaa/5r+WP5GJLX9b/xxL/XvjD/+ExqZq2cjHTkLtDw/BsAWU5MaGkG2EqR7qlhh5fKJh4RG5H1frusyRNc89Vcr6fLjwGv4aV43/pr+fmv/CjzIprDk9hM3/SjbkXtDS8q/lf+s/9T+rMGCJaP0ag89sBe9rTCJMwwmZUsyTb2VEspDP/8TreRhZTEzeCJ4YEtzyQmnugPGx4UqQ/PWg4Qd1zileIVNx5W/imWvwRgL7p/Hf9PeM+E+FoChYHu5BVn4Wj1cCXIfhb+L3mYvjCm85vZZjk0q+fkbw9TZ5tPxp/m/5JyOEGQl4nXzG9ZjJf7ay/t+poSq96mz9qsrGVoUVEpltycMIGVvEYa5pFiRtCuHBvCaNQqfK4jL03lCARozEDb9w0/hv+nsW/DfLkGH3BpvFCNh7uNwj4v6DvWX3wf6yu7u3EFz2ZFIsBPPtcb3/QKMBc2EbxU4Z8rdBDf9tNoE5Qdi9YLZO1D4yO9yc3Nlezp7eXk6d3F52jOd3QplBupgH5gWAQnA19Nn8D2Zb/kp36kxIIxTBbesfcCCvHGf9u2M3KRwGH5eBkIgRpcXAL5aPbxw8q8dF9Kt8xsZqoiylhRTB4dAGYoN7QnP3qfkwVNPwg8/gIqieCC7UNv6DlKY/qOQp+E9hIyvqHdBjsIcR4J4Be/saDA+Xu7v7y41bD5bL1+8v3165t3xz7d5y6/becu/+/rJHXo2MO6S5eYv09+ces5a5tezwO4mBcAYD4fQpDYVlOYGRcJL7c6dPLK++tLO89+aZ5bVXTi0XzpxYzhC3s8PzEyeQAFQIA+MEMiGSQ3q3WGRC03/hIv0mXoKQoAeRSgS/pv+no3+w1/rnBerfHek1h0TLb9BurJ4QdCKLyafxYJoyDEjPTZUhoVdR82quej6GLHhu3nrPmSGvHF74jbuGPxVBkNL4ly6a/lZssuI/WUdDQW9BPAzxHjxcdu/tL3fvaQw8iEFwF0/DLX537u4tV27eX765igFxeXe5dO0+xsL+cn9vL54Hlw3vYkBcu/kgBkdRXsHVo3AaY+HMqa3lVAwIPAzEnRqeh9deOrm8+9bu8sbLGBDnTiwXzp5czp8l/Zmd5Rx5TmN8nD11Yjl5asGowJjAeNj2Kt8jKJQVzf/2KLTe/B9iiO9L2hAngz4Mt/4pr2Dp11CMirWOcRVr9fw56t8b/8wQhj3jIeARNKCbUeG0iiKB3oRJ3AfTp4SczDfHSV2SyLvHKMOSKFB4sZIsfNybk+AaWMNv/Df9PY7/MgcBpmEkgiEHjAC8CPe43rqjgfBg+frq7vLN5XvL11fuL1fxONzA03AHI+L2HTwMGBK3+d27v0c+jRB4lnJcToyzgnLk4TX+ZU2/ZbOzjTdB9sV3KW9vwccOU+BkyNDFWbwOZ89oVJxYzmNEvHFxZ3n15ZPLm3gl3njl9PLGqyeXVy6cWs6fJx1GiEbFKY0IrAhFgh6JOpr/m//X9Fc00frnuOnfrev/9z/hHVOJ00Vy8NT23Jf1AiPz0MfzMBw3JAm2cI/WHgbz6bADphxIxsqRFAnOe4UUYqjhN/4liaa/J/KfL6YONTzE4+DcBZX/rbsPlusMS9y4zY/rtxgLX1/Z5XdvufTt7vLt1XvLtRt4IGIwMO8hhgZzI8ivoX+Y/+yKECQBJ03aLVMC6ClIV8mzk/+Ngd8ny2tUOAfi7JltjIWd5TWMiNfxSryBEfHWq6cZ4tghHkOCIY+XXzq9XMSYOI/hcZr0DpPo6dA4yfQLri1/JvbTMcF/y98N+pMWNw7vIKM68igx6/ukN0Hrnx+tf2/84fflCxHH/BQm6whxXoiO12AEjTIYW8N8kTCzk+qapDPKYsZxMPlIMMvltuE3/pv+JkPINCOMopdbHKa4z0RIJz/qRXCuwqVru8tnX91ZPru0u3yFwXAJj8O318qgcCjD+Q0PyKPBoPEho+8xSZL3uyo/IDwJ7Un0RzpmQiqDKzf33lCuqn4IkQhwhyhOOgeCnxMr9U44tPHKSyeWl8/tLO+8eWr5zbvnlvfeOhMPhUbFOYc8Tu2QB89GvBGjTL2WI+jVYMufQn3LX8lOul4TSEIziifzMGqtrkaCmY3b1j9P4n8QCL5Emfy3o1QqpIFWjQdNN5k1h9dC8uTf5Eys4oIikp40SVAixKze6gI1RqHkZ5qVM7kjXjhZyolAbPh2WuO/6e9o/sPZwDAFQxUMTzgJ8uadB8vVGw+WK9fxLmAofPntneWTL3eXzzEgvmZew+XrGA93mARJ2ppbQLm8zrsCIjzH1e3wt3QVDP4bYjV8GeaVieHW7/K/vO6/nKwIMQkR3IWnDfLzyZ6eDjwk8v8eZ4c6nENxlvkQ58/vLF8xD+MqnpFvacfbr55d3nz11PI6XoqXL+wzf2IaEg/LkKAqCn6KybGC3/Kn8N/yF9qQJgd9EGj98/z1744Y34f4ZHL//ZVC96aO2SnpnRmtcUCHWcXQLklLjiCsiChmHzkdpjAleTPcQbTLQofcafiN/6Y/GU/e4if/OSehDj0HrJ7Ak3CdIYpvGJbQSPj8G7wN/L78lnvmOlxhMuS1m8xrYNLkLpMnXYrpUIDH1sMT/Cb/afTPt7AAC/9lmbaJfeyLRCpjRJKvA7NaPC+pMfif8msOBQWEnnmqcjc//G/58v991ovu724xx+Ie9dSD8gDPCfMkXrqzvPP66eXX75xhJcdphjxOLq9ePLVcxCvh8IZzLMZ371OmwqPlT8tfqbD1T/FoRIa8+wL17/BAFE/KoJkgGeEh8/OLMFNU8DZDxfJcwTAeh5EVKty7VMsO1fMYOWMaBYtXjrz18KDmTFhmHiMI8jgCouGLuYFQMdT4Hwbm3w79yQMKAYcd7jLJ0WGKqzdZconx8ClDFZ9/c2/53KEKf0ySvIYSvo2BcV/DQSlS/5ngGFeAmptjzX/eyalrSjNGRgTyiM0rwCPoj2ejzIP8b24Nhyp3Mrj8Lyy9ElsOo2Dc3GeSpr+7d/eXKzfuL1+dcUkpHglXiLC09K1Xzyxvv763vPPGHkMerOrAI3GOFRzZf8KTBfqjvakK4ZY/LX9b/7xY/ctGUsyBGEeJD7mSw1iCM04mVRCM6PAucmAIC4SGgkuZYwKPeY11ENFR5RGvcIw/dTMd4QnL6AloxjV8UNL4n2Txs6Y/WUmvg0MVl67cjZfhi693l0++ubt8+NkdPBD3MlnyOh6HO7zF32W/hn3S78MkegE2j/IFrvkPawwcytiVsMx4cxgaz7yVf00247wfLxhEh+8dWiljQf7nZpP/zZzD6xq+cqLgc+aRX/NzEyr3i7jAJMqXWQr6Cj8nXr6LJ+J3751dfvH22eXt15h8iVfiPEtCT59USPJKQ53W8LnZhG99PUxwAH7Ln5a/Et4gkEknksqkdenGeJLNuNY/R+sfpiqtDwlLJRWeI7pwq2Axvu7kUR94HxciYZd34aWsDCaTZ/3lcB53jZbGyPCB6c2XcmY6sjf8xv/fMP254ZPvkC7FvME+DF8yVPHR57eXT75yfsNdPA93mSzpiooH8Uz4Bu9KjHjt4D91eNh0xXvylup6vJvLdDnkP2K9lW9NLy8+gv9WAiFljeSUVUMI3pNZ+FyeHj5pqe8D8u5RkXsPGNbAg3Lz7kO8EAzVXD2xXMYzcZOlp1cxlK4T9+4bp5krcXp5iZUdGhE77D9hnU+0/Gn52/onPCwrhp9XMuD56t9hQAw7C8vBkEJg1sNQVcFIDQkqmDo6qrmfbW1l4nod8IEJlGRck9g3DttUGb2rMCEncY2niW/4jX/p42+U/uQTPQ/XMRDe/+zW8udPbi3/8eHN5ZOv77GPQy3FvIHLf3cXboG39rAYap5Bae9w2FH8B0IdfvSYfKa2l/+i/Hk244/if2HlFcAxEEFxLeMB/gde+J/KH4QvMGOEswl/1HkFv9JpOLmdtqtG9KY4WdQ9KzQcvrx8PxNFXbHxn35xbvnFG2ezJPTc2f0yIqxU3BGUdVT7ja7aVTsTrvZbP58+rv0t/8SeTMm5yIj7lv+t/+C/YqBioYQnkUSKSy1FKkkxiIeoMJymQPjPE+m9ryScEQbRBInjmXyqC1Qh5GH5yew1pdd9wy8mbfxDHtLKz5/+XJr5AO3pRMkbvG1/8vWd5V8/uLH8+we3l798djtDFm4vnSWZehymfb7it+Kl1SoIuXDFf7LaEfwXpps8KJY9uPc/aF8FeGY6IvmXj2uSpUmNGPkIPB18XxrGERqvsCCdOLrHqg3nfuz6u7eNBwKc4IW4dftUwhoWboB15x5GBKs2XmY1x2l2tozdQH0sJxVdtb+UX8sf0NLyt/XPM9a/GBDFcuE7w+M2giI3vBFwLdZUepAyQgN65Bphk8i8nChG8ldvRpXc/A5z+JKQ4Q7uXba4EkwFnHPDFwUejX+pQWT8/OlP4+GW8x1Y1vjJV3eXP318a/nvf7qxfPSFyzR3cev7Vg4mVIocpSyP4D/5MX/rNGLRbOiOKOgTJ0ihkR7sysiD4IhJ+Aj6K8PAB+SqC+EfBn8boVHw4f9o9RTFaQ3faPessOJ7+w+WB0S4HPQWO2i6WZYrTq4yvPF3eCS28Ujs7JzK5EoXnVT7rWc1xHPLn5a/rX+ej/7NEEaUFe5MXTLTVJCf55uGLD5mMZSnUKtBQeADz1VALsoj3xnD/T4lbbk7yZLUk7ErN1Eje8Nv/P9t0Z+rEdzkye9OuJrio69uLX/59A5DF7eXDz7F88CGULrxWYgRh/HW1gm4DeX4RP6Tx+QveRN+9M0THg3/mZejjPcEv8t/JskwxeBxyygzJEbI84QvJHW/nkonhYqjB1hOe/fvgSsmjDJp9M4dvBPME3nAHBAbtYcB9gpLPs+cZLkq9y1/7OmyNlv+tv55nvo3BkQZ62ufwHw78erhGVbNkRhmP0mY8UD4alPJxnPVoHyt0CKQzMQAJGVwKsNknanhi7rG//RJ/S3Qn944t5T2Tfqzr8vr8D5GwwcMWXxx6R7bT9/Px7CcWDk5RRd/eOWp+A+K0liY/KcJ4pBBWDFmiESXo8qE/kgvjyYfCcvkqDSJJyZ1eZ7wCwD13qO+KkLliLtvUi89Mfv3YzC4n8Qu934gzC26/+vv+K7GK+XV0AzNZ8St9Gx/y5/0raeWv0fQf6h90D9EY6j1X5ixWKjEQMLOfp76P0MYE226KlX625wSRuAoVOaga+QRz01TQodStRZIJ8oNVqiQPwnVtEnm89TJEz8FGhENHzxIsI3/nz39yQduI63xcPnGPVZV7OJtuLX88cMby/uf38V42F2u8S2Lu+6TgJWx7SZsTpbUJFefRrAN/vP2SP4zlWkGH8qb8mixm0/qt4rwGYa/ALjqC3yo14K/Tf6Xj5MlZXPyeAHwH9J+a+VunLdZpeFE072Hu/l4mEtd72FE+EVQ505cZE7EWT7QpddlDpe2/Gn52/qnuP5Z69+tm//8e7/gi0hBOsQyKLmQ88pSGALJyEimjTQzqCFgEZEoJYjKyjADhzXHchnNqKtwSdrwG/9/C/Qnb0jrznfQw/Dxl3eWf//k5vLnj2+zXLO+Y+EYv5Mpdd2HMVGcHgfYDlb6zrHiv5Fyxbvec7ww/ns28DVe1m8qNiAUYkMOfEL8/NkTyy/fPr38t7+7uPwvf3dh+c+/Pc+eEWcwKPxCKIaEFo/HC2u/Mq7l37rvGv8/Z/rbWdkMY2r36qXEVvtGXJeVCVtGQlASlpbR/av4QSyH72NY+JajEVGiICkBpisk8rDhB9+N/5L1obCfEf05/PCADZ/u4HnQePiQ/R3e//Tm8u8fYjx8cYePYN1jq+q9pPFNe9V+gvLWtMsNwknjXF6CA/yXR9OYn+WY5yn5LyVz8jiMf/TihFy1ePHwaUb2vthnVul98HmTb364b4bHA+KcJOrW/G+w6dS5M3yQyy97qs+ftv2Ur5jKcbj9xNsXA6vg4oj2J+MheZg8T4n/ht/4/yuivxP/5//xv/5foXnnMnhMDqkXnwgMOSaPTSL3xKqXK2FcXYVhJYWLzk+v41gFRty8D5PolBxATN7wC2mN/6KxnxH9aaTrTbiNq91tmt1N8l8+vM4eD3eWDzEe3FnSL2ve0/OA9opRP9s/6EEluGasQlG8ffDUfDf/XvzHBKYj+U8gMvGEL1Vyv+J/73PIzPA/9ZvlPEv4DkGs/sDJGn6pbVvt+hyNhf29reDW/TEc9rFm586c4HPibn1t3oEhH3i0/EFJP6L/W/48nv7ljdZ/IAEBgf5nDoQYEScofyRX7TBJBNFZP+4YAwhLKg39MGExcViVB3oRarOYsbGMacxQ8iUCMUgnvjwOxdA1LpuSG37j/2dJf3BBfUWT1QOX2QxKb4OrLN7/+M7yAeFv+b7FDfY6cFdJly4+lv9klcFbefeF7zyKgwzBfyRI9JP4j+dr/oMf5eEn8f9j4FcdXhT8QoIrNZRMdx5ifF0TeShFPBAaG2dOadbgiWCviPMaEnyMq6Z4KHta/ojBdf8r4lv+P5H+W/99R/9nEqUS56FLKjhKJA2hpDWqeNLiUir5VjKQmNQzMc8NzuUiyWLO1XPLVUB51qrI/yiLm4bf+P+Z0Z88EB5Bqd0dqy0+ZcLkvzNZ8j+Y8/DxF3eXb769z5szb83scYAujPOvWCYO94qAX8o4h39Mk4QbvAWfCamUogo1t55HfmLMx1/xn/fFr8XLPHwC/x2Eb7lHwR8whJtKPBv4elmOgp86jHYr+DW+/OiYeLU9fl/DSZXL1oVlm698nsN6OMGv5U/LX2mH/9Y/0eVP5v/H6f8s44xAgdfkexGr+MqbjEj2gCFjQwTzJXzKJ1HAt1zWwbPIDZg5kjB3FSeDG1diMV1XArNK5xm5SWL+ht/4/7nQnxs/3UeJ+RnuT1mq+We3p2afh49YbfHVVYYtGL/3uXouS6Kh/uKSstXlBw+9A/JHuKPYByIZ3OKzA/w3kxWHmmqkHPxnOcNgqWAUdMFf81/VZJWgCrF28irR4WlDPwC++YcdFACWKfzIM8vmb1P+HGz/Gr51FH6WlVHgHYaA7jO/ZBvj4dzpZdk5ub1cOLeznOS6dfEkqzPAq8MZZNmE3/Kn5W/rH/luzf+b/Bce52E4b/L/SJ0hjLyZyNUc+zJYEldhnjUP9D4oNEwmIEMJm3jTNSF35rk5FYcsQRtxWValwEkC81VpDR+cFNoa/z8b+oPy0VJ3d11xcS9eh3/74CbzHzAemPNwexgPUcRRgjKF/AfrwmeTOxLnCT4rpX2I//JI16A5xkFw5s88ifAhz1LGILTAWPOfVTDPmv+L1+XRelEp+JVjlj/qaeZnDH8aE8oOww+3kULUeQo2a5dwGMcNtmqFi16HG3ze/GM+Onbm9J3l1Xx4a3s5yWTKUzs7yxYrMzQiKEyEpN4tf1r+hIyghjX9F3UU/UMrrf+O1P/wUk1QKlEAujIDXOaCx+Qz3m5ELhfkTzGcZ8cZPbQfNBOSuGI4m7/eVrwWn3JP/irZJBVu+I1/aennSH932f3oG96I3Z5az8MH/L7Mp7j3+M4Dngc1I8zx5PbDNSOteDrAf7lfcVXKs1QP3+xX/GeuyXP1MLz4dPwHTPk/kH84/MgPqmF7U5ZhbtDp1jalT/ljzRU39QKC4YAxVpM1K50bRXkoRaZU0SbY0xPB9zKusJfGZ3zB1AmrH3/FXBP64SZbYevxie0wcdHy7ynoDzy3/G/9J0MOPpWHPbKMs4KDIXPh879w2Yipx5yZZ0Mc7Aqj1hf5CJBI2Tb3uBdAOF+h4IPx1jPXY1tmuUGr9DAzcSnIc6IbfuP/r5f+MrkPundM/qMvbi9/5Iuabhb1xTf3+CgUwxb5qMVQx4Mp1/QP/8BUGRSUlWS6HBgceTIMbxWqfv/wizsv+oYe7goLRiv4MkAaMTn5L0VRN5W5kFIA9yv4iRuf/064+NQJiPuD/8Pi5A980lj+08CvqlZdvgN/1geBsE+b9yJkqJWAq6LeAKnus0Nn6q2YqTJn+12VcRcD7TJGwwcslz116kQ+unXubHkiTuJ3rSmW4jeN5DTamUvLn5Y/f73y50Xq35oDARNNpR5+ioCJ2EldwsAw1oGP3yCwfHuZzF3MO5gx+ZnVq9kqc0/2FA78j59o8KvQqoyGP/ANRjS6xLWYmzpBNDX+Q51iCGQcX/rz2w13mBz59dXyPLzPqosv2efhBp/pvqeCfLBJ/9WcoeaLnex/lb/8FYuaN3BM/lO44U+jDE+dJMzvJLsvkoI0Vcb6LO24pLr4b5VkxX8zz+A/bif8lGF5LocE9or+8mB9Mr1DAWsFvH5maYfhy/ZEszEDv8P87yMKsiy/THqPFSl3sr8DYawmP+9tG4+if/NoCm3Kn32Wl92/v5W5J198s5WhDPeFOH/6BOFthjJOgT/bB2ALpoyWP/aZmBQlhEFsy58N+n8E/RXCpN8Qk9gb+Pvb0H87QQBt1yJXKMhNImMKD9ev11hjIck3Gf5BUiFMBh48SDrTcELYma8+4sM9CfJGZUYRzb/JQqIjf8Nv/P9c6M9tqr/6dpfNothp8kM+kMW8hyt8MOsehkUETVinhHXx0nf5T64Jj7A50kl8/CdPbS0vnTu5vPXqzvI6yvBlxvbd50A29DfYyGzhL22HvLz7AIYTtwOiETmSZ2Qs5eFNpRxVDB/HUMiToWJmHuEazrMCmxszPxZ+Sq86z7Ko3R74uc+mUNfw3HwN/r7hq5tXroE3V2gKA9nhPKrKXefA8xm/vJtwdRy7Po++xddM72No7S7nzt4qHII394jYZl3nDptrPAr/Lf+gFlDc8r/13+P0/84UPlrgJQ18dyiB4/1kpAorJKCqcB2CxjeJcSQqz5AcUJ7El/IIbM0p3rNkpQ6ATdLwQZOoavwXvUAVf630p4Lb4+8mwxSffXM37vNPmf/wLZtHuT31PmMA4Sz5Cm1nlxf9yy8H+S++g6TD04Dx8MqFE8t7b55a/v6X55d3ub7iqgL2OsiGS+E1yuJvX89MoHhvmfLfQO14Eve0gMch/eVWvkya1JJw3RO16psq23jj6lLPfzz8fSaF3Oc7IVevMwmSbb79LXzzwvkM9zHKgpMJTPAVkUpUazxjpCGXGMVYHmKM+N2RK3xz5POvt8HhyeW9N3ZZmYHxcOJ0dqlUvnkcxn+MWfHP8ynLTGr7n6X8E7YTP++zDvWeXxrFc+VXRjWA7CchVpM1nPijEo4/77BVt9//OK1HhVUmJ410tzG9vlR41tnAi5a/c4fQXeYA3aM9tqNIRd521dHA64p+bJeK2ibgZeOrqmfP0Da8bDsYzw/1WiWPqPhx+KcgaGIfo5QvusKTd9ncjT3coBnppvAtjKrxIfyDe5cCMxc3HkDreRrc2xdVL+v2ZPxrJLu0+y5zdYRPNSApIPKrFh6EX3T3EDjgRQ8k8uA0vxjAPARqkWRw82T4gTPzkVmoP5T+d5KZipdosyo0RGFmZRhvSMMi3IooRawNkjAl0npvJmAczFvIr9uESVwdQ5mkMU+l8UZYXhp+41+mgRj+iulvnw2NFJ7Xbt1fPkX5ffolngeGLe7w1cg9FETaBz+kryX8tJUzwqv6XxGKIAv/ySc1bfA8Y/e/eOvM8p9/d2H53/7zxeVX75xhmSJKEOHl+oM1t216OCo2MBVM/mRcQZhlwPc+b5nyaRhUaWaRnIo5yUMGjB9532c+Upv7eMX/PIif0Uifc3hZwU/e8ewR8N2Fcw+Py7Wb95c3Xz+1vHT+JJ/xvo5C3Vuu32ReAwrJrNmVk4DDofnwXyAJbWMjK+6s4B7P/Pz3FTwRX2LUffzVqeUiBsS5MyeX0yhgt9Iz50/Bf+KdHsNoeBCj8xJzNr64dBtvlZ9xd+tz20BD8wJGXVWyVNZhmJfO7iyv8gnzt187ubz68ul8ROzEiZ9e/orzW3cxAJn78+U3uxjPD/gA2gNwDCVQ+Riz0I47iEYviHyeSR1FDgAAQABJREFUaSj4O3VqWV7Dw/brd86yHfmZ5eJZuCAGBOlJ+2P0z8zvEJl8+fXlu5lo6wZvDzA0ITOOQf9SRTKs8S/dncSo8YNtb75yKpuUvcX1PH2Bbk//lG4rmkpYvophQjkUSel5mXBI88tvmVQNjq6xaoiGBSdHwd9GS58ACRq+b792enkb3njzldPL+XO8XERWSBtV9yfBt0mVxvb9eP0b9hF2WSB2M6yUBhdCBCgitXx9SjuHtUQ6J2hpZBAnIygsDAfx3k/PA+2rOK+FRM/lGq08DR/EgOfG/18v/d1h4t4VvA2ffcnwhbP/L91hl8n7fKPBt8lwxkH6l6PkrbCH/e//aP9QHNvMe9BYeAfB8Zt3zyx/98tzyy8xJnZwwZ+Qe0d++c8j8kRYBsJ/hnmg5PIgnJSUL+f6Bdi1kjJMfYZgSb7KFTjmTNFenVFp+SSq4o+GP1dejOrl8ij44kLR8/K5+8tp2nePN7QvwOG3N3YwAhjKUKEKkTQla5Q5h+UPDzPHAuWsXKVAh478zojLZz+iXy4g8F9BSV08R95thD/pXrT88QujflX0Fm10N9JPaOcnGJwfs9nY5Su7GBC1YqQabJvBMw23u85hQFy8gBLBePjFm2f57S9vv4FX6iW+/8Ebqoo4ffWC5e+u33rBWPgU+v/X928uf/ny1vLNZQwI3rJDl9Q95EbtnOtSE2mlH3oRJXmSPj/FW/1br5xcrt/YW37z3h4eozNpl2/7Kmlpp97W7Tv6/yn1j14pt4rXuNFQ++Sr2zHwPwbnLrO+h8dHb1XoSt7zkLA9rDf415A5ibfhFYbB3nr9TPhRhngXy+IMHpMtrslC3FH419Ok1+Nr4H3wOROrocWP2PhMA0YvjRODha9RnGPAD1zKvogX8h3w8Z/eO7ts/XZ4PvRIICN+Kv3LKowiSqRBGm1V0svpqmqHGCy3B2jRkKheTG9WfNCe+2BQQre0IJLcFOm2qaI3WT0PwSWuDDb8xr8E9NdKf5L0bTaM+tBVFx/5ae7brLpwp0lYWxcpwi6fxobSa0UERA/xhx826R9mEQtRjcT7LQfdlq+8tMMbGW/luOHPndnJm2iyhX9SiuijcHnJSwmjhInfR0BP/ktCXgUVxCrsuPFX4xyzEK/zoNBEUybMmrd+37iEkfwjz7jUk0PwbX/q5FMzHQ3fdj/kC5uvouBfZ77Ha6/s4InYQck+SBVKWAiIX/4r7MtIEngdOAgk5I6K4SZv+d9c3Vre/wyDDI/ObxDCb76CYgO/JxwKeoHyb/a7ivVL5no4yfb/+9ON5S+s1PFbKa7eUdlkCMPm2SCvtov6nkGJnTnDHhcYDO+8cSeK7B9+dWH5zdvnGN46zZuqyeybQsSLkL8qUie+fvTl7eVf/3Jz+X/+9dryF7Zqv0VbVNyh/9kxUfzqEdo4MG+7lIAaxa/gefriW/dLObf8t79/afnte+eX1xiyc+6K7qfvq39cvvQAg80v3Tos9me+gPsvf7m1fAyPXtJDQr2th57AFD4MAKozjsJ/PCgYZ+cZPrh44c5y6cq5DGGcOwMNMTG3hpFI+wj9Jx4uYRx+9Pmt5d+YG/X+x7eWjzAYr+EN0b6fngqNlepwLhYnjuhPjZSXv2BID2/aWYxg6dj4HfC5Wq1k1kfAn/wnZ4aPlD8j+EP1L3MgijJjSKSwFJ+apxkhRJjfdIQn8ZNAlFdcmrhqcgKDdnkyXggqdfXPYFYFZcNv/IeSoOQisb8++nM/hweZ/Pdg+YwdJ933wQ9k3WDipPF7NEzjwZ6G12EhRCVxZYwf6v/BJzK0OXyrOYHCcBjDT1erPHwLCq5SYiQGacOaorIY0SuHF4UTWyh5u+a/QjZQBnyf+Se/V8rksI7KhqRL2ISjLFLKw5Xz2cC3bJdZ6qY/fxalwcTRUyh4Xk4LrEKvwFctDRORS2LqlDZwMv4BefbvLXEVb3294Hk4lSGmVy/uLO9kZQuts42mt40pYpSZNj9b+bfHBA3feHWjf/jZ7eXfULj/8883lk9UuAzI+yZfyr/wu4l/qwZJZAz+6o37yzU8XI6lnwJBZ3hLv4iheRaPlfMG0MlpfxwyhGyX3W5ven7W8tdxfeleJe2btUN49/DKufeG/eBR/WTFJpZTq1XdbNu1M8wjcqM1hhpOn8ZYRmm7EZg7iu5gCDy0YSmLvKHFQ/1vGydA0u2C6zvg1YnNf/7o1vI/3r+1/Cubun3O8IGeLefdyCNWyaKtkTUVY5P+g70Ba4e6nMGL4RyU//rb+8st9hd5+YL4rCM4HvC9TPw7uVpvx8d4aPQ+fACOrJP7k8RYpBKVzTPwLWiD/naA534moGH5+1+fX95hi3ZlAgNAI9+oANlm+zfhW7/U7Rn2/2oII60HGnw0W1FRRvATkWLZilkpzyZd5TPW2nkUfSZY71NEbHR8ZeJxYFXnr8pJXLJWVMMHT43/40x/2f2QD2JdZrLeJdzR3+KSrHkPThiTU+AN6RjpKHkfoP96WlGySSVImgh48xsXD4FXfjksc4QSNwSOURv8p1jLTIoN/hucW/nha7MHbgKASHlVdrwNPhz8b+J6PM6pm2l/HHxf/ix4tr+8ItUUsWb/5wWRtq3hA3zgICoq1lmVs45PzfJ26afU95ig+enXd5b/+AhvDm9xL2GkXOSNPTie+C8AKcK3ZCv1rOhPY8DPtd9Ccel9+BeMh395/8byuW+i0/PAc/88rIp59gb+HWqxmfkKKa4tx+5PQlevMR/CuQPv4IF4yd039fCgDU2fd/uN/t9AGgCq/6uxaWoBFa7wv0f75YPrjOc7pq93RQPAr6Pq5ZryP3i25GH0TfhUL53tN032ybt/hXF/FTWG5AkyOezkEuZzzAM4HQPiyfpHsC7pddM25zvoFfwf4PqPvP079+Am9RSe+NVg065PXclXrbf9aDBxEOK02tWefYjRydK3Y/A5HEVPDbrZ5L9N/XeXlwk9TF/iXRH+N1c0/ihPb9Nof3V7EBaatNuF7+M9DCGNyyvQsBvUaUDqlXx41toezX+b8KfhNdtWHfzj+j+TKEVXGr+BgyDNyvtgENk0HoihQXkSuWJzU6kKrOpn1YIA01YgYIo5LMWQVw4v/MZddRo3DV+kVCc3/ldkcmzoT9LVNXn5+u7y5SV+KIVvLzMJDsGi69zD3iuXctV/jrdD3MrRpCgNZnikidAarDT6Py5UyzLfeL5+YzKy8s/rXyv/BSW0r7yT4GO0X+HgM39T/owWc6HxwwjJNenMUEixjH364w4K4TKC18+oK3x/9e7ZKN9TJ3GfTziWJn7J/qzlj/V1xYUGxDe4sx2D/+Tr3eUqysw3eJth+w7AJ8ZmpCVe+d2nHSodacy30i+YIPomcwd+9c79rDY5wQQ7J9nSJPKJywSq7JQUKD6xSgWU4Lg7CH/g5Unyx7y+nfshs+wUGuJWOVsuT+0fjkn/xqtsfRad4L2RtOkWMxrFzwcMF+hRcdKgc4HeZvXMqRhGZLW+/MyWcwVmRK7iSFzrGXFis/h2eOQGyj9DK2nb2hixDf7W+LfsiX/bYhhAJNJb4qoR67HuIDObJ7kO4H8fg+oWnhUnWV/HO+nQiRM6M6HUTOZL0cLhN+pW8OtlxHkzrty4eWfIGO6DxxWBVBlHwa+yBSGgtJKQ13FLcNxttN/I9F5klc/9Tf5DrlnYOIp+U7xvPBLdfFpXwRHHTQBxnc9Twig9y4YIu6TMwzSVbnaUVEMCK9bwg6OcGv9rWvkroD9keJak+balK/ITtkz+DGUQDwRGRdZdhPCLZeWa3GZ2n/QvC6y5QwFbfGJ8jW96T7Ihe/Um/G3xn2+E4sBr3Ly0X6UgTlbIMuyRSC5YWJFd3IuvOpQ1hdNdPtjp/JRPGG5yApurBBTME//Cex7yT+VjO9zk6gZu66sMYbjiRGXm23vgU90oambObauhuFdUJg5aWcvkemu9z1up7v6vmNX/GW+1esBu3mFVAfH7W7xec9ietInCcs0QWhX8LOXvaYaa3mKyr8uML77E5L7TGhPWXWXor9rhq36M4aiBql3UgUECahnnJDgp2dUKH7ifivMFvriF4i2lGyVE+rTHRnpQvr+pf5z3oJGgwq5VD7y1o7jv0v/o7XgctMat24RveSnzkPxxDp9PBOG8pJfPM0+H4aKXuLofi4ZTytiAf1j/2fdZonuP1UEgI3o05dps8qeTbQPh9H/Ri+lcTWQNTBPDka6VZlXkq+NQ+w/DJ3elfob9v53Z1NbAetChq/pYa/5pCn/zsAJFCHkoAdjoQ0dmnItIEGGxo9qEqsxaK+sTylKYenjb8AsPwUfhqvF/fOlPoXKfsXXdtl9dHt4HJjhdu7WeQS9ZH6B/+1bDWv7iOEz/Q574JM8jWMJL3v5t8J8SJTgLCqr/K45Y8FYih4fKH/4OH2v5U1ic+PeqkL/Ha/tlXcko3C8u3UtYRfO85Y+yE73OMr7yPvhWfOVajc/vqdEiT2druF+1f7bSFlT702rSu7rAr5BeZq8My3OS3mVc3Lu4y8WOSmu2PwVa5or+KOsZyl/3pHjz1VNM7DyLIXEqCtZx+xq4m23YhG/9Ffoc1muj/fazS6JvwEvfTO8BwzyXrjH0gHdPA6nSH93/FucQylUMtEsMX/g9lM8YupJXdxn3cRWIaR4Ff4WrUNiou4odBj3NZMY3Xj2ZlS+vsRomS6rjhqBAjjX9FeYn/m3THnBd7v1Qz4H9s5/ZyN9p/5HwTU8ujSvlR+yNn1j/lgfCPvBHn6wsUhA1UFxXse3BtZKDFsJJY4QPcpSVFkEoDedIgoTS6CBgPDFhFdjwG/9/VfSngLp517cahDeC23FJl4nlzYC+lD8Glc9AuESjoNhFhbZB/wbDOCYv/lP4hMdmWavkT8d/4VGYrq6UCmjFod6Tql9KLx7coD9jfeNX6OU60puPR1UG1zwzKmmr3mFn62vaHMbUkSjrM8qzMJNGBhCXydpJajwel+AjKZLEBoi+tIHoVd4KkbPkT24r2yg8hSbaNzjdx27w9QmrBtz06072zKbciX+uVbNxnWVxTfs4i7+kSfPWCfLc2zRWuEkQHGX+AwrwMybaOhfDt+Nd6EgHhG1TD9m2Ktm2CEFkWQ7PeHt0OCxqWTySwnF8x+MvY7zqgXDjLYfQHmQyphkLvvnJwh2nWZ7t9bE/wPyY9ruvxusMo7jM+Ndvn2HPglMMP2gVVIvmeZu3+4L/aPoPi0h7dJY8pYflczxGX/KBNDcG07iwH4/Cv2U7r8A+1qhyQuf7fMjuY3Du/AxtKw0Icz+J/0yDLwd6pfbgaAfPgLvA/oo2/oo2ulroHBMZneRbSLRHCFk8cOowpo7gP43z/ij4xld6i/hu/xeNSAMellfJTe3xFPDNMJIfaP8P6P8Yh1YytbDcVGzWaliHNsMoj3G1msnnfTip8hibKE7p3GQhZGTC5AJc4AxCaviN/79G+ssGRwikbzEevmbeg5vm3LmLMhiuRZVq0fwh+lfwyWeH6Z/ET8V/8hb5f/78N97OlCjKj6BM4eH/aH9uJv+U9DGpaR+FfxUuqzrZG2I/Q05foJScSe8OiXm7m8B8xc0BplNolWvUCr7xTyn/TKYL26GLT/F+fO7H1VByWT4YmBT1RPm7bn+92VNn3sb9eFje1jFinenvsMYu8wimB2LWP1iziKPoT5w9Eb6tJ93E/0b73X/CyY5usuQy2V+9fTrK1pVDW7j4PQL/KenfATuNBIcyLo2vqzpM6Fwj+84dJcsOSING6fQVka68cHjoU4yOj5g8+Sl97FwRJy06bySDgVvQF1lX+ocSHtV+JnVkx8+LLzFMg5flN++eY7MrDAhW8rhjZoyitM4WWo5FUziH5W/iX+eJ263HIoEongb+zF+WSdWzMCqwg+1/EvxKLvwy5FbwiXpU+9fw0yRalJ6kh8gUl4uNtb00rgr0xp/39UsgMZzS8HpSxJgockDQZIthG2I0LWBGXMokW4jfljT8xn+oE1rg/6+F/hT6vgU5E/orBLZzIJxVfWvMPvcNO54GCZw1dU9F//LW9+C/eguBWyOMABMUPp7/4ikAzKP4zz0rUlA6ww4p3pfTfwz/2678LPep+N9kiCnaZjuFP8VJXUuEJdV4IM7j4rXagpkZDssfywJZzqD/kqGnzxjGuM5yyGyXjfH3vOSfk+jcdVKa+cK3aYyIe0ycLGVmWwtHj4OfPqZtMY7gG9tY3/7AgMBosD1fUO51lGd9Mt7Ez1/+qovsC9/EL5zbYe+Gcyw1vJChjAusdHGPhEw+fFz/W8QG/dtGjTo3X3LlgcsunQ/xEZMhv71am22pjDfp31UXblN9F1w4rPMXlsm+/ylzXTQe3BFWi2TQ39RR9cVbieYg/BAROHZCqMtIz7MC5B027Prte2eW37Gh26/Zd+Mie1bssHzWyZTpG9r3SP0XANXP+d6tGagL1eU4Gr40oVcqnqlpzyb1IfonzRPhTziWJ7wB/8fo/5RDeXWIBCuSxhjLj/+yyqmwFRCox3hs6sRzv51Jk+ViSSrTWFoSUI731jt/VYT3SWbSht/4hxiOO/3JAjK9s+Z1pzpG+y3CypnRuo1X9JzAUfQfNlilW6ff5D9YE2ZE3DFr3zfX8calAPQw0yj/58h/tlJPgUvXbL9DJWv5Q8OPbL+4L/kjiiZ+DsuflE3/ZfUMiuWb4fa/6e6PSP/nRX93aYvGw9fA+4rfNcJ+F0HlkANtsZa/aotq53fl78H2K0M1Q+6zocFV6NChDL0cTu7NZEoTcDxv+Xti27bohUDRZqfGs9nk6q03+BKqOzU60ZB6WBt/q2YTznFE+013j6/XupLi8tUHDDm5Y+edDBk6/HMvxEGioAQsgEDj5MfP3bqcIarP56oL+xZaKmxUXYQ766EFdxT+fVN3b5KXMYzew4D4Nd6HX+J9eB1PhN/swMGSl/kn6j+BAVz4/oQ7rwSJOBr+d/vftONHCT8l/8cDYd09XPNayORsy1I5mdJKeiaGRnp4nrLMFEq6+WxkTZy2zigsFrbZHcczi52Vgrh4NPzGvyRRxOFVujt+9KcyU6G7Y6DC+hsE2w223tWN7NuHhJ6/EPgR9C/RT/q3meM4SP8WhEBE6QjrDi52d7XE+5pDPPn25fEs+E+jSIb+vviPOLC95h+a0GCERep3RPt9IzZaMeBPdPDzrUz4vhE9AJd+jOkuXoL7XCP4SVQyJi0+Qv4IuECvA0fAD/5RuFiBTsjzTfUbvEjXmKCnFyKlj0Y8S/rT23AJY1PPwzWX8fFmPfvQ+n63/6nJoH+FpW1/XPs1fm5Ik7RHQ8J9Du6z/bfbZtu/E8/PW/46cTIfLsOI+MffvMQH4M7y8bedfATKXbajuunosEc6qk62X7rRCHAYQg+ES5at/D77LLjJ1ld4+fxAnctWxeVd5q5ozE/6kP8cFvoMI+MD5j18+nUZVPar5BkcCPgR8Inm8GEAp09OUIkztOlltpL+xdtn8TycXt5kCfBZNrnKtuEQ8fej/+8DX2q0gZv9D68QdRz0r9y1OtJx3olFccjF6vs3O9sMIksr3c4Qz3FjTD41k8coQyGY/MalU3wmcXAZAtBHHg0/pLLCnahs/B8/+nMGtZPubmYtv8KasWze9u45aY03nIOHPRgOWdO/3LNJ//IKx2H6VxiqYHRFX2H5mp+mvoYr9yZb8tb4tl9tpCwkiUtGnXuRHxl1/WZMnwpZjrsx6r6tcX4Vl3WtekhnHofhG/809CfVuiLFiWuH4ftxLAVd6rMB33rr0rce8+fLpOvifXN2Uy6Vurs13mKCYClaa1PsoXKJ/Mk9NUX+iFOqcug4Gv/WSfju4uiafCfb+fnw7MUwgDxt+59G/ml0+p0Ih7rcSMhJj+5LkaGIR/T/hL/S/OmN77Zf+BpibiolrnT3XwJ3GhJ3wKXfWIioDYJE2CH6Gxj7of1/uP0uc3QDqNeYUPnbd08vv2M44w0/OuWmUJkLcQj+U7RfGnZlids+O6HyI7aM18MgffgV00n/DndonLlE9yP2+nCo4zYfU8uHsmb7wZfBlf55DHx3gvWLmxpATgp18uS7GEYu37SNGWKT6H6M/nsM/FD8tPw2+98w+aSRw/hPd1pmyn2++tdmB5IVsUaBm5sBnyqG+Kxq/afSCkUjXKqcRlailJGEqXxOI31KJpzUwCEkBnJMxdnwg6XG/6AKL8eP/nxzvctkyasoORWdy+ZURFkaFpqmA0PaRd9ZZ16cVfRP9AH69+3Cph7iPyNVrr4lf/kNY79sfxv3LQL0FkLxHgJVw8AFBM7HsF68aHEtV7wK2TjHhBWgUdA8U3nr2iZLhgYUpmHfQ/BH7Z/I/wp3lyF+X/jI+sqj4UCdXI2g8eAHyT5G+LvNs2+aV1AI99WOwBGNKrqV/EkljZwoN2J1I1aRM8oc44P1CF5DrsV3G2O3EnbugEMLvqmSPEeKJl2JNiLr38sa/lPIP40HDZbbwNGd7koJvSrZC2FUNyAfgX/7Jz1EGfHcCN23XipaTh9bh5FAR9xmkqB7W6hcnQuhsSmdjA6m7i9A/opv8HKON/R3+fjTL/myptsuv8x3XPzWhYh8Gvqf+E/70fYaXBp4Tlb+8HO+IcK3Q1y2eh2vy32MbOnaeS3fYDTUss3d2mNDAs0bcFQteKNk+8Ra+AgD6yj8a+vgeGCVBVueM3ThpmO/wgPhXhfn+Zqr3hTnfASjRSR00OjQVD6nlH2Y/syViZRBx9HwZ+7N/qfK36H/7w0fmAfwnzsjRy2DDNOkco+lf7qzUlcTxCYhc8pFFSgLRyBVYkqWEFPxZOdEeu8rCWcRahmJ45lBqN3OypFnRvoz1Qg3/Ma/JHKM6U+l7tIytx52COM6Y7GOZUvayJTighX925Qj6D9ED82XdBh84/1kuwqoLHexEPyCoG9dvvno1n+D8VcFm/DMLP9okBcHVjnGEwr/Wk74D2Wt0lHwuQHORco7j6A/xUzyPPgB/Gfbr9/k2x9MUlNJasBQWur1HfjgpZ75xMNrYqIAdjHEXBLrB4/e/4QPFrG6xeV4D0CuCtO/yP/kJF+K8TTan3vin4j/YKyUDp4kv4iZiXmZaFcvRoXL6T8ifVVztCs1WcNP3SpHEqzgu8zSLY+ZL4Mh9OU3eAf4QqXeqpKPqTAYsHDC/hvcoP+SjUTyL7kUHkxqBGlzQiGR0b5wY6ov2NDs7dfuLr/7BR8Nu89EPzr9BJ+zfBHyN22BR06zi+QrbLH9C7bX/i1GRLa4xvC+z7iKc1scLHoS/dvo6ikMJBrvF1n1/H2BJ+dlNnL6DVc/KnaGz4C72ZKepE9pu18E1VDTsNdDl4mSm/pHtAXHQaCY5LA+/HvDMzfyiieFTbF++RbzOWjDmzGE4BdXlkxCNNNj+j/1FwzprUd4UXDCN6/B1ICw/wP+CPDENETy7yhPwSr6K/HBc59xMmtuNuhvBX+z/SvYlm0Or/wAfhj+MLsqvhKTsuDnWxjG1VGVNBxCTXXsaCtm1aqiXjwchwmwPOOeuCpYJl81Jfldz60h6NWG0j05p7EpzVPDH6hs/IfUpKHjQX9F6FZq/aZzC/epO+PpDXDC3wkeF3NzKfIPTcvLKm0F4DZMowAJs4f7Z8JkDguQPGnqLdud9xaGSR4sH+zfyRv6Xz69nU8cn8W1Kv/Ja77xTWNCLtwQJWDQZ/XGrQTy40SnT/FW9fopxqgvLO+96SeKXctOCZZHenm1yij810oIedfKWb9KJ/xbKMeP2CJYr4GuYw2qEwhf25yyBnzlyIr/yVhCK8WlQL0kbooUNzWb/1y+tpdJh3omgirKEa9x+xu2MkG0UGij9crfiE5sue+/i38wQiN5ac2ns31r15OkB0RPii/KO7pXnwH9YWviaq/tpi9duRMPgctIq9Z19n04MXUbpARDzl+wf0W0iKdKE/eH5a/4UClrrHyJIv3c5Y7QqHNnzpyiHzHCfKt+IfIXhGOjLhcwUt949fTyX353bvFbEDezOsThP+rK/cRC2iZGbBSH7ZDm7Otqv7TOM/79HoQ0cpn5EBoJb792f3mJCY7OMfnLZ7eWP318MwaGm0Y9YO7EQ701lklZT+a/AR/a2MGovsCW4G++zlAMwzC/xgPxOl8FPcOOm5LGYfxLLUV/YDh0Wa1b0b3wM24iDOoUUKNfbZi19Jaj+ji1PtD/o9ikGagiXJmeBP956N9yKFF3t3mViCXaVCdxoqOOYkOtQNJKzNS+nnFOa+3saksJPonDR5QnIRCuBlZjKyZJRvaG3/g//vTHi1OGC/RAXMU9rLK8xRJANwgabDA4SIqXN+AXhKmCMPQfRSDL+7yOyrdB/7DI1uqNmzcrFNpd/Le6aDOR7NJ9PirkFwqLoyxq2xnugWWZ8ljxH9KHh/wAIu/qSt/h7ekllqRd/8U53hBP8iZ3MkvvIrRH7VMWp1nLR/G/Qt2dFR1zfx/D5t8+uJX19iewpiLsNuBXa4OS1HB1HyBMnKRyDsXcxYi4gfD3LV33uzgXO8qVPRSq8keDyWzB40C8FwsuCeYNP/4fhf+kIJNfSbzJvgKuqLlBfzpvwPF6t0Q2jcej2l8wBGIfJyFp7ZfCv0rbcXm/keKQgu533ezOF5lH5TvY/7qzpqchbUh5TDMl8ePkr6X6lq5nzPkWvpG/9/YDXO58hIrvfYTDgqOD8J+H/JfsXP4off2SJY83wLETH28xzLJwvXELAw6ilCYnfHEi3UTPSoQeudjv4ggDXi8ERpITKt//5FYMQecH6b3640d4rli26SZhGqNMwaG878N/0BrddwJYF/gCrns+uDHWb99hi27mPvj1SydOZguJ1IuTHfiI/t/UfzSL2hfn1zmtG9mfrv9jPMtT/HsJcuKWIL/1yaM1/W3CN1b4Ho+Fb4I06cn0HwPCDjOHdpp1EIihNbCUZyLiPSFqqH0sMKmk6uST5JN1UtZoUPwuItgEq4qtMzX8Qkzj/3jTnwzq7x7uBsddfbu7hlC8jaLLznZwqC0o+jft4I3J4ArECMs1b9nzoX+ezU9+F9ObUJYvnKj8S5lu4ZZlcuEtlo/5bLKRoEhT8EuFpb4+H5LFtE4cPI2796XzO8s5lIqT+bLUjzpaood8H08BFTN7isiTCq/437TwP0Xmzd1Je37O/As2SFJxJHUyWzECho9of4oez2qypUYTSjbu3jxNfg0ckxV83gIpNsZRIivd0+K/kF6o0RPhbH4nINoG325Pn+Az4g7rcHgWlMca/pPln4rRnr6Ngalb/RN2ntQwivueAi1TDIsaDbED/Z+cSoRKZzn6gqSIzfbnC4uplA+Uu84r0SDaYnkqn5dnA6V3WUb5CvsVnOerjXoFyjBZZwr9Uf6zlj/Wx07iG1hsuIQRwdLHf7hyLvM/NIrdVOuOQwzS52i/fRz65yp2Ng+f2b49Jgbf3d1evmYu0P+LgfknDIZzLKe0TPe/cMLxLfhS48FSon/IGQ/GoL/Z/z5O+1f4BwZ8d+bUw9RZz8Pf/eocqy/O5GunfjI9huUP0H+zM8sMGnX7Dnziw9Sztdaw0hoTjET/BmVV+Q0dvKZ/QhOFyh8aWbgweIT8CW4rjVAMDWiz2qnHGn7RPxKjEltFXUUCzSd8DQ+krgwAchOVNIV0yqRuRlqKwU3gs6KmTTKfVw3MNApr+LPbGv/HmP5C3w5VKPQ0IDQe2HmS8flaIia/SOfSs3wAeQ9GDW/II/LOEfQfroHx9vNarZCEFxEKYWEzIAAmMyt075NW3kx5h/gPsIFfV5VO1UcDxMMX3zN8zEklpGvbVQ++BcrUqRvB78v/bjcsDlyJ4ryQawhw51hMd7lNXvE/4aDA8wohtm60n2uUZE4oTCqV5X3gRjnJY/9nIY+QP5XmafEf44y31ZuZGMsqF5SQOwz+WPkn9vWiOCfBb6X49u3STT336c/N9h/q/zKMHi4nQw1lOogjEWn7I3/Fw6H+T7nEuRPjDQwXvR5fXj69/OLdB8ur+yfz5lwUscZ/yqXU5yJ/qOwphtoyFPDy6eXX7FBZS2drFZPDVhqL0p/0X5466jLofxsjcuof2xwSEA10mnMh9OZsndjNZk+uxMhEZtpf9B5MkQfdNPnFAhKzbn96Y8D38RkMR7eofvetU8vf/fL88ncMXfg1UL0PMelI+0P0nx0Xdk4rhF912YQvHjb5X/o/3P6ZK/ntf+tDulm2/SkdrOifIkImJl3BJDDo78f0/45ARHbeWQiImAJCHPcJE5muEAEJpBaJm0jQapLBZZrYwSR07MmYNMaCEFpFvBbCQVKtuaPgBw4P8ORxAJ8sae+Ez3WUQsDnIqzg2wXW+DjCT11nzUf7FeoT/wSCwSTZaH+wYJttdKh3tH+Fn++H/8IvRYH/p4E/8W89vg98BYL9n3bT/7bUmBzfo/0TfupdHT1LqbIP9b+I2uz/Cb/GJg/CP4r+rN9h+veNRne0Y/5uk3sdA0K3u8ek/9ykvZvwLQscPIb+5RnhJWsKJJhGS9eKlDyqK+0f3R6FUJn48qFonimTl2VzudcoEO+6gVHs9HkpeMapZdHQEwH7o7oqzTjcfvN6OCTgkdtRESfnyXXit1YX8NR5EKM+J4Bv+znNnOk3XcFO/jP3idFey/ao9nOd7Rdg+pkyRl0mIib+N9u/7n9BF/zC3MhMdRwTr9UYeHYwBt074SbDUxpqR7XfKha+DrWfeh2Wf/cZf7+BknP+w1WGLvQ+uNFY6s6lhmKm/EM5pf/FDwfP7c9TeItcSui8DPWsQ2XiYCThoaGSfwVfuiOSZHyUM6tL3MHxv/BRKj1NJ/iWQ1WAi/39CPmbUoEVUJRHcaGd79N+8a9+cZfGM7yqXmSezXtvngnv6Bm5fG2Hpa3u5WCV1vQfc9l+Dj2okwZ8k6UitrfkpGkXNpoSraPZ4cUkWOmfon/p73D/z/aHfih0m3qexVB4743Ty99j7PzDb86x+uIccfr7Cu9P2/9r+rMt5o0kHFfpyzoXxUZnHcH/m/i3qWn/qAe3FFCnNf3LYxpd9t0P178p9Sn6f8cKpQ7DzaGQSKVTwug4E1gvrrOT8pgIm+9fxadJPDp0T76kseD8V7lSpA0nigT1lqWL9T5C2Ykyvu3l7cjHo56pn+k5zBnoRLrdqEJRa9ddw1x+Y51ycH0a+MlAO3Wj+qGkLIfj6rijesLiHgXfuuj2PQHXn6Qi2R/dcelRR2dHz6VuWsmxlCk3JCXa0kBTE+QUWLRB5nPM2gldJ3P1SR2z7JRCtNc6vot/2/CQiVu63x1LF7epB1kEXacBf5RSlVDh0DZ+uqXTLsIydSY5BepBeL6R2m/iMLAIC08Ss8w1DgU82rPZ/gmfa1LYNgL25zqvOTfoL+WYyEyjHYSpavUJBHEKbRnFSaTlHqY/AaR8y/DgfsKX/jWGFMKOtdbbD+305SlwxL544Eb4XpLbciocIUK46m08KUZdV28ZRKduXA/DVy6USKAQYfFXUAv/icujI+BT91KiCvQxCYx5CmmfsML/teW29c1xqP3GV7vG4w34aYt1ShrpxbRVR/OJu6PaT6r0UeBLVxT9uPbX83k+2P60Jo+OaL91s6Pyv9n/ApRW3QjMCbHsO4EhIb1+B//m5Tfrdxj/hU1xU3hwR0S/+umuk35F8jqbjSnXQjAme0L/7yDLXuLDTa5mcBtmlzA6zOKkWg8Nts3+n+23ndbTIS/nQjg/5QqrZO7cOZ3xe+fOpA1Hwd+o3o9t/8SHekw+dFnn6688ZFUGSzvf2s3+KW6/7UqJrGKiTSRbnb8DX5riqVRVvYBnQSUHc4Zy6Md6VDQ14Rtn+Oj+T05IgDKQEX4QzI9lOdzidtXW9TU2jTpFfGh7QOYSmJabsgcM41PDzfsZlv5yjKv4H3rlqfifbNahGlnwvRN+aMlrjqK/xHtPntTxSPqv9q/gf8/+R9WOwx5OZq8ESlKlPxSeeeyjKAErChF6w4O4WVJMdvhOHlOsAtyQdZyq+LgHLWM2mnJUsDLJTSYyXc3kNBhOlx/xK8bdgJ/KkE/jQSV7HivxFVxPF8/hhmKmLPwH3GrX08C3OdbbLW6v8xZyg2VXN3jLlHklVA2LMqRMReGj/Zbt7yTjY2eZeHOR8WXH/BxjFm/W/xbTrt250HXZLsO7h5Ldx3J2cx+LTQFeU2Mt4aGwacd5zPeLEPU5Zhq7I9pOeu3p8Z8+A4gbsfjlSN+yFJbuUuduf1HuNkDcBl9UhOZpIPiGehKYtuU8S/7cYc4v7O2gid133u1pN/tfHKlkneznRMMbuLN1+TtDWjzEIyGeYZ56P02jD7R/k/6skZ2S/p91JO8B/I8iLKTM0OTKxMId6qfr8TU2srkIfZxhQDY0wZvXAfh2FOXU2xsB2h24FkV9fSx6sq8COHMfiF361LidvOdXeZnkRsZUyfoa4GewTtxy/1D4jvFXygJgvIlMcAR8YkdqQyoPoIOYWQ6hGLulVga8kSlV4STqAp+A6VeHDeSw/XnzOwq+VbPBA/+T/y3H3F5T/1HLMqYs1GdJ4Pkna39VouDvu+3ywD+snTd7J1PqXVKhhddnlWlzyOMR7d+k/0l/0oGbjTl5cu7dcdX9LIAhvEf1v+id/a/h8A4rAM5Ds7W5FhuIMQFRng2u6xV21Q7jVvRHH+kdc66OH5HSkHHr5zPMFVBJfof/noL+1T9H9f9R7aeJ1ekG+Nn/ymhl49uvoZx/wWRKjKErGFUabOJtj70civ5IPOiP0Ir/RlFEGCr619s1+zHt59l8qw/QDfi5Nzdx38E/ckJZoffhdXTIb5lg7AezXCIqvnxm/h/T/gnf6ot/6zuE7lPxv7Rh3SsP7bcy1EnuE7+r9pvOZEYa4GewTlXGs+p/VFFAIRNUSHagHTCA5p5GEpdUtmDUpIQUNzzwLSr5aFDeSkf+Id+q0ZRh3nrjqgbXuBRlWwbuvnxil5nQX/uBG7YrvYzlfAtBnY1QUoEBv4oa5fKGiZY7yQzj1xm3tNPfwv30OuuPL/ARI70REWSPgU+pab/K3DFh1yt/eunO8hVutkssJXNmtm/T9VZC4kPwJ8LOwPCvYq2+xfK4X2K5voqylfCcKPTtjd28DfjJZ5Wqa/t39QKg1G2/nV/4L1pyxza+QYPSPoUF7EYmZ5Y3mREcwwQ35AnbE4Q+Gf96AZwpfxlXqp+2zUeffNNCyd9Fyds2yTDbx9JHdp+HMPxQjPu9a8C4fesvsMzfELcsb9KwCGGM/n/I6zi2Q1z7Ck6/EZEtgoF7W4MlOKTguJOlNfEu7IPtn/B9Nt1wSVQJv4t/aiyFepayLNd66Tk5fZo+QQj86l12kIMuXmMc9iU3gYHI91HiK/hPQf/u3KgL2bfIuxhFCvPs5jgqp0LPW+GA/1j6p36T/m29b0dP5D9RNcpOi9PQ0QWpw9PAN2HBE37lJsayuP0h/G+JJdxwkVu6dbSiyjeLTb05JWwPCf+nav+EP8fF6UPqsof88cVBRe0qEI3daPq4UqQujqeUf3NXxFso70vIMr8e6TBGlohSRmTgE9qvanElyNvM/H+VfQgc/lCO5RsXd0UlBTyh//egUz/rfQWZ4xdH333zVK24OSMONvFPeU9B/0/b/lRLhB3qf71/p3FHvPKSKxvO8jLDJE82SLuGd8QvZDK9NCBSOfKv+B9isbicrLjPOInHGZ3n5P4h/Cde9fCeA99vvIL3gQmTv2bDqHfZ8+E8Qji7ZwZhQAtI8WeduAHw0+u/0Q7yyW+H+e+p+F/CML+AN+BLmts/UP+mxB/Y/6pXMEB1EKYpKOfghUdii3i53c6y8oOJktrHHjw3aEck3izcj/7NTZpMhO+IPkzWlEWMY8soH9+O/fTqnz6+vfzxo1vZDEUL2m17U0fzDfiCnYdK+jRv6u+iuFXQ//ib88vyKyzeE6dwpbLsBsv3cfBn+1UOujC/YLe4//n+jeXP1OMzZk+reO9hHbvX/FHwrYeocs3z66+ezGder/32PEuATmfDkRswsd+y96t/MrIzvfVC+O0EFS52i70fVFuWRphDlX6A5hU2S3nvrdPLP/7q/LLLbOB4W1CMDtWoIHM8Bv8KR9+sXOP+wWd3l//+56sYEbU+3MluGhHZgjl9XMV5th/dfMaZ6BfOb8d4UAkrkPZ+ydszOL8oXu3kkde2+Blhl4/98YObrMlmL3o+v6sRccc3O8Y6p8fFmpdiMcDdRvuJmexhkMcqemhLUEf0fxJxSpnzhqvLrc5gQLjfwX+5en75B74O+A+/Qli8vrWcY/DdUc10nGU/gf4d4xe0Y9h6U6JouNYQW7lQQ2PCF3keK/6xbsAATjhk9FfxEnV4Avyj2i8u1sfgvyr9CfBpxYAfXJIn8O1D0TEKTRNW9edOgI/ifxpsvhrSInCs2287q74T//ZthtwwEHdjQNReEEgdyJK0oc3HtH/iE3zZ9MgzaEP3vLtbukW2G2w9wOPoK6wuffE14c/+D9qsHs/lLz2O77ID4lt4IRz+0KZRHtkt6X/TWs7A/2H609OhMeQGVp/w4vAWb/6/fBPz5qLeMo7wUhX2JPp/bP8far9IsF4rGuXGunk+AdGdxYBRNv7yDVbtaEhcZ6Ot3TsL36JLnfSipIRBf8+W/q3cwf4/AcJdmeTEyd8x7+HvGbrQiNBrmZU4pE99HkX/T9t+lLRYmPDX/AeuHiN/NtufPqMIa1SFzfLA8KC/R+G/5I/8P7I+g/6PMzwNokYDTVwlsGIG6ykliMOgfSCrbClq4jMw4bM0ys4fHW81jdOyMq5stqCwXkJTOEIZptL74Fjdh3yu9T9Yy/unj9jrHIWreytvyJQx30YtYRP+DmO5J1GozowXlHg5ieKzGpk9e6a8FNVx34U/2+9bh0MM7lX/l08wYj5kQxKWpKlos1WqjQHyYfi237bq2r90dSdL4xzTe/2V3Yyd1VbEtQ7cpUda3nnLQRkpuJBbKdPSLVsXnBaxb8+++YsD6UuF+BJueIcTHFrIhKinwP8dvA96BN5nk5V///B2PonrbPnbLHXK8IKSaRyzbWBvNe/hAnsGXL1Ydc48CIw163XBiUUieUuBi+cB/Dvr281c/vjBjeVP4NDNbC6zLC6uV+DUR3JCNqEpwQpduB6b8Ne1Ip6bDC88Av9DJKyMEvwpGevXDeyExwxBgWv2Twpd+CW9CwwN+Xbh3JWUvwH/SPofiuYByiEeCISzyqKofNJ/FVLUXm2b7Sj6t5XQqGirIO2irraP+9n+TfgaT9YvT60rofCUoe/0/0hGaWb5/5l77/Y4jixfs0iCcPRWpLzpnh5z99nd7/8R9r+9z96ZOzPd8hIlkRJFA4IgQO77/k5EVlahCiiAkEkSlZmREceHPxHR/3hsIT4V/k6A+BOR8KLphPm/JQ6JDVSTxiH8Bf+P438RfksvD2uynDFfmicsC2wQp7Jv8o/ku/zD2SL5O4VHR4RyxGkDdxD1ZEinM2w8N1Et1b+60R6312uXUEcd32X08cqmvhlvqHx30nGoKZZF+EuJyt8GhGezuArkW/LlfTovtWwX/dL4x/TrkqdBb2UnY/uLjeU7CVbgPxmsyYdks+U/5YUjl1foGN1jRPBDOiV2HJ0qtpNmvnIU2PLHtF5naf+d5XH+q87aBeqKakB4XLejrZaz0iEhpltV/0fxH4b4EX+ACheZOg0kv4VnNv91/kNLk3+IIn5001JGXqeof6NTEi/Df5T+KU4paFIISY2MVWHVgcmSGcwmq4VWMWiqsBPm87Gas0Q3RicmZkxQhWVtubgSoWOoHp3rd3+g4v47DYgvaC274Uq2ISW+CczIEMBPwRJEnviRFjOth6h8zm54JrEF77ahVngX1xgJQPDs5JpUSTfAmvJvpf+YivVHts/9+geGHmk8PN/RmRIc4Led0Kgf4GTOLgO39DCg4QmZ1d347KFa2Z9nrlWnJw/s0fHuGfD066ieONCkFYIdTJC7gmfm17GLHj30PLiwl5PsNjBop0euMyS/jnv2OlMcKfzHXcOR/KWWYjC9/68ZCbBi/5otXn98xIgKvAq/5kxn8dvr8lJOlnnur38O+s/TGFinQnYL5XfZ1vX2NcLXrEQ9bvdVGin/8cVTNhN6Nvn3LxhBogHoRks5pVLZRYAWTV7gCK0l/zH/Hb8qlwqSon/im6Sl7k9d/pX9Et1EXMasrX1jF4yGyKu95Ph8AOzCzWr0naM11sR2pP3DaRoiFnBWNI5EOFxtw7Z4Ctpgd0yiCuEanQhF2GCM02gj+0tYA7A4/5EA/hfnPyEnc/gg27mW4W+qbfiN2uXa0iGIcWNGgMvyf1LDUzXsK734JcE8+Wfkv8tfHjulrgKxQnZqyk2OsrwV3brZk/ZlRexMxmL5C0j5x0oBWcdJP2TEz224H7Itt75UGeVLnGbVi/QPKPXmLp7bzMU79aYDn43dSzTifwaOG0JZ4R04mhHb835Y/1ZBXf7aqdOWbhGuH8QuBdqWBaq9EGHA/yr2vyr/ANWq4GRx+e+I8TadkFv08D+lx+9Js/plOVL68Fc6lJS3ylwg1h1K9qzsv+u/5z95kh63dH+HsvWj9y4x+rAV+VtW+E/7t055W/7tGParT52GyRJWPh2Z/yOUkq35y8vyX11XKGFNkQVysfyTcmR/b6N/lnEqItE3lBIZRkEeTFUAppNtTB4iVh6lwahxWjFy4vtTmal6Ni2cJpcY/Es04ptEJZlRn7BmWWefn2gpO+SdkQdoybwytYv4zcwDhP5IDB/d8U1fAzdPOX/+RYaeamqDtKS/cbnObrcgwF4ENuAvUGAC30sd/6DFU95sTOgQGAGDX1ori3Pnf/hv+OXLCsqTEw+Y0LPxc/HiXtFG+N5LHPCstC2U5GWE33wsp5FrE6rwnFJ5TS1/fmcyefjo/OTRdRsgFkbK1xiQwW2p/I0DHhsLOaGPQsTpGJ2XICNakqdF+GVQ/cS9icjPn+tkxOYt+DXo2e18cZaUMezo+n/neR3hcCfC/830k0OtytCdBZVLBBZpKMdZ/kPmHP+JTzyptCCc6r/sT1ARVdJ1aRjfROLj18zFozvSaRfnzr1kOgtoRKnpH4dSGYnYIgAdJC8ssX8EIcDYg3pUBxZ4rjgpyxZv/yubnLF/hQktUpbszrtBVUgZ7hf55L4s/43sz8ej+JeSxfhb0SN+MQKoGm++8X4Ufvkb5f8hqoRUciEEjj+L8f/R/B/Gb2PCBoQjDq+wFfVrZ8DG4Rr85uAqs9wc/5E/aXv+KxHoS8FeGIw6PHzisd01TZhZ2NbtPUr/Zsw1hvjdKdQTIK+w9NEOwz6OlLevvsp0YrYwx+7sAKjF2ILk5Yrmo4Uuf8scRxwfkQfcsdHKeu2cc/sntL9j+A/S/Cgs7RuJaOSSNCr/tTdXglxiiubdu9uU9exQ+dgt0GtUdPc8I8l0ShTXYG8BGUCA4x+Pp7P/qf7NiDWqy46TTBPZcHgPvwedKD2BU7qtf4JvBf0bvzGb+zz/yqJshM8+azv8S8e6SuMj859xLQ/9VYZe3gK1y7nFSegS+Sep+Hk4Ufkj7FH+l/4s4wwlQcz3QO/evJ3EipFeuORqF2g3LSriK9u+x7giL8oIjNItxFtcggSvYEsYRCGOBq4ROQTuHPouvYCqaM0cZreiK7uuAT4oGv7KPKUEYbm64NFj6dlNRc1IHQXDG1q6VBr4RGgYb+L5EUbDSxDIVxAR/+B8KgeH1HoDK3hiU6STxRFPctNHV2ylenAg/V38HKCb0smC1jTSFySE9SGrSGQkj0H+QSItyIdKOEOrKdws6GykFP0KVLAL5W+lBxxhuKSsr2hx7YD9kzJCACzBXxiQizqCL1fI2EsrONIGr3x0P/r/+Orp5P/7OyMPNCC+YfTmKfp02qf+IR9JUesCBd8q/Hf8SclLt7+I5pD8q6EXAStvmUNOZhL5fwmdOrJ98S0xePazlUY1oDx+2C1qIY1wEqfRk0cFzGW4craSSU+VkaR46/Nuli79yyHXCL+8xlYSWN/H9u+3SjDFE/zEJylXhftkVPPNTP4jvPAv5n8p/sBSFs3uGx75VFs1MiXWwi/O183+fS5ieOCz9p8RIqPLp98jML//Sfkf+JL/EBy6wy2Gps1H4dZiJYLB/mbkzzejphFBXBuUll/29B9TWetTpb1k+qKAUzHaZ6wc0fUfmNChXa7juOwUoSMQrsDawjbPM6XhCjO3hdap+QUdkjfMT5Rdan+L9W8FuL9/Hprc4Itjy5nK/InTKh3J2HL1kKznKiaFt8j+De35bxH/C8ufCKbpv4w5ouz2v0HhrI+XUxkfsNW1Z584UvLk+YWSVwrOYPbnbO0fSsz7Ls+8RkPtk3fZMIqVF3cYhbi8pe+cCMVacvHprPhPxi5BV/5DoNYzIqw7+c/nefxGIZ7Bdpj7pZjd26Vo5W5BIf3HyN/0b6v/8oEIzhQDTWYS396Lr9A2HXaRVootmZZursoI9Szn8eoljgkF4Z9xVUKalj2AL+n5U/FbIGdo2F4/GTFRggMj5EX8A8Mdf2CXkYrCnsMOowg/PapiWOdK6bxozgS/mXCb1RmZzoiGKlyjlhUpNtO5H4V0efBQipiGXxy5Gn7pyXcJ5PJdSG/omQuncZ6CgQD4Jx7Kr+hirMs0qRx8VX5mnhiL8mmjEfSMfI4Mgp8ar4FYJH92puF7yd8CMTwR3ykHDaxMcTl+5eaoj40iDfo1enG0SBk/32U0gwOIbPR9ybSRjYf/jd+KW/ZaUdvAcZknNQt4xMUF7q7/Vfjv+GXY+IvsT1nIx2H+pV3hSH81dvT5oGkaWuqgJH0iir6bzH/q0+F+FxaGi+2fKQt4d65cx14budpIWCuG8hz98d7x/9H8j/GHee2vqOa3P/U7QdofQos9mthPS+TPFz4tkr8fKuEY/x+h/1XxywsWKzf55/ug1mX8l9hifzbsXV31hB2cdOZ+yN4Pdoz0mTEPxRCPyf/mS32fblKx3mQpuL10faus7K4yKuFhTjYinuzs0jCRwmXyb/anHYJanw5HHnXq/Ak/rHdu4FdxaaqfXqmHnZPoPwlkTSm3K+lphB1T/jsCop/BLaZpPmB1l6Oj+mq5w+vrZ3RAgJ1RZxgQfOX/hmdJ+RsKgr/xHytWRlzCa/WPetYf6trl8zlqXF8Mt6t2makr+jRd04QteRzw8+zV8AvTaxX+hRmgM/kvyQGTbkCBk35saWH51/AV/gIXOiEUE6kr/B8v/whEgoB5Wv2zX2sxZYvYbCM0hVHE8wYjqULFk3ALF9MUtRpno0HbJw4/ZBLTOXWQdyJYdGfEQo0UzYaILnG6J7Qt9SyX5FsKYN7NPCYb8ItHqhLGS96r0SV6e4lucfqI+TRXdJh57FHt8eGTyaXJ+Rv0OKnYdKDrSpV/wE2NFGaCU/zy0fEX1cbkb3qFbV8DhB9ocMOew/y3OPLnY36kfVb+jZhU2PYIO9yAD4jCH/g8dvx5Xyh/+VG3lRmNnzRL8E/1Xw1F+bcxoMxsSGQag4LRxsM/snLGZa+s7qCQop1TdrOQfwCF9KP5H+Of0f8x8pcdDaPbX5gEYZzOaNC8YFnwI0n4tkZyrCRtEJ0/d7kcV/HxiDa6zY3s37nyNKaIbwPJYelcJIks2+sY/2H9i9yIvw//Y/wxtqbvwt8Ihxrtr67F+d8Cd8h/gREmmn0X/w0AoEtOyTelkEP5/4/gf1z+zOCH8Fn+ZQEeFM9QkB/BfxOjZ1y4O6mrLr5nGbgOlI6o6kOFyYiyBBXRdf0jbz9Zs5E/7dhsMtqg74ON2m3s0b1fLFNdlXH35nqc/X7Aj+kZ9qx+IXWwvxI3sIfylxD+7xNxB2csl845X1QAAEAASURBVMi7sdWndNbMp6CT+fBflCzW/1D+QWOVWWGi9D/GLwELy5/D5X/KE4B5Lssn9y9lCtoREssQR11fMXRoR3I2/5cY+6/kewVtux+X/4yr3FzJ9g7y/IjGw8f3tmlUMc2d/A/0XuaP8v9S+1+R/9RnIid+Sc+EBih/94wNZQSN699Z/uXUtJZbXpW67ubggFtR/kIqXZ5e//hAFPJirrhLg0HSoKZnpHpuhAcr7I6GURIkU7Y6LWjlT24UhsMrgkZMZpu0xkEcEYifPxsY9lgVnsPbSRD8tqQKlrdKFWDgTwA/hvdfe+lUGMDTs9fGiAWHjkcKzDkvFXUbB55thgZdFukV/gkXkorIJX4rwRPiN0FP48MwvEshIf8ZHgaJMiv5G58X5RX81eBSTn5XzA67+2fjKL4RGHZWABT5ZQik7fJPGiI7nbKX3rIFRous4ODLt2X4Y8zB33gBn5nZ1RQWjP+JnwN2OvkS50z9HXQ49URDMz3RGmB5Oh3/h/BLS6Tjr3Lid4n+xTkv/6RC/vuUmvqRlF8Gc3gpKNwvAnlgpxbcLp8tTSj/KSyewo/fVJXy1668hF+/LU4hTPzT6P+s+Zc6nYpjWRKPvUkiZhBdaX/yZ/7y3yH8Vkgk8FsZm/aQAEGXLSv3yAhcwE0+/5PoP0Quy3+xF41JzZr/lQxX7B9bMK/ybSH/FTP865Pg1MVDKugH/NXyZfODchW6kCv/Ozo45P+GX9+sTF8wEuZ+L27a5hTGRUZRlasHRrn80ZUZWxu7wOJfI7Vu/sJH4BX9JEPJptZH7E1o01n9Mfvt3KaBskVjxbUG8+VP6VGe/VawjuNfKfXyp6cx8bLyP6ZH/kuD6Tor7zn18lPOnrAccTTavPrylSewmqdKhlU6yxRBJ8j/laDkLz36Qt1glOdjGg+fvLc1eYflsu5AeZEW3Kz+z45/aZdnefFBsUZ/0Vfx6IeisvE8lr/xk6qlJYowvLSlvJ2w/hW/SU+r/7UkhqEmWkEVMEkzw/GtgJcgY4pSHaZlNyGNE4dhiFes1LMCIAMJNyBJW3GEb1pufvfBCDy8cejdR6nyU6RTmKb4CUcJOfgnkU3Q8PMo3a67fs79Aa31/YPnGXqOwMDnEPbaNaY2aIU6f62jVHjCKv1XIAu/NHVOV8cvCGV2mP/IunKYKOGfVqZxI02aPuGd1E3+4j9gAlrv/xd0Z7zbkLDRVfWXDCuv4t98pWxtPLiE1LnPHSpNnbsUteue+Zw0zseK32wj/kCNvCVM/onY5K/T4I/Mn0rDA4ZBpfO5S7AYprVw2tfZgEBFCbBT8b8I/+n0P4vfitPcWvLGR4V9KZxvPXi9E6c5D9CxQeTyX5d+2tBMVQL/4reyVHbKXFlrR57jwC08V0mg/JGj3/5k/EchjVR7dCFS2rk8rMo2fnFT/OZ5lP/LloVipUJUmAyfsY2WlMJLqbX/3IzDn4JrcjNNbN0HoXEb2/9vpf/j8EuNlBVNLf9LaeTCD4SG1jn+q1QiNRH3aEE8xXHYhsMj5/LZu8EVWMU/UeSVv86/suz8K7QLVGpuZnT1Sh3mdI0Nlzbwh3Co/w35f4MOzw32mbntPD3TGWvsXeDQRsQbpTgkJp3oCMCRv8WaEdCx0ysPce50ldlP0Hfnxv7kwlUqcMrC8klSCtIk0xIr/+0deKF1Kf8kaeVPS134F+g/dAV+8W8Hb5Ny+BabvP2VvW7cadMzRPRBewy9Ow7htB46KZr9hbyl5X8VcMSRDfiXs/wgD0d0LjPq8R6+F39hz6BPOXHzVpe18lJ+UdZZ8w9cCpmULRLGFfqQcclf+6OEWSR/rEbee/mjE7jlj3VXLsE5rcK/k8rfhn5sMgJq+vZ5Bf0P7oQhGm4CKhYpQaVguVSgfg1xGpXAbdl6J6qMqaaIJcLh3VLJBMolYd6N69WGZoTNvxKa4US2ZxMagJGMUXCFXfi9JxX3BfhJr1D2wX9A7/sNw9YHP5vyBcrjmwYlmje1VekWLfwJyxGNkSOErQerFg7+orDsb1X8UhinM+hYyr98h39iawj5Dz8j+RMFWliOiAOlS0HdiOoOfhyX2FfeDbK2mMhzqarplYkwrMf1JP+VTOimTh4j/NPjclB1RCaqiLFhlMfgT9zIGtmQ1tUxngXxM/DEecA8rCMOjvhk9EglqT/ez4L/Mf6CGrMMr3DNv8X6Pwo/ZfrkHPJ5jpwt4PUIf+fOi8lthjPv3dnKrnj2BjndqWSljLBDGxhm3HU+6oy7jvx1uIXxwf55+/Pyj20gsOQ/KZZFrTo5SfvjOnH+j/zVhHDrHv0D/M+q/6H8kd5m/6/tucGF/Ff5U9KoOfjSf9mb9qetY3et/LOsiSO4jVIaDy6T/oVpDDeQc3pMG1bGuZr8S1qElYEnL1k2XebY7eusGHP0wUbCRRqz6bdCVipZdoG947bsbim//jIOmzYi8i9lNFiS/0r+2iakBo8dDxs1TmF8xw6Qd2iMxEkTHFX+yOFs+RPylNFvVf4jl3RoKH+vsJTyfZwp9dV4wKimjQeXvk84PVbp+aedVVFpmFyvlv8RQ1bfmX+z+uMOez68vxXnSQ/42mazvNpxUv0TOQiBH6Rnz7/5D6FGLxkVLKYWyx9iJEM1aqU2JdymoNNbkvBbxWtEr1b/tjSn1T+rMKh2pC7kWQU1xiByeqEqNRB+IdJPneGEm86Phtc3b2ZOL/NmeR6rcqMIy/goqKUxmySukRuMAkgocGbxm4i//K/nefwW9qV8cNNz3gGRqwV0dHJbZ4fF3Jf+Y9b93iVDbjAWrTnWXgWAD5PC5joF/uK8kod/Cpu+8iBzsZGXGEsUg/xTkCkhZcpX5GSDwIpbB6P/97+fUcEx8mCvAZHdvjFhvwkzES9EN52+HmY8T7z73+7J8Pfnk6+YaviVtek2LHQSFF8KQlKmtS09pO2bYgVYkc9jcWOq+AFQYIUo0tjsCp3CSXx+kV09F4DT8D+P/6T6X45fHqULuWJqNswcpXny3E3EnK924arY5bZfJkB/GJXDyZv0Ei8jc6fAPDvBSsIeX5Joxn9S/kOj5ElfhEAxZh4s7vhVKua/4jcBLXRW/kYkVf6bvhojBlX0gh8xGxWQbht+EvsvYTZ4v3H+K2OdL3/EXZJRKkv5R376bbkyKXvZ6GPw826WTWarc76b3Tr/glT+SAgRphoRPFft+nrjKtspU7Ffv8rZM9hYVgZJCek8k+EqDQidDq+zvbVTbY4qOPWbpabESUUwKEK4QKbMs01hB0DfsF9wfv6aowLuMoVxhymRaywVTW8zVJ1Q/xIGvvnyNxbUyo3onziWUsSuX22MtEnO4zm604783blhPtycvItD4wO3AWfZ+JtnphKP/JXc8k6QX/ydx99x5XP4t8x0uoRddW+sTf728eXJv35yKadu6pS6zgFDlSewZSuPBjnppTiEEhr8hCpj/5+Af+Mnv9njanyEftGl/jPf8E1Gx/ib/Rs3+ElLnyd/oYM0lv9Ru0mjD2kL4GPrX8Bxaf/K8WT6xwdCskpAPirEMEVY2PAdIWWoREw81/ekMkHSJy5PuYjQaA8MjVdophOHpuRv1B78gs2HaUIFEmbsJS/GL66gB9kM/kCvH8MdAMP5fvIMxe2/2qu563NUxPkASgxMI7Jn7Z7svBIojRJeQ0eL+BfsKvjDv0ZgfNkUNg/TzFAy9tsgp/BvAFJQ5tD+lHXSX+O0SHZnKReTDiQ4d/4yLet1MoYwYJNa0bM8vn/IbprfsJsmyyr/i/tDhi2t7F7b/V4BfxoY6gj8Y/krqyY2ASme0mPe+GkXpPghejkN/8vwy2RgNzwnl7/8xCDDhw6hbvKTTaFsGEGsMM0H0cWIfxtsjkzY8neLW09HdXh5H4dKgmfo+vPyD6EODUCguvVBWtWx9lOFKAHhvuKM9T+WP5Js8Yt/U/VLmGXPESnPxq6wVez/t9O/vM7mP8sheZTA3siSf0ugfpT4ovwfjpChDUi3eHdHRfdJcWosW74Tbl202P5Ltk4fiUtVeNKt+9W4D8G1Sxv4ObhTah3ILn7t7TKNhiuMPrhCwx77U/L0y9ZD77L3rqz7TxZdIX99p84zLfCMClk/jZ/cE4IN4Pb21xnNfM3eENJRegpNgvAd2RzF/xBXnF6KUtPi8hb+eZImbQJoPGl34ktocOiP5O6wNpDexx9C36r/+uYltcAr8l2zNe2U1P1SbiLLrQca5DM/hZ/vQVOjh5c5C+fezY2cL+Q5Q/GFK5LSSSj4DeYZ8y9NsT/UHv7hTnzKWBrFWvirCTQjf7/KPzTZyNG2wn9SyXC7xCHjXMX/FK44lsk/+OW3pTTtDH6RjeRvzGEKI6nqe2E1sQSQIIlMLNPc+O+XQpRIxvVDoW72kVjVQ7XA4kmOc7V4uZWikrQpsb6WoWRXwia0efxiLSIafpv6JhZNk2DLngTQOOCX1YfZTOXgi9pboZaQvp58hBeulaGbUWWYH3oFE/4BqiBPhp/EXAP+Y/gP3eG/5FGpNRiewhM+EFR0bkzjLplsUJtejyMRtqxvMpdpq1THUc/ycBvu/2A3yP9gW/Dvf2Q4lUaFZ3kE2IwaGj4/kV5111Xyn9e/Fluaj5Bj+BWfxDPyr9Bl/Ad6wyW8FNwr4O/2V61rADSCox/wB06RFgKm+ME42F/RplyFoyPtOt/qKHjnKOERGJI35t+yvpHsl2Zn/ca7/HstxH+0/QfwCfgfkDSUyX/HyR+mki1iVNCZtKX/BMkzYfLu5ecx//P2n+T8eK/8byqeW3qfp/L/E/A/6F/ra4RLpNTLRNOb/GeUwHv7tij/h2/ylFMDNtpdupmN1mhI2JAvGMoXQJZh4A+c4Axaws2/mA5/7j55nYbBTUYZ3EjKKQvX2TuCYFrJ0/nP02WtZHX4ffjYkzlr1KwqY+Xf8kFQVEPIPSP0UHGq8RXev45oPsFfw51ubey4LwTb9VZ2ElHSgluDkHaFov1zq89Kpkci3NBuV/BSH03iFw17if6BG3hN/uYxR/jeowFxnyO/ty4+YVMp0tpyb3R0/EESInwi9Aj77ydX6jfgMk2Xj/qn06pTwHKVzlCjY2DtLPmXhaCK9TURyT9IxauYGj8GhJQR/vnyJzy3+D53/QsnibmdWP5BKvcF4jj9x4kysUuGqiFXWuQybEhTcjce4xRh+dRoBXNjpt8VjXanKNKz4btpm2jaUzNEP3hxl/+SZFIeid+odQG8Squ6Eyj+btRpWfPdqYsdjmF2d0Z79VYWTmW4W6F7RvxED8IT7wxrlIf20C24wJ3yX7j9PR6/UQoODwqz3RLaM1+Dv0j+1v/udPkLc4Me1etUhJ7DAr1/m93lKFzcg+ErtgN35OHvX71gh0jP3mDnSXpDGqD4I5NT4J/q3yIrlgG8QDwF/5VEmFKlnfTLx0X8T/GfofxFCkL9SXSg1B5sUFSFMmt/0mgdZIPNgsiCf0o3ytFkNF7vXJFN0+uM/Rv2VvI/Hf9BG8LA7yUZucEU//1rt5XkLwj5N80AzDD5T7g/hevPwL/MSmvN9zaSDVDf5CVX1Kx1G0CP9rpDvd+TrtL7bPnX/mdXVs9b8fRgD8p7Rn5z6XgqzoIAClKVKBr+eldU/TCnyyzTvMnogysw3PvBEYekI6o4reD0v7lsA4JpDkcqtjbYN0GbA7j5u+ZLfDeNCQtpOYlDN+WfztA6Vj/irA53ptSZ0sYz7YfgMe2q+W/KVsnDtJ1P8df3o8v/pAmD4OfuVCFFGbz6pT74G3ZaSK9/DK4L/M3uluW/JoqSEYlSOXJPudLxd2hW3ISllIMoPy8qf07Cv/jDRxdQE5k4hspfusR1DP5mmQ2eRDdg7dHbqeRvQq7j8Hf51xSGkvFCAf1Ra5UpK60wlAiVKQSu4EJzS5rP7dl09uxczVADMfnKj40FGTV3VlhrPtQL+LUBZVf4k02Dv2zjMP58rNRFaJJ2/DVYU1CMBIHyhOObI/lWrH//5nmW9en85HIifQd+YIUBe8EMw1mydVb4w79DyOFfOY4UD5Jl8u/4LQjcyEiHyq8f7NLoeUJh8IqNWLZS4Lg/w3esQf+vr3ZxlGIjG3oY9oYUu/zn9hb4LRTVf3nyB6SA6+r6pzAu/R+W/5R/KRnzT+Ij+Vf3I/2LURANp6/9uZzbtL+j8BtfPqShdJ2jc3wR5pz9mw+kvY/4uIuem5PZoAghSeMz2XYl/ivdSfXf5d/zX+dZaP35KPyhNd6NxWfwR5CkP0L+sRvijfGbTwd7ncOvUMvvSbCVWgKn+jeBso9gfTkSf7f/Mf6Ajfwr+Sr8T/FLE3/q3xuKVJ92IlzSu4bzwYW0EAu2sUNvs3/fHL10WsDdbx/TcHcjpCeUKb7HXqDN8k/a64J/W1cKjf+hhV8rzE2mK67SgLjO6MNVplM3ctCbeS1Rw2qmMaDJIXf9tnSmLD+JmkYp/pFQ7K/kbjET+QcltEDYixeMwuIP5Uoq/TXczt0NlLYPqLFbuTxv//P8d/tbqH8EunL5H/1DnJei4eY2+Y84odPt91/S0bMRpQydTLZSHNc/xbOJuRqYRfZfDTHTMuW4x5JWcOzw9won+4MDp4pIDjMDP3P5/+z4h07qP+lRhtp/wSa8mYaszMtf/pVO8Z+XCGtIa1Dn/23k32DM41/G/5rLg4ZMXNZWhCjp0BSSG5MI2H8ybgiGf44JrrToE7t+dLSLcIxFtMQNd7wItmciYVmYeRnOo/ZUV48rfq8kNMUsfpWeb5XK3yl+UpFsBr8RwO9GQC49fMWOlS/Yc1r/gg3mF18RZiPCrV9Di4o2TXAUrhn+T4m/W+q8/HvvLfgii8P4LZwOMH4P1/n8G07YYzjSHebssdiwcCMbG0HuLW9jQ78FpVA8+Di11NPgPxv+ocOrD+EiZ4dxeyESv48R/zXM2zXBHcXGoRNWjDu+VtG/8o+NYn+OKDiKeZ7BnGaNga/KlX63MBtv0tgdKTdwcrvwrBE9ImBV/Cb54+RfnM7nv5TUMZWS6Zh/pbE4/42Y51H+EWnkuyz/vY39n6n9Wf4hCvWfg+JoQHgSpitsMhKFRVT5IY9T/mN/hDjS4GmX8SnA98Fnj603y2lfq/DvqJcOkVfZUtm9CazMxa8aUtEARG3YeLIR4RC/c/euGrq2TWNjHb8u901glNE0Tr7Gtnnu+E3r5fsrHL2ePqup3B8evsKRkJ0p8Qlw++zz+gAZ1Yhcx+r/DMr/Xv84OqwfmiOs3+D07YozR1zTWTmD8teGhzJyBPoR5aWdxjsccX5p63Wmi847BGNNrRB/c/5LvpX/LI/BidyPKv/Vro1B7T+NKdt7KnrumpY/2Ctwy37DVOEZyn/rhrer/2sEotMAH9UiIsBWTCMsT5VrQ0AZJ8wkQihsAi8iY3QERweB3REQxmOypGl5jvH42T9BDS0IsSqyuidh4mjghAOo8Pe0DWDSENHX4TJhXQb33nMMSudEjsn1xMhUYDEyMpnbDJLst8Kf4UZ4jf47eY1/uZaBKUc8DfIv/qXMzKUj1BO27v4Gr2orOPdi2MPPQ6/wnCcikMDzXmKR/7fFf1r5Z1RA9rQ19Gjl7fSBW0rrRKW8Fb1nd0h/lcQU7nx3isElbe4T4iZOzj2/gte6KufTrOAVBMpruKbPiqPzL34bXThgswYf3IqZf1X493uFCc9KcZ2uisPLV7LFMI6sa0zmEC7dJWe1R4Cvw7UYvwhPq//Tyj9UijT0iZ8HyfOv5f+8EN5ZyNNgf3wlrjz2/B8eiF3xy3qHxJGBwOsyTpf/H8V/8n/MpHi3wtT2tDErcufGLzozKJ+RD/Hm+FcC7jzp0d9uHvUdTsvfs0rKzkemCzvDuS/mX9iWOU6bXMYh8joNBxsQbqnu6ovBiKShPBGxfneq5PwGHCn1l7hKfEchzC/mBxtC0trqv/AgrcMFU+rAilq/KLfbfvjrRg7Ec/fH9Yvqz5qs61MqDvM/1n/AD4W96flnEhEF9RS/YlxY/hN1D5p+fuqy811GUJ9NPmeH213KNmvV3gCSt9OU//KgvTqiYcfK0VsPKnMViidxrl24OFmjvFEfseDfkP+MhigbMSGPPNZr7C34Ce3iG+RPHPO95ZBlvXJO2oh3Gvu08u/5/yT8ZytrDRnRldGEo1AkuWHSu4pPaPskEttDJQGITwTD6vI1Q02Jh/KAq1EZw3CdciJItFpiqJSGlwB979DG+MXlfyFZCnB1S204EiR+YRtG7Bn8hMcpSFwYzR61qaMRwrEwUUmhLfgJFwLwQk1yxtngH/jv8ofO0CWyXN6X49eHw62Zd/hzyFBdlM82ybCy4/h/W/xvK383VNmgxLvKfvQ3r25kpz3XN7sSxuVpOo3aiHD0YZOC3b0XfHYprt88NdUDeHQIO2AkI5LyxwtxLOPfkiRD1lQYjAbTGKhKw+Fr8Y+UDaCR/JHpGg5YOrdtMcTspj8ZLm52psw1Dy/VsQy/4TP2f0r9n1T+spLcQLYp+0eYCSseI7PkIYjP5b2+Te2/vvT8V/ZKHCJM/xFH/s1PR+S/P9r+On49/F3toH1tUXlvMAKRzX4spKPQcf6f8m8DwmWRvzJ18ZB9UTx91s2P5HvV/KeDpAchOTVGyhwl7lSIuzDq4AfmICRaLmFXowU/CxoN2h/RQKf0uYjHY+yvtYQDI/bmN/65nHMP1T+n3HDFyEM2h/sV2m9dAx5y0KG4Lu8iXsx/7C/IiNPKn54y9q/+82+u/CV8bP/isNe846m+jJx+8f3u5KsHHPrF6aH6awgj4CVKfeR/ODGE96JRxqMug5RBy5fK0PaX0zceg+7x6t+C5zIjLvdu0pBgD4h1WmwXKQ9KQp0L7wV7ip+ghDb8J+GfdGk8mf+UsZUNdU/pWNwllxAvEr6M8RcpY/6lzSjeSS//CSCIh+Q/Qor/kk3e5uT/NvU/i1/t5BWSEAgtBbARB0GdqDz0YIgwA2oiXbilRzNQay8qXC/nfIxJ2lqnLLvGA7YyFECQ845wHabr72JfiD+YR/iFnYIxSJImBcQx+I048M+z+KvQMGFdvxt+0TX8SKdhVwLt8qEF+6iUNT8FmzjI0XnnSCzCNfpIHnnkh8hd/j4P/ItmRfxCLqtp+hf2SeQPfS4bu0zlfe/25uRfP2Y/Do7S1UnMa9cRCBoS9uYcpXDY1l1D/epeFlltwtkb//7FC/b5Z0MdCvIcb0yBqkGaHZfpX5uzrHD3SdfAO+/sqYBuMHORgtwKZXyJ0/ye3iL06XC2yYFH9gTtCaQSNQGlVDYkAr9pluH34x8h/7Id9a98lJPPpX/1me/5rNXw0C55yeVDDybtNP/zgf+Cc4TJyk41/Nn4V63z5Y8MWf5cYNMwR7hsHG6jWxuqvRyY518+bbzngCoar67A0A/JFQ2vCE/OWMJ/MwyyrHjBgWE5neqU6c+s4vjHV8/xW8KpkeF0GzFeXexET37QAXyH3voP+jixC2yVAYkKf+CP/asT7ZB/lL/y2fkXzjnoFOcjpgu+Z+MrGxHuP2EjagPX+pPpv9EYwCXPUL5C+W8SSMleGh7M98W3L/h7jm8GJ/qyoizTMl0BXRBh9aTlj4UTU05I67knmQLfpe+3XMZJGXSZqSC3CjdnOPrzm/BfKqlNoCTGP8I8eqHqPIWh2hbL30ZQUvGTgwrRswB6+aM9qeST1L/Bn/KKxAG+HL9xE4ebxmv+biMQhnBhzGk9J1YRJ0FVwWCmIMp3DaN9DqAQbqFYmcfC1qBCCEPG5VIA3Yj9aHAyUb7yA1zjlvLK6I10GD/fBOQlIwN+UwI3MPjWEBzGn5T1uUUzREUUbqFkDDF4fi/84T+Sk6FkwRPhl3phyDZ2OMO/oVP5+7F9bvcKmPK/CL/KKf2T0U4pf0ns+rBh4F78OnH9E1vKfsSWss79mplcBFN7chRP+JhVgYq+XzJUq9PaNr1Fe30vmNPUFcGVM+fOuSGMNqQofIhFhL3IhNpNb3uHq68xZPzOzYuTD9m05t6tTbzfacDQKNCg6hh50vPc9W/x4lC3PVSX3HkEuL3HiILwNAqI0/FHEeDv/L6t/Kf57/T2r2Eom8hHqSjeSIcfeFC/lQcMneV/it/w+iyA8M+7R0prZ4Cpy/ufjH9p7foIeZAovZnCQK9b6FUnSreVXsa/FkW7Fke8A3rJbBxFRe7KrV3s0MpQeMo3MjqGf6PZSHYU7Qf2aqFpkGXYOnFmqgWCrRDS2+e+z6jHAXcbKvptuerKUQ9t24avtGl/uXInrL2P7Q+y0gCy0nbXTFdjOLR/9fLryZYdPoD4b2z/C/UPoEH/UCH+4/lXOoGuedDwZzQROtw06vMHO4w+7CBPdrxlelKI4clfGOnlTyEFzAz+Kf+L5O9+GHYQncZwFNPtxr9ktOM6Tqv36cRcYw+O7K9g9ooQz5j/0gqclH00C1PKdYFTDqZfeUS4vfyRf/nV58s/fUZcnipPVlenrn87ASgu8g0NBvI3h7/kb3h9zggEj7n6pib5Kh8k7ktdojwSZejJT/yZWZRzFIxCMixDOpMOcrC7F/MuwzadIxJ2URLP93aJP9/9RTgCiXH6XeORQR79Nd5h/MbLfx7qWbEewm9qAAeDwm/XefBXa67hTzRjcZ0QfyOfhKG07sIbGWYgN/CimJU/H06CX4Syym0AmYej+Z9GPhq/22mX/NVJ6cnFHTlxEUJrrfoq+C0KZYxfK3IK6+sMJb7/ztbkMw61sdcVmNpTwPlLoYTuy9Zq/vbGVdfav4mjlb2xTXpS7sBpoyQiJlXS8dJ3dxOSw7eEMCVyLgeqffLu1uQvHODzMfe719eyEieNByLXXKupeEb/8dmwh0bP5QqNB0cg9NSPNSILTon/zeR/UvsL0SF9Vv8Rff0IUhEN16z9+U1dT/k3/jj/q39tbuC/Cb5S8G0B/kLHb8t/FadImMVP4kRr0E6Y/wJxRfzmyWwLz/SUeyxkY6EIZjH/Tns6xfCYVQJfPaDH/N3u5BGjBy+oyN2crlG8kP8KlLHhKRWoyyqdtvuZpZUOpfM5lZllXeQLUJ/iMCwCIuwy7eooQvDqC6Ttd+QCyDWr/wrml2BP6HTfGx2v3Z3yCf4HezTm1asDgfP2P6//w+UviUIniKUjdC7APy7/SeI+FN+y3f4/vno6+ZIRiAc4dhpWvezG0Kn1D4KUOJYDEQhVCw1AypdnTpnQ+HNTro/uv+SodJxXL2zGz0nafxv+tSnoKFEVQe33WPuHgXRySb+Pj1s2PsQWLU89Pqr2yiixryz/EQWz+KVxsf0rxkgVnPTrppeC1UgGQeeTxa3hpUjNQeJ8N+Ol3uK5jZIV9R1D0ste2s/Q0yRnfB7baHNRI1jxm6al9zmZpxNUb/lsSyj4E11gpiepiUw/XEJobbOOHzgDfuKFZ9It438QyIr4M0RODrRQ6vP2buLkrocecOWwHP/TchR3MXR2+BfxH7Es4n8F/B5LnvXxDG1eYKmCNuA+FHF2pPdATj+R/NVyksC8HuhOT7ifxQ0OtDmPzNIIUC9NNLG/vFXg3vprhps5ve/lVo1E4PTmMLI9MTeFUf5DWmyHcjXvttZzginfnYa4zdTFB5zG9z5LYN9h+uQKw5jqTPlpcsLwJfi1d95yDoYjEGz0oyNlNp+i4WDcU9mfQP0DwFnZX+ABsq6p/YfABJb9p+fiu/i5xO9zz27z/BtH3YdW5UFE9Zhcq8wjBCOMryn+If8DYMh/4vbvd+B/IX5QOzVlpe3IkudPOJWlHSzj38rnJcbvgU/fMo32AAdKn52vx8Tmrnn+/VwNgQvKG9zC0wdr1/3hGAVIY1l58Kpo+m/KYAWeCxnyNY24xG06nSYa4i0r/9yV1lMvf2WqwFVcHrJ199Z+jte23NLuxd3tX4Dz+o8eLc/9IO6OvwgnYHn5/4ay4yUM/ML0zzc4Tn75/UtGX/YqL9NAK9sCRAxSgHJc0njb8l+57bGLpyMv36HDL9g7x/zsctpNypM2exRsZ8W/DCkvabfxhWgirjAld9hDsmCTnaIMty1DapGRP6HajD4dyiibLdriM4F/XUg8HiX/of5NvOX4j+K/NSAkDeVAqE9Wwp0On8oEDCwGxadR+iW9RbmWkxDuD5KRacOJVbB8rjex5Mn5Y4Sp4JSnafwifq8hBd8TwzE4JGhvuBoP4CdNCj7gJL545/Fb2IWWhj+0gTc1TX0LjYSnP8lL0SwVRd9x+LPTWWI7zM1SK4zwGgfj3L2JUxZzqzo76qHtXOmO28/S2zgQv5igTSnNyr9ksSp+hDDDv7C6/P2wlP+GPzOpkV0xL//9sjC9dole9xaH7+CxLKz0XHbotTwbOaCaIDDm9L9A/hbmNdpjmhoyPe/og69N+NEn9M3YH991dLy8uT559w7b/65fZ/oDh0t6E/bObOykZdb4V29dFso4cRDIeea8tzZqO2AbDpc8uAhvNBsby/DLt+BzJsE2uwUiCx0wLWydlzZTp/VyEvtr8j+sf0DB62n1Hz3E5pXz1MYjTXkE7yD/2B+okJnh8t9UEPwz8i+ilCBxKv+HUlUuud2Gcjdkit/PnU/tNflPTME/b/8Nnin4flz+m7f/RfwvxK/NYH+uxnH0wdEwd4HU5ovVWftzSN29H/bp8Xss/COWAnpQnae72nioXHiU/Zc9JudH3qSBv/JkACc9i4IjtV5KzMpc4FCkckbln3yaXrxT+U9tPumb/ju0yg92YljJRaPnV6YLbAjdvv5y8t47ryY3GdK3Ee+f+I7Tf8rfE5b/lpdk2SzZdBTgS5Ztum+N0zKZklGEzQhRUfG/oPzXzILfSEordif/SFh5Kb8F/Gu9TpN6/s33D/cm/4szg2xAelT6Dfg/T57OFBLxzo7/5DqZCV069kufdPYOeTRpEF8SjSf5G+zfQOXQWmzpHAkHXqrwTAQSG8dn7UdYPtdbPSuXWGG+Gmu2/pniP4p/GhCCN7J3/sKMAfXsF4WdGEWDj4QEZUvOd+IPRmwEGWoWELEJAm6t/HPlm4H1V/jJhLwaUmnz0GgjnXj5WE4mxjPAOP6AH6EF7Ax+QfHNKGP8JjNyPgR0YAgqcs83aVXcJj4ef+ybxFZiWxjgXQ5t+RecA69R0Ti/6FG637INta3ep891FHQ/iqJNTOHjLfCfJf/K2B3y7Jnd4OCeD+5t4C+AsyHb5zp867LRg584iIqVEKXs1eWvNKO7CLu9Kd50iZu1jeQ/Y39Et9F6ke+eSOiSO0d0XtOk19BtgkRfggWmN9OnkCGdLX9uwWWDRYcpp02c8pbn2L9JF+AHUEbNdLZz6Zz4XXK3hdOdjQfEIkpTj+yft9/J/o7VP/nDdd+RRchUOvUXfs20b5X/BerV+LeL49ufhf8F+d8i1CWbNhpcDXSVRr++NS7trWuu/IMlp84es3TzJ6YtPBZbfxwrYndn1foG/rUh32b4F2O7YmPtmahYaRVHhg/253ebLV71vdt3ytt8aF9PWP6JLytJ6Nh40OCDRy9oEG3T6eFsnbbqSV5m8p9kwGJorYfQJb2rlv8WuYgw+zH8+MsuW/O/SHnygC34dUR1OWrnWGRHl7/yLm5SwL8HtoXAof7hbUb+fq/LKRKXvOtH8uV3Hkp4YfIhW2g7EnGLg8Y86dhK9az4l76c9hwaoUEdQ7lXUcWz/8PC8DDLf+OrOC7JJBFpVpV/IRRv/xN/ez5h/iebTAWa5/aqkqulMrSNC6HfxcU1HQKpRGaNMixYQVhe/qZgR1g2UnWQk9HKagKaxhvwEyz++kZ8YFUPWrgE59sC/KbLP1IW2MBQ5lYa1UMlhkKSO5B0OgvokCj4O/+r4afFDn4N34ppmwrmHufN/5//dG3yzu11trfdm3xDK//K1jmGy85NvoPANxY8GHHNm8YyIFzm+MbtZPibPE7Iv1jqKrziL7wO81OoMvLwwb3Nyf/9z1cnf/mgChcbQPsHv2Te1x55WsiAiT2sgF+nILHwM9y7/NWbf2P+qwVMoAn8HoJZDQHuNXoN2lWGNL3n45QHX6N/0lYDo+xPBwy/ZcCCB59jCz5wLcfvtIvnETDlQmVzzVMRKXAckXEOMcPMpF/V/jo34W3K3Az+1exvVfmXndE8LJRNmoo2tBzLv8IxbuGr/kCkZ/uKS/lyNTg+HJX/phFNRaIF+M+W/8r/2owuK/ay3dfjBvPft67XZko69lpeFDHT8i+jpYTqd/Ajez48YNjdTdue7VTZ5pSE3IeTJfzrdFvlD00NjaxdZS8j/gkvR96qGI8v/yxRkX7K1w7V+9HylxaXROt78eOjdVZluAHdfqYUtzdNLz+WCDIEve3ml9OW/za0rbg9i8MDs5w++IpDAnUidSlnhudFlR5y8V8ZG0rm8GtbJUUbD7w0/qf5r6avq/xX31P5m8lM4jSOqz7sjNy7/SxTqhcvXmJFjq1I4gDsLPjXfnQ0LplacPI4CDTE16sxeC2cC/RvMq7wmyeFwjt/cuS/Xq/5ZZX61/RBXqBm8M+Xv4DPJf60s0Msyqoitsg2kr2SFhdmZNwWFL+W0ioiYPgtALkpD9tsVWz7CXgowLjFYFFYIQFQ6fjaIap8cQxxxFnFUBoBx+MXhxiljbRYT5RniLRzDbATxvuYf6NQMg78r4Rf2EKGTxiwZ+uRz/dozXtk+IsXNccuV4WraHBkwimN13jgvebAm/oOkBPjl0fSKTt/Tsh/H3pXVw7numHSTY4Uvn+nVkj8G0fffvrB5ezVv80oyv+89BQHwsKUMVd1fEL8TVxNbl3/HaY66RYhT7P2p4OThcoacUrNLUNGvcDoE/zqW4MiUpcKLzNXma8WMc0qwlyGf41Wh6swrjDcnSFvGoWPn4IfPQbVgKlo+33sbzX5O2ztJbf9Krst+Sv9xDiC/8P5T90g4QayQTAk//9M/M/kf5TldJhD1zevbeRsiUvs7+FKIC9l1KXU7c/Kb4eN5zxq+jsaEa4e2GP9sKOOScVP8W/KPzn/4bI2ZLMR9JDGg4eB/UJj4g4jja+3naKCH8rPzv/blv92HvbwH3Eq9wHys/HwOY6TP/zM9C6ydGrIK+V/z/+IcWn5r9FVBuYGnYP8hXK8/ImRBpT+XPqBfP7tThqT2WBq6yDLaaucmy1/TlP/aR+WQuKcz3+r1j/WY2lMAayysu/SRv4twMC2pu15UpkUNkOrFDwGP/Ekcln5N87/aUBUoTcdExBJZR5ZFlngDc/OMauslOE27Spa+24xLDtAaAwNFYwxBsKmicb4C5e/4ABGjyUos3PeV8JPfCVsgi5gKxuIK8F0yL4Th28OfwVPNCN+RV7XcfiDhqjphYZOQoKfAgopb+Gw5z4GxKCAKpjFN9vQkitdmjjZtxBvdIf/1fEXRKF3+Z+Cf1JL0wYjDzcYzvV8jX/77PLkbx9fphG0zRzpxbbygIqyBCLCahl651odf8VPmqQt+/P9KPvT3GJ/YFI6VvmhwYRcHb9GPtif8xYwJsn+jPUvv6WH1e3fPQPcdOqqoxDZDfDiZJ158Cpo30L+b2F/subV+Vc2S+2/JJH4SROZriZ/o/b8rw1k5VUvA6IKc2nLubF/4v8O+U+yvFbiH8K1BfXOYFJGC++wB8JdRiBcWWNjui+JK5gxm3ReXMWzw/pCd520sjXfnhOIgtG2+Knyj9c/Nf/RJDKAYuh235WnnONhpa4j473brxhdq30h4p9X0cNm1/9Jy38bH5EfUybf4+/wD/Z7+E/2vXAliw2KfUZCjBO5rVr+Qb889MunU8mfdC9xZJWur3Dm/Ojui/B/k5Gp2heiMATTSvVPybXsosqfbiNVyneKyw5XqX+qRiRd8HNDVjHinv98HezvMH6jx0Zj/yOZ5XH18m+sf6qyaiwI2aEajUmvzjyDKHNKFgB+A5FEGyc6E7HaIlAoPo4L/15QGzfR/B5i/eEvwEzpG8bDg0z67BhijRqQORt+4SSJcUzktRB/g0PkogfapFHak86fDsxnv4lfXAqSdOLn35j/4/BLe+HzLo3+OsdevRx79vXBVn89dp8Ql1I9l3PcgzNndwr8U/lP8a/Kvzo/T07R4fM2meZ9pi3+8uH25F8/uTL55L1N5kU38FCvFRg2DhVVdABS9TS1otJn5385fgWkdPLDrzbn+/H2Z3vAzORctEuZPCzMMOdVvYQlcZEjb+pB2UT/vFsg2mPM6YsU/nRAM+edioCkx9m/w94OdzoCcZOVIze4XwLIrxccfu14JOH3tT95nLe/sfwVgjI2DOryv/2UrAxegX/UXbo3fpACkTD+8zrVf5+uNOT3yH/H8R8apTn8o2f07ioa577v0Di+TgPCc06G/EeCcf4/oBxy+kKfh4c0Hn6mx+72y8Y3T5wMv/JXaCV0Ybxt+XNa/OYOy51n8FKrMXYnT3a2Jy9oVFwkf+gUnoZGJ3le//ARHSPZemp2T3jeSSdtTk3o9/WYss6VD1/hR/U9pwV7AGA2giOS0jht+Xta/mO5yP8FDRiPZP+OJaVf/rQ5uXyVwwovsjcNBUYOVrPMU2Wn5N+0ZXpKS2Hynh+ktKr+TcI1JA3TpqfUI/Ao+Zsm5pbUvIUZKZEwy1+eeDyu/Bvzn7MwbPWlP8eDlUIhIYz3PAtYovkxcZUeovS5fmw1Uq4SJkdVEXcvzzAlIFpOEVyljFX1wj1Z0KRcwQHw2lvAhwX4CV6M31AJkXboIFZCbJ0swk/mkH9pFl+S+upjYPB8AvxWbB2IPHkpGxVs5ewRvDJuZvIrVEGnNOKIh5PlS+LpWHla/I1bka7Ev0qVYn0C3FbavfjfY2Ol/+HIA5s7ffYB+yPQeNhi3wP1q3o1NBOZTrXKxVT/hvp9MX5jV0riqG/xBxzS4D1tuMDkeYH9VeOhNp95Tk8mDqn0XlzlojPl2P7KTkNlEcpiaT3u7VHo3+Hpq64q0fv+qocSkTrD7Ufgl3qHNDfQ3mU2orqN1/Zt9tO/tLWH0xWbCbE+2+HQZfwfsv8ztr/SpgI9LH9lU6w1mSjvpv9YY95LVPK5SP6ANZGfo/8C2PTPS30Rv3B+//x3FP/j/G+F6CY47j7oIVK3b2xNbmH7rqjRHuVjnn9XB3jQ049UMlY07t2Qk26VBYmq/IuADPhT86/+kv/IE9Ep9vyKBoSVucs53Z57l/zlwWIX0WO4Uqd5KC37WAof538zNXqf4Z/4BO+TMdwwy/M3vuXE4O/xf3C3yZcZeaBBn44iSYXLz0rlryYGEdlsKWSFQNAr/2lu89DHsf5NVeVNK/9Z1eDeCk+eMQrBCMzfv9qZXHJ5OZ2mrU32hiCfXATeafnPsD8wtBHzXP7m8t9x9U/yVBN6WJXzPBwv/8K/oP5t5c9p6/81BRIaei+f96oUirqowwjaBXcJDg95hfD2r8L7FwVkvPbenosJwZhOAMQAGZ+JrDTz37f2veJFSOLHWIxrZVu/C/DnEzC5nxz/1OBAALLT4C+eQ3NxEaJtJLjf/dbGhA1LNtJjlkJ3E7Pd8prJ1QNqx3MeB+y7GQA+hfZb8i9xrkBYZ1jeIcv3cfx0Qyd3hvzsA7aXpvFwhYpS3aUBgcF1A2mag8bKEJH3sfKXq8ZXdj/hXRmwQYNyEDyf65qXP+HK4sD14yyD9bjff3AcuwcZPWEpmscot4QBIahcpFGeuk26gmOdhpy7SF5mD3z3ntDr/N3br7Ol9QY9Lg/WqnRz8m/4pZ/2BwcvOXd+MScj6sG/8bjmk1mf+wfaH5Sbp6B13v7p4pauuoCT/5q4k/9cokv6xr5A8ur7Mfk/eTmRSuril4JcjZbj87+SHVJF2TP4zzD/i8jtoj358jbz/bfw97EhMT0HAkLm+H9Jj/xHdp609/wIPwF9IewInMz+FW/JNTKbKf9+P/6jmZH+XVb5ihU6Oc2XxpENiScscbyEH4T7tFRlG5F0rTY+Ov8jeyPG2P7E5aZV+nopPx0nv+IwK6eBXLbZV1GZaBX9Jx60OzrifjDuUeOzjQYPEdRB05ViLrdV2v6PjpB1vR6Wv/xnWSsnqTrC5L4U1xmJdXt9l3hfx2F6jfxejUTABnLlp9L/cv47/vly00ZE5Cqw5L9j+Jd8/vLDvZaZNrzqctDMrPw7/pXyHyQpplxz9h/Z8U2pekltm43nrUmmepdEwWaMGVgUHvls4hQkglBh9SHDfIQYZg/cNEHSHzqcAOMb71aozjQOTIsg6bgbv8XNrePvcANd5fGBiOdpPUaJ4gd4qZXIJpaQRfipqXo6YjQGjSp+Eiziv0C132X4FVDjqvEwj99tlG9dX0+DwqF0h8ccjt9/8wLUryYH6dlQURL22/FPb7ytJXappifT3bu1PvnLR5cn/8zSU30erFgdqrfi7SMDsXMZIkz/9DI2hWXI8fKPSkjunv3d/PQB0TnNbXrPMxJiu6LLX7gtbwWrurGhZWH0PcvO/uc/nk7+63OcsHCA2sm5ACWzyI0fVdkvbcrpB53ktrbPZfrhDltZf8IW2pY1jj5cZztbOqUMyJhYnrigZ2z/yfgQ6FK/a/Rab9MgtPLZxtnlGZXKG5xheyYP0R1OgBVNb34z+1tu/yk/oUWZmP/U13D1/IeQbNB1+S/iv1oZ0/wvHON5L+lXbkweBtQgxz+Y/1Jm4xj5b6EvfR9cJeV5KI6ymRdDpj/Qnmf0712b+5ph96++32H6Audntq52sNBRLa9V7F/JdPnPlD/BV3JLBEEqO2/i53vSJcwfy5+yMyuGJvFW/rUEgSmAor+YaXAG+yOuF+WQ5Y32W6MsTi3s4UiNMyXTrfhUFzlB7c9U/8eV//o9uM28Uxcu/7Z3/zky9CjxZ4xIZOQwDIqjMQp9A92QmP1+wCqfmmqthGJEN/s21BHobn3/gAaKjZ/HT5GODpmSyp+iWMy/EfhkfueyHNhFzzYQv4VWt9l3enLrfQ/Qo3yjER4H7hPwP8YfLOCY5r8uf74YPvAPMbwnfvhPMRQb8Kl8V/hABC3WeLG/gmDSSuxDhxNgvPK+sP5NOJFOkP8pAsUALithEoYxEYk075amqo1LXkOEBJfJ+sFRhKTD0qPolt743fBT6IQ20xbDzouGWMFauvnqT0ufgszM2fHzafhmTNNwGeyfBCrMBBtwFH6+17ysEaFHHo7jv6IGWfhfiD/g+OEq/TbiSNz4t5C6RCWW4XIi5VhgjNaetbozgRuc7GHNrstQJi34DPkHP4XCRXLjNXri77IX/Kds5/zXD7fweXBbZzZKYmjfJampCBo/4YFnqYqgJcxHbzQKjpd/pE3jhX39sRdHEh4zBfEdmdUNmnQ09VwCr8H+ivuEaQsumbSX8PevX6Qw+u9vXjCsvMdKF6QFsV3/mlfJPMDSCDKTrcMTo5I0mvYYil5j45qDrP127w7nxNfp1tiIsTrMMHy3P8KEVxzgSMlciJuF3aQH60jEFUYhnj53cx4VTbQ/xP6m/C/G3+hHSMl/TbZD/oPX6Bv6B/kv4b8KO+GFVQpf9c9V6vuT8o8FwKA7ll7S7u9sYPvrTGFxkJqVSBiAhxH/dopSuTLc7uoLHe088MoVA5U3pwwfZ/+Kx1U89pwd6Wr1FoCsnOwF86jtcA3lH4o0KFjIG9q1OtKWXUWizdtxsvazsWFv3x1vrbi9rBQrkbCJ7z+j+xNkvjt1yrbS+Hi4GuL7n3Yn79K4fvf29mT/Cpom6nmnAZqCq1TiPSC0OeMcLv/F71kXmW58woZROEx6/sSPNB5+UYb0HJyWlCZpObL+AZfRLB5YLENjny2o8dV6/+5WDgJ7xQjRjQcXJl8wuiEvB4xQKjnhh4GgCPd5nS//xf+ahkvO2iHtA2TwBQ2oy3Si4lBKQ0Lnaae+VuVfPZWIIR4ZSYr5JvLm3X9eK9c/I/lHGehNnQrXKaCT1r+xseA/Xf2PGuQQImzxCSi/MumLb8W4cWI8UUb/3iJrPImuWFsSbx0Y94icgLCadyIAKynFDwyB9AJIODWH1YwqcYjS8XfYxGtQgsPPRQT30F+9ZKOnwQFglRbBiV+EIjuC/8oc0rgK/iAAIFfwA950MgeyMf8bFCQeY33A6gt74LxWssYAjejJG+YH90PvavhlpSVv+Alp+Kvw8N3RHwpR6LtMI+Gdm5ustNhm5OEyDYhLFKqb2edgaDyoG5mQPjKml6+BG/DJErxO9Z9Ig/0YlW8kKv6VPwUWBfDTHTalerA3+X/+/TGFy056FtndtMAHzLz83fXxOQWdO9g5nOwOn45imK4wtcTglyJprafCX85wVcDu4Xl94Rw9revPs43xNVZVuDmUfhI28CLMMf/d/viyRoPHjYc8xfAeQ50/sqPdLxwv/szGoIU5cSr9mP+Sv5CT65URBB6V/+b5h5mSvzByJRc1HgkoxCDt9I/xwwD8+CV5qQHr+c9wr4AY0vOmENX/iP8AabFN13uJR+P/o/lH3+h2m4rgFhXQh/e3qYAupXdpRTzPv50KR7ycp3e76p+YH7eH+4IedYl5mqZsrAuP+yC/kr+/OpZ6kqu+Rk6BeRaMedFNqOyl7+lDg4ytdKRFEDbMnX5S/ja8LSe0dXfL1GfDRkTohEbPhfGIcU/p3M3ZHCqs8I/zf/gUTyEQcHDaUHJpqg6O9r4/+/DV5M5rd6a0MwEgmZamAuov782egJVwf/irZypk+NJfxBGHr2k8fMuUoxtG7UNfxZnaf09nuPIU4rz92/DaYDTAVWF/ZW+avzFq+h4bQHk66m3ysctyn1OuuDuo0041Kg09yC58N3oX5j8Q2+D5FfrW1l5NNlkpYmfDTsImy/JvM+W5hgGF7gBbzL+fzDK5uAczU0TFH6n5P81/vK5Y/4RmgNoonMJX/vwbyX8R/mn5Kz0C4a/p/yj86jfIFuR/GhACgYDiKYBVa1rS+ciPgs93JVHGUqrn3W9IwlCi8M6vROWtwjRuw0wjo17mhzyZqOE3vL6Kf6ir+Fz487XjF6axD+Gv4MJWVBjTa4w/J7MRJj4N1IzZICbemP+T4i84/paU+n2MX/7NCFv0hm9wiNPBmy16D/Yc1GrJWNqeMhIx2avWoY5Cg/xPzT9lRcOtb8N9pi0++WBz8s9kwr/g8/AejQePtrYnboWQq8k/VDX5R89+9FuTXOTchLhc/nKXZKlkMxXBsOObf7yefEXF7RSDaDvU4OcHtKCSHgt0vblZdkYmf/QLTlg0JtKLqc9Rasff09c9FKaxYTvogALMTXQebjISgeOYO9I5h2qFcdFapl8L+FeXRtER08rgPr4jLoH7jkbEYwpg98nVmTK8Njil/3oZ7J/Xsr+KWyzM5r+T2p9G3fmfx99ZEr/xvNJ4KNG0oFn80THfx/ovywbAoP+iX4YFVTZRzw004WXX4vzD+IcYV0Vd0nEyvi+b3FmerFMLlyKRznH+f4WNPME2HmJrHn+t3VnZhy/5nyn/Csgi+ZvvrPC1l4/fr1E+N7GyoepogTsw2oCIYyZwvSoLgqlV9jYeLhB4Dp+ldVdNYX9rPFuhuCGSp4I6/G7j+kC/IgSd8hdYq8hfpnZ2aSi1xrkVv43sDTMgZdVQ/oT7pv8Z/onX8qk01bSIyzY568LtqvUfwcfiOfLT/8uoi+2/bCcyaPkvDTzUtEXj76Z5jtGjj+5tMwXJabq3t+DX2O5w+TqHczlKuY9PmdPDarb4L7kusz/TOyLs6rgnWda6Fz+Z727tZhRCp1J1mIHxIn5O/1P+Cyd8tPpPi5ES/8TfMtsS/nsOIlrn3wSt/BWSYIdGYfgT+HL8y/gPTGE1kow3tv+j8n+mMEJEyRXGMM4RMLlMVsF2FITRRORTno2c6j7NGaIXoCJGIdR8DZHS+h5agTLaoOXRCFwHTSnFrDHSZ20t5DF+vxEr6AogbAuDAABAAElEQVRnALRHjddGSGVzAv0fxiqCS1USKDcCqeAl/BM1LfQx/s6/WMUkPK4Gyhn+FqPdiQX+w/x7toLLyNYrPYWJWyVX2gJ4wJy6DQtPAZRMMU3lb5xZ/IaIXyMgm/LWjDH8uwqBApTTKD3K+m+f1MjD3/B7eJehwMv0yoJfOxBQYIBR/StUro7fp9cUHg5cS0GuLkfSlRGWJPym/EvXxYf5epf1rPu/0ltg+sHVDXavWmN8hH+aVvD2KCx8nPJxOewBrcHYprbT8IthEf5mMNi4lsE0ir1LGhI2HOKABVHqSFZ7lbLU/sF1gQPGLnEuhkPhP/2ymeHZR09wRpM56Jt6fhcPU/x8C7Hcz9j+lHXXf/JfE8pU/mAuRRBT/EVJ0iFD5c//ngpYvKl/0ihev9UTd3XafABMb4SKc5z8OwbuvwP/YbfZn8upb7GD6Ds4COsDoYOcjrWaz6Lyz5U1zq27csDj4+3h1ygBtJso1i8/XL5yLZK/Gxu64scRvv/rryyPxvfGeXWdq81bVnR7/GXqoYE2F0b+jXZtuldeTrk45WejW380Rx1+ZIrl8+92shrIlUmvnMvQFqFzXP6V/oXOhfzDho/omX2x2FTK7a1djbHPiNpBtrZeC1dVlqh/06bxGf4Pl/9Wwnvgd4+Hf7BhlA7PP7D8Vb8HncYLJ7TN6B9SCRKaU4j+BjJGaQMsZRdOje8y4vARB+Hdu7tBB2yThpQyoEyjIf/+073JXaZkf6TBp5/K7l4ppfgHJJc4Slnz+OGLIEVmI9FGxI/I4Vu22b7ONKWH/ukrU1OtHZCl32H+ldC4/gt+0XphkCHBXx+KxIX2J+TUP4fK35K/1f0ApCmyQM7iX1z/VHnX9b/I/pflf0lmGWczhMZFLSUp9Oq1sgJxwgUBPJhChGZKhV0Fk9+M708Js3o2LRxjEmpB9oF3PwFIw+jiDP7EShQiNHwBWbBn8BPX0F6g+c2MqvNfTtQjnd64VhI66aVMV3kNv73sSl+UHcm/TMPbYvx8ymWckkJlLt6DAH5BsYj/dT2Jad3fthFBpHNUag6jme7NORwrEfJzlhftQrO7VSq4Qf4D/0HbMTeUIpzit/Bx1MN9/z3X4pP3tyf/8gnLNZm2uG9GZBWGhZK9HC+TDvwiR1vCZgg/qzMvb6XZFlCY61fjGOGXefUccydclRrmiXy1goIvvFfuBl5AJiD2VyMQJX/jpDFGHPmaXj43m1iI3/jE6PhJa8Vor8/ekiVHnIOJJelj/kNQs8fYLNF1MPUsjLss5XzvzqtUSg8fv0xjRHvLPh8hiR/iy03HL/zfxv6O4r/lFJBLy8L8p9yUyxH8a3+WZ4naDZtUkVHu8HqM/H9v/mVHvx9P3Hz3zhZHyG+yrBove8qKbvPj/K990kzNMPhDRpecvvDsl1fVegiXSlG4SqyuesvvHP/69ujRr3PyZ+xO+1ca7Tk6nMhZjQVCbTAFtsLxf4NB+8AXfmqe21ELbdAKVRtSF88ZOTAPS42bXLkl9e4rHbSrzJBI6TzO/vSheI4z5c/04H94/IJRjU02TeMEWkdpoGem/APgfPlfHOALxBCcK6U8JOsf+Ct57PnPjOC4HLa27z/K/qFVdkfl/wUaeea1W0wzfojvw4dsdFe+WviUOBxI/Gt0gJxO/OR+ndTrtNPuKxzTaRTpYzLlv+Avy3+WD7Qf0gBxZNKpl6t0FDz6W53pExFfLeLoVGn8GEJ+oqxZ+3fIgTjiz9WeK/9ZKvoFyQ6Z6nD+U+5VHim3AuMtUFfAL4bC4kPBX8Z/oAbHqP4Vf9cHj2b7LOOcksL3JOre9H5JQKLYOpWJlBcIJMbNZ8V1vgtREmVGK40cS7iJ26BZsJQwiohirOHh1rf1DLdj/H6bxx80jZYIkR4hHjYf4Qh4hTkrh6OdBnDdtmt8JcoGhQ5BvqXJXU++TfknzLwrxn6Vjub456Mido/zGJGwTJcS1pTy73t+Am3MvzG8zlGCccBkvIrtYljNujrCS7jnDvbwhYB2/CUsZKyYukwX4o/84QG8oQsi7OFvM2R659ZaVlqk8cDUhQWpzoD2zMqgLJDUkdeIf2FCi5zEG5lvZgBj2rqtuNx91MJbZgj9CWwx+BRQREsIaYFQbzFAex2z+A12cy//CeqN/iTBSaFLygudz3wkoPGv3At/wJsaFoTNP+BgHiFTOvwmHr3qozP5SKh38VcsvwWmAIjvdI/zsQ6pvv/OBkPdG/Fmdw72ALtQViWfgtbxB6ZGFdl453tujf95/HyTyuA/Vv9EXip/+A+s4iNoGp8Vvlr+jwCBE2k6bJGLu48COgp/wxfb/E34h4YRfomyp64T3C0OufNcl08tI6jQ9SfQjr3qVvybxuPfX9ADd0XCQ3q2OvC6aoC2YYsLGng5lP/n7J8MS4eG1QLgE7+V3Ds0Os2TRo29SUDEaOO627+BXNqpdFYE4pEOmRe90u+qknIClt6vPLTPqQLKPnvg5ILgkMux/SmihjR38786sYzUkfu7H/cm39/dnbyDD8AbKs/kd1Xc7U81k3Km/OebOMT9zQ87k//88vnkvxl9cPmm+0A46leWDJx5+08xYPkXwjCxUB7a0/lhBOAODbD3727H78ERgYwGZBqnlmjfwvHxb2y9nykdGiyOzIhXnQkozpNN34fwxwzsPIAXGezhEP2YRpANiA0amjeZbtZHyn1kXM2lPDAHbEv5Rrrg4J7yRzYrvJdVAU+Y6BObuHKoZr2KrOX53whKxjKlX7Il/gbxWPxj/Q92N4+fD42ijma2/Gv6Lx8IcHegkiHTKi7mGi6Ltumwp+9kG7lNAm4Rnom5kl4lTA0lxIgnguWtBzQyFWK/QktnIDj4apIptwN+g6KChl+wlzhi2RUF9+9cjOE5L/g1h7V4bOsjWpPPmcPUaamG5AtvV2LepB/jSWY5If7wEP554i510pQ/Xhfx7zfxZ2kSUwuTG3K0Gb48XMZCywzwjGcry1xN/vP81zf1B4yG3zBxuMpBh7+PyHzu8/DXjyoT3mDp4hodl3JChJbQv1j/UYHALDZzFzbUg6+/l/6n+I2WqCP+S12RNt96gdkB2sCblb8AskOaqL0a/72hc9j+xK/91fjEMvxFQcl/eJZ/eFrV/u0FuiTwNjsZfkTP5xcqGtfQv2T49PkLXFgQ2jL84YWfs7e/xfIPIRbwQexvf+p3go7Qf5L50+SfR6lv+a++w29EL8yp/Yuq2/9Y/6b5rfmXbwt81/bfY8jbRrPLlrccfVA5La9ECo1/Gwo669prfsAy4Z+ZHrByTv0X+0eOJFCaM/wn/az85dH8Z+V3H6dle7Ce6JoloMrFNP4LLUQe7J9niTIOt34pL9MaPZ/5cSrEUVd9OhwRu3H1BdMQLE09D80UHIBcSf7qxrLRXTcfMJLhCMJn7x9Mbjny0kY8Bv03osb855RL9lMwH3zOqEOmLhjB8fAsy6837pOShkJLHB5afpNBZdH4VyBGPc/ow1XkdZ9pJ0cf3r+3PnnHPRroLNaqrZKdzs+X2RzuPXwinr7P1MNPWzTmmdph9Ogp+sSdBfxNDtX0ESMyPIxfzdrocMrqB1Z5bT7ghGU6Cq5O26aO2XSDKUaOLTfH/Ff+OVz/wZYgUYQW42UmqWsR/oX1TxdZ8l+Biw2gtNny9zB+kfb8FzpChcrmf7O/gPc5ZZY2DH0Gcl9U/671j85iy4SxFUYRzxuK1ExjVAkXuACFzPcG3JuKzrsC1QAiWGO1CsKEAuK/8VVZHngmGxuRC/zKFfipAMmtaRUbVfyVKr8FI4kCpkO4TG/6U/Yx+NfPLmVI/lfmsf7rxrMY8n8zlPbgTW0CsycigQB7Of+L8SdRoc6vYMK/b9KuAqYajamEnzn+S5akRbN+F8YmPVoLAI1XR6AntIBdOlbwFI6Sg+jRNY/fVQmD/MHpkslNDn0y8/3zp5cmei571kWWr5E5Pbq7hHG0/o0THUcTPvMXOqLNepa0MX7ipkcFfzZsOukRfX7Uv57NvghzbH/z8q/kSsGry8GUnYPIP/iRqR+Cn9+R/RmWTxUBukwd7JUm9sc7cI6zf2lwCNxNiT5laPolBa3nCuzh6Pk9nudOZaShswC/QSQHx7L8N89/yTmJQnH9LOZfO/R7yT8Zt+Er/kGc74U/kEigs+6Q51bg33QNTEBE/sBRLmP8Snyq/5L/afnXRsRZ8At/NKjtqbs5+9O2NjLVxNJERoncIO0qDecs3Vwi/12G4H+i0fCAnrOV6I+cd+Koknmrl2PFsPgr70YOinUOv/avv4PHRTv0ri9E8jMJzHrL9T+1P3Fqw2VGPotHfsXPcLIC4OcK5Z+Omu7hsLnxMg0Le/3+i50Tv/TPTQHyPsZvgKM1Lmf8Ab+PH37ayHSIK1E2QaovZZC35B2/wYKzneEOkz9R6f79m51MXbiqwdVPYqrGwxL9k77K+eLJcsQRPht6HnDlyNFfcfZ2BMJN4BylTV0VyNVIMv518qLTVH/9gPNKMmVSDupvcAitEZAGX8HN8d/Ln3TyybuccpNR7O8f7TOSsoMTZ01hbNN48TwcN9rS2jv/ZJ6F+q/yv/DxmzRlwC2vVEjxP5Q/s/m/pQJblBi9Fywly1f5WYJ/XP4ZLViP4B9zCx9HlX/4QAiIv1hlQUsCQ6EmypHWPCtrXpLryTKRMN+4EpRvGImZu6WJ0Tu8ImiNhwcrHQ3QKPnhIfgTSUUkccNpxUo88Sd6+2ZQyzw8Fqz8vs7e5dev6RnvGt6LmV/XycZDojrNTmk8fe5cnAYlvcWvkJbyvyL+iA4yw2dYLdoX8T8vf+Wd/RBo6V+jJX3Ddchs8pTpR2hMoVPCXMq/Ausyy4O8weM6Q6guzdLhT2ejW/SCarUFjEVHxDuK/4i+Ci7plgxb3/xvCvBhif75YvNX/acyxdolq/g/a/nP8l8bv0DbIvzSwSfjhCd+yv6kt+TdZZl42piEw0e3JcNdxbPNKWn3sLmd3a3Jd/deVuPPHTId9lYsLOP64/iXHfFTlSX/lU1Ku74ly/PfVJYL+Se9V4mkGiqCd8VaeizIpeRPpEXyF79SEYAJeS4p1ftM+ZOvIjQev0vyvzY/6Ax4jq5dJAPdvsFeJ3QsPsVr3y3I9X0Ypgnn8Gujru5xq/TvfmbfAnrQbu/sLodpP0jACvglxMPX7Kleo8HiKif9j2xMyIkNT7lZiX8SHFX+Krm1tYPM0bvB0i16y+5hoI+V9vf6oHCO859EzMrfpkTp8VV2e6URTCPqp192s9Jo7TyVNg0xU3X75yX6t+LVadvRUp0OPSzrS5wn3X1SB2Xtz7JijD/2B75F/BOKfOzpM+1Def4BDb/P3neTO7Yd592OVpWHhV/pODLiPhtbW0wH4/T4EY01RxDca2aHpZ37rB3XrzRRofco/LFHIuiO5jbXT92v5keWbm+/wEmzfGfW7jRHVkWSDGJGn9qfz7H/mGzJv/JfSKgyJ/GJEPsv+SPdvC+2fyXOZ+2vXcl/jf+j8c/Wv8W/JHf8R+Q/xVuCA2vpHx9y6WytXD/6IdTwbIbnWwEvofA2YpoMYPwAlRNnA1V7E47PUGhrXLhGQ1Ytji+m5TbkSMIIeeMuPj5qykQoegrTFD/hZL4a1jaymMVf8dMD4M1lTnrNKigLizpA5xynwOGc+Jo9BCgk9ingy0FQHExuBDc/PKRejTyOx9/5lwhBlLDlX6JKBof4F43yV04SGTkhUXHj8WULrypovvPVnkxgKJc5/jt+v1uhRRekt8f0hh6I860eiOUGLLainTIJSmkVXqgWvpgkbE7/oY5vwufPOUnABG6puOmfb4Lo+Mf6z/yjcCQyvJZ9gIk3GJLDRfibpXX9R19H8O/3RfgjG3H5HTzKPbzwU0cyy7/2Jy1z/ENyx68SClZCIpOL5KZrnKlhT+l9GmmPfnZpp17oDiHHslqawh9ownSU7YT8K7qj9F9DkMQJfPVZV2hW6T5w5Qv4I3JoMET5p2Ce17/J+BebIb0g0qsRkEmRm3y0/xVI5LH+g58IXf++n5Z/GykXUoYAL9gcIJeunn/UMduWY6eequhyv/+D1Q//wgFxzpO7I2xN2xlf3mSCBi5/wnvxcjL5gYaDSxB/YefJ54w+vDIvRX7EPML+YBAIxAGkvfmrDHnfxvfhLg1MnaVdgimS8G/+l+6Gf6H9EzFxjRUy672Xv5prlX9UuPSI7zHC4uZw167sTDYYPfHQuX1lzZ+4kl8lwDDLBkLH+U+57dPgeMoyThsA3/zAEd83doHNGTI0fgRUsGIRBSerxWrq4j8/fzb5X3/H74Fp419pRLuioVeG4dXEYPQ2r/9eRpyj/LPjdBnZvf8ODT+cvl3+ep9RHHv/ZtysLJAJwaE5q1//q1vPt3mPdPrAuauk+3c8Y1rxAj4hjrJJeeHv8ifhEeWPIzAPgfE1S1Fvc+z3NqNI+tA4OpL9OLQ7/ql5yTlU/jR8ljmJNOgf2aQxAH5gLNR/9NNsM7xGBQ1bR9jK3/7qV3DN57+iURoa/29hf2hBcBJT3ESUZV2NmXyM8kvkBoPYwoXatXo1ETsyKVjRisJK7Ut69RKD8W5crzY0Q3gYEj9XjNiRjaqRIoBOY+gkTkitVIlf4QoXgxKBy/pAIkq3G9bo19Y2oLdVpkRxMyKx/cg59E9e0yolE5VnMHzN8C/04uso/FXotBjSL5+++iD/yfX1OsN/gz0vf5OmcDYtAOQsYYYDsmhCxi284w/KIEYesceGnzAN14yVpV/0iuK4TMkTva6gfxtr0u6hWzZCbOE/eere87TuGa7XwTMFZzE+i3+R/uUo+vcGnfk/L//OqxwnykL9H8v/HH7X7l+kp6Is9Ny+ypCvhcFFlvA4nVQyRr5Biv6R3XH2b3cSH70sC/zgHXwhKHwfMPfqunr9cByJQIRT+xfi78k/uGOXuZlbvOQLOorhsift34+EHct/7E/JyFfdY/ikt4LNKAT3AuT97PivyrPyhZbprq2iahmPmtuKhKklT5dFHzpNfsLGUfdo3G0zn67vSvIlNI3z32uGrWv3RA/N2svhUm545p4hmRo0Prjkdpr/tEDDOv5p/nOzqJs0Glx94SqJLSoeRyW0KQXt7xj/bPmTjyvZX8e/TsZ2tcAdfDx0+ruCbb9gGH+PKZluf8orOf8I+6PZy4ZZtR+CDalHOAfbKJm8Rqimniv/qZsZ1WXlBidsfsFS0i9/3MkonFMh1WCUl1X1T/l00WknzqFAZo4+6F/0Ln4Pnn5rA4zsBtzS/zj/K1GK+mw25UjFu6wwe4+RiJ/Jj26SlWkodOwBWyfJf45W6xjqipzPv8OHhRHiO/g9Xea8kJQPZP7YX2WaI+s/5R/1Q4P/1H/qVeU6U/8gs8SoasTyN9/Vm/kz3yrfmf9ifyvgVwvptLY0p7U/VmFoyBKZXA44SEwAmh4uBc078WzRpKzxx/8Jb6ZrEmEpDG7daGxd2aqMwSaKsARmgnpsWZ9gRWSg3+o7SOfwF/yEJ/IIv5j5b8+iCn1PXCCAeX4rvcl9vlGwiNv5TzZGpq3CUbYvbFwcQGMppX4DnLiH8Yc2yDOev1Fd3nmV/yKjAMBSV7Wxxdr5j/iIu1j+HTafm6wi/0ALUCH5ccAvq13++eTrgL9CNLwqvKAKuDUnebz+tUvx2/LWCc1hQTPjvi0vts18QSMs7TJxduQN/wGjSo6K5IKg6BvckUuCG/7o34DiLPFPIP9l/LtFbd8sTI9xM88mB5t5lsX9O+uTD9gDw30BrtDbcYfJkkmnYV7/UKV9+j8KLHghGdJdqucafyuhX6iA+pHj+1RAercnj0kodpdc8ZvyDz4KKeXvqIzXvP4js+R/9YaxxHg770nR+IRkviVrdv7hIIWhcHsSH4wXXBU+ln8axuHftIVusP8V9V8wpEcIynQOP8F1eB2FPKMNn9BzdfrC3v8letA1dw7lRSqpp/bvksoXbDDi/gWPOLLbpYg2AvuZDemkSHn+8xP8UOBjCKkbb8m2cZ68xZkbVOiXmDO33JE2xZzhfNOM8OdDgBnudbz99fJH/O7j4tkst1g5oU1/d4XptORV8QmuEQqfsUAJ6fjn5K+GtN9HLE22MbWjPwEmkhUggOn2bxnpkdxuYPU1Ky88Fjx+QJk7AQooev47Sv/nHX1uduqqsEv4bdlRyZbjNPyuMA3kVHRIHuEf8y9/NiDWaFwo79ss1XX06Tl+Gb84CsHSzue7tbw1+x4Qt+of7GiOf6UvPfKp7PbonD5mRPFzRiA2mRbXIfY6U8zrF9mLAnqzUgz8SnS+/gssfogFfVUbqoli5vjyz7jmPyHw1P5X/rPp0tXqwyL8hbHwByc88b/Qd/33/L+i/TFCLlklIB+tWAwxLET4DpYsQ5N4keZ7UplgGreFhzeDubzZIRVaMPFjoemvbA4FgZwYoRmPBl2FGdl1CX5iF3rSiMfk40ssIZkH+pXMDdKYIMAlMBbmxnfzFtO6wcnTZ1aAznkZ1sSNok+DP7TwE7qO5X+x/JNa/OEDmoQzkj/BS/kf48fmoaPJ30R2Db3J5Qn0n0YHucg5SbeOdd98vdId7Vk7j5f6OVr3zBW6Tl51Srj8R/9mwiAF6xtacOCtysjQEf+NztJ/xXlb+Y/xy/kFhkZtPHh+hT2bvzA0+gHOpfqH6Megk5jyknZpXIY/HKmUHpcnr3VHaOgBKqPPgO2KDDfjebW3F8/2vX0dRpERadNDJ704kv98DpSyv6PwGy3oF9h/ybooy5Bwk3/UzdC0OkuPJQHwqcL43+1k4OkY/mMTwDZtwdCqTM0lPB7G8hedvcaz13/lZ9GK2w6EOxbectUFFY8jDx/Q6NW5bv2CpYHkwW34H8kfgt207RkjDi7f89Asz4Z4Ze89TIYt0eQ6Sv7S4bThJg3ue0xruXRTn4Q1ejB+W4YfEXGd3v7cqdIdUu0w3WPU4xYrr759eGHy+BxjNMo/Q5Pd/jAEcC21P77tMv3gQVjuC/GcEYbdPSpxZOv0ggq2ojS9K8a+5fyILzmL4gdG3py6sJwNhpH9Had/ZXqBURT36/A0TPORzt/Kz8ZfTTuF6uD3qeSp3LjkURjYgH4Sji6+RwfBqcTvcIh1c6j9fZbFUzC62ks9LOU//LX6j3iOTu3scmdzqauXdoHHEldkrKz7nh4hQYK4vMX+88S7ytX+pbHVcQZBQMIyNet7q39m8j8wLC9s9I3zWuc/yfwR1AL84on+m/Wfhf0NUxgilUf5aLxWUBiDYLWKJUhY0YbQiTqkMzTSIaxyp1/DbFp39rZsFuZKypa2lJ+kLV19TXal1cobf4vwB8AACth9ykRS/AOXUIIB/J64to7hOx/KVlNRkfR7FKzNS+eKLDhoUxRtpjwp/iajsMmPyi78jYd8GIgOodIpHRIsOu/9En8ZDfIWdiIaaUZYwTLmP9GIlcwbwDyZBNi90ZY4CGoZ/pAyx7+C1adED2cvt/k1Q1tQCuhnCl157geDWex2/i23rBblosICIiGhhe/hP8HF6Ynl3+Xnnavjz+ZQ0Oi/3nj4kJ3s/u3TK5O/eXQ5IwZ3KKA2sQ8rRe1nEf+r2L92RmckqzI+ZDmxc+duhbxLxfT4V+DiZPYq02xFrBI5e/4DtfGvYJGETPFnrz1q1eZhyLyX/Mdnw43WSZqXfxWGfp1GMo29UnvTSaedtWtsfwvzfzRCZJO+jf5bo0Q4jjDay8+GaTQedKT7gGHsO/TGt6mUnNashg84YTaciL/x7/TmL4w8uIrgV3qsO/RcaT9UZhp4MxWJTJcn3kflT+gAtssqr+F35JbxOi47eid9R+EfifbI8ieoO90mihIhBhrd58Z86jSGZ91sXnwe/tRf5awQTarKkeFjTv6YB3DoELgXAg2IR1Sa7sTpwVgXLniacMnOyowZTBrKLJfH1+ALDsyyQ+bR4K5IKsH28r/JjdCS3Uj+Db9liRtG3WT6QYfXvzJ65JRg/FZoENR1fP2jHWsWLrF2FCP7tNzbYKt5dEpjxx1G7VyFDuU4x39Eq03zN65/3ErfLfgf/Vr8OjXlVtrXOHRME+gn+Upnlf8C5kl6xGf+4+afsmmcZJOzloXy1e/j/Fflv2lMS6opkLwP5boiKuCz+I+ofxNf+oI0KCrIAP7G/MuCdBs1TpTt3TD/50oLR4AJbIbSvhunBEP8xDGJiJJ0uJuqvgOlRTRtia8/cee/B8LYcnZeK3w26RyHv2Es/M1WIa4qWwtHgcuFsHlSuXpA3zrnro/TCsbh5hRwtJzfsOQop8RVyjAZKEVqIHb+idIugImfi4Z+8NuaHCpMh6yIUtQoqP7kvb02+L5G/k1SCiQyyffiaCl+wXU6xNGMVf57+TJ9UBPNfE0X+GJv+HlfJH/X0+f479cb8a42nerS2OXszWO2qLbg6Tps7JZjJ98lJLmpboXYSHVJyqr219OQovg28Yj/nqmcskjPzPloCia3wfUgHvfD+ISllx7rbY+nO62uih+w4Tm/jQVJ0NY83vv+rc0cM/6IysgC6zV2Zm+2KlxSGbnpyScvg1bFnwT5OZp/M2LEblyGaV/TmnN3vlqF1EQGYnGvij+giKxfgIcWucOgjQhHoRVALLUZ3Uz+/4307+gz2SwrHq4yP+2eAfF70PGOuXt7iQ5/W8bkir3KLVdj3JuN32dUMr8+cz8Pt0LGruWJjy0aJpacYcp2TeWfuIRawdqIsfK6hx3cZiplA/tz+L8Kxsp/ATDC7/uq+l9mf8LQUdrl4HdvvYQOpk4YJTRP2qiO0XoTr5rK3efiseO3EWHjwLl/GxH6OLiqYWvr9TCVQFbPqKNxbHR5qJx7PrxkyaRyCsxGqGiOy/+O4DmVeNc9a2iAf9ymnmx8pRwDRpf/Iv4bSrkiz5cfzHWmPt65eZDGpDr1PBNX2TxHt9n1N1TWT2i07OJhUfmnfl0WL7/6hrjr5wumuF4fsNmWBbW2wiX+og8oPGh2KV/SgGxyJkwcvZyqdIQdgb/DteOWesFEMl2iHu49XqxsLP9EDJfBneS+8ufN62j8U/nXFEZZURjvj+ZEmdKAClXA8lxD+tITmjtGP7dn09mzcd2xFWjnywgyk2Zhy8TGVbjOd3m0tELR2dFcXucVFNjKv4p6Fn/HWUIqGs5RgmlgOgFByCH8GcLefJMh7HMXtmoEglhmeE9006BeSCulfOf/OPyyH1qUVwqIapwYLP8lg8X8t1x8SP5WeoHJTb3UK3KFp14gd/7F05/LuUn5Ky/5NyNHFHXPEGYBLMPl2Utxtccj9U9U3ASyI5t7SbiaQ5XplOnojcb3yxOeyaA28WtKSMAF/FwNRfAuHybg0esI/CvLHzAz/AteHOC28nB9/If0Zv7tM0ceOIiHysXNYdyQJgPLCDnkvKX9K8g1nMB0mrvP0r2/MAetF7c9lx22CfaMABsSvzn/Eat20OWPNTCFoZ7cvlv/lX3oyEodAmu3Q6R1DP8pDYEhHH0Dwhf6tnfmQU/ap3I3m/dKRB0kN56J/kHM/7DFzQcbD+bhy5fOMW2B3wNH0/8bKy4+Y98AlzXaEy3/J2QxKn8Go2/2V4e1uQpDX4iakqNIgKdgiX37PIs/JIQ/7e+Arv4avgi3aazexf/B0xyvsCpAJ2aqtcAK1bF/gXEdYf+yKsL58m/Ir35uYMqmGG1lmi4NCHrIV2k86Ux+QOV/4HHzllHAyxRmgBO2AL/+IJaJTxk1e0LjwVM0d3i+fpVE/jcZOnfPE3v1z6ic9R9xatiGSte/lEtgUB2hf20lozY0tuq8i+2MdjptqsxTn6T8C/mD6nib4X9c/9g5lXe3Lf+YzsIuq2ueMF3t0tLXNHhcIWX5YsNgkGezfxv6Uu53qdd3QRu2vFMuOkf3Q/gCw3jIdow/PBNu2vPWc0yhuoJNe3UKhVKyrgX4x/VP8k6osVEEHPgyn8UWhSCh3rCpRfiLA5Um4mncgekj8BcPh+1vLWvTY8QALG0XISjJC/L4V6R3AhRyTAEpxpPV9KPLJTIylZR8KrORO16MalchmgIuxuQMgnNV2/QaLqFol8TssQa5FCIUryQMJTP4eekF1NAQoaLQkah7Wc/jt4GhY+V25tPwKgZGH3Go9cqTtCqf41ipGI7D36UjhbmwDPG7x4KNIVvBpWRihI1Z/odKZE7+NiCs9JSJx247JGlGPee4m4Qpf2jv+Dv6Ln/fi353uXQ4laFd6bGAD7HKn4xpYeL7HH7TK/0phvYEeqPam7rBunAvtwzX2DOSw/s5ejvnnlTF4pHkfhOJJhhHJZVoCPof8z/4MElQ0og/Mfkp/Cb16Tj+u1lrXzkFkakrRx7+6aOtyd8+9BS/bRoPOGZhdxn9UlEanQjPwP6zbBgdWons4kHuCISOefqO1KofK/AgK16h80z5b2xEVjAVORsGk/vsZ+AOp788pmfJ9EqcCx2BgX8r4eP4t5HoWQEvaRBZgLpbo8vlss26AvR/A9PxF5PKt9s/IWekf0k2z7m3wx0aCy75c3TpY3qw77ofDM50rpwk2gi/9j9rf9G/cdS//zU27qbTdpPXeFlkf0TLlY240KU7TTptIn59Yixv3DVxav9L8AdZQdP6G1Zg19OM/dNQqQZyQ86t53/3vrh8acJKAZcWe44Dx2HB1+vX9JZVgXHhf2hEzNlfsgDIrLSVr8uceUzmtxq1EOiOuaHWb0QQv/Gm+ifYCCl0/DCr/3zkO/XqhM2ykRtTpEy9fERD36nS2x6lDS9dEqvyn/jAdZt7GxGOBnlq7s6L/7+9s33So7iyfHeDBBZCgGD8im1sbI/H4/mwEfth/5LF//Hi77sbsRM7sY4Zj1/WgG2QMcK4ted3zs2qpxtJSIzUemJ9svupysrKzJt5877VrazMv2hRMC03P96lz8QMeM8+kxw85L94kqiF4A4YfyQgKjSVxvfAqZ/YjbAd/wu+aUU5ecBiDsytl890ZusCTW6WMc+GhK7+Ev6dpnKH8BmC6yqHF525NTy8XQ5r/C/DX3je8f8fp794INJCC0+EDIzCYIMygmNDFCRCGDRuKQX30MijIqsI08qW5AyuynYDBLnuAe95KdqbmtzErniv3cq3tWyuxE6LIJ8BckFXr8MoPD+JA1F1UCGz52+KaV9RXS/riRKiQwkjBGgzgW4s+Hg72H/iNbkYmRPBuzd/k6yBZvXATzXRRotWWth/Hn7672o50EYBYYCZjctmXkz4YZc/e1UArnAIH7RYqLsS3RQdHeKfpyVm9LP8Lrt18h3zX2gP1j0P9+Sn0gU/EScYZdxTgPGxWGkP33BjlMAAhMDjrItL8NUjhweNPzfZSphtwZklncbo6xbBwkOR93fazQ/+wMrnrDIoazMn46aw4Bi+riy0OfsuzVJsoz811ON/H/xf6n+K493SRCrNSmefin/8wct6Kr158pYm1X1Vry0YJ8adv8ft/xfRP81GGfPN+tflQrcrWAoXuuWTQN61f+KV8aajyr+N/9Z/1P3ef1YSxOBDcAe+yjJ2DPj0n75YoE21pDvN1+TTbHLB/1DGDDtMsjfK66IvlgB+CRc7khyYEw7H36zGXd1mwaDfyX37S23T/BtNnmPSIRNoUTYOWxUrIbWaJ0ULCAnT3bqt/Jf7764d9B86OOw/7YDnUILB8zV5HG5obks2iWO545tf0cZHoklg0aTF/6ALeJwdhv7hV1atfFG/r0hYY3if6Kk1SiL4px3g30U5qCGWmzrCbxjsL8to+aYUFkoQmbQeKDwWNOQB8F2P2kUWwiH+SaQf1PFF9CfWtOHsBaxE+/9Xn2F+aq+Tnr61Uydu+NTvU+gfaPDaQAcWO86yfDPeO/aeYC0ZeCpl1Vrhi6dhHgJ59cDDzvsIGHcg5+AmfYE+vDYBuFc/OPIDzSz4h6Hz9rf11cx4B9njw0at7pPxUfu/sQTYEkzanM22XtScGBYSZD4HekZzlDRH6K8yIkCCDSABcnnw7NYh0AIfQwBPEg90LEme/TiA4ZEF2n31H+P/mvjMr7NeYW0RvVKS948vs4Bs+WO4AeS0BV9jAl3SB/iU13E2ijFiyO4aUu5B8J1LWb6I/h+H/ryUdZjWEl98IQgmIMClQZxJ4ioHmkszzXG6UFedgbQELmE4d0a51zahXJMOHBAOF0ifeflV1onne90/aIVIhO29e1jKGUiQucNfUCyFDBChh5L4lqz9t/SUydarUd5ufeCpksvwmQ+P0HxOT6IEFor5TFY5T2cwEkLxz96MZuu6IsCnJkhrtSVELi+prP1rVlb+bEsKiicfrHXCZfj0/0H4v6aCvLvEDfltPcHiIhS9aaUWrVMvQ+KvWBEH8GmXlbZSN/xLmGkTOX0Ln68C+KTpK7jrsejxoYETM/Ljjz8bCGGJvCC47KchSWLGwUBQt6ja7dMHUyd/lrtPDz6+FmJn/HVJ/6UQPTPbjWHcjaXknVqoa2E6Ma728TeCL/Wfus9kob+qrZvf1CzuH2nX0X94S8YDEyb1ZIggRM5tG3EhtFWHkafaAyeQwScQVyNC2Y9A/6rvBRmRt3iVIRx4VUoZUx/LcAAWOzyy5TCeiMUXC37wdxm+rv0f+qNJ4NMNc/+d4ioQ0kuomd/Ipg6Q/pny3pESYYGdl19CGGbFVoxBViyFL9JZF9quqAEDiLlxf9BeB79U+X/+xR19vocHQsJXJGlSB40H8C/wv9IP+X+jf0H5YvyrPf6f/gsOypqnViYp/kCvLX4sz8MPNNZsm43CUNfyblrlTFkb/amw2yi4tHrG/3nxHUr3q6/xBPyJ+e769WzjjdEemQQ1aGK28EiAfjGMnpd2YSIuawR8VzQHrX1L7eIByZvVSQkwXPft/xOmP2gV3LCiLXMJ+HwRur3+3Cf+MmjNyfHCaXwZBWJVZhkQKO1rwp13v5RM5UultYLnc+Ir9UT58U4gw7OENjhnld9PRes8HLM1+F+FtDX+A8D9x5DAk5F9eLS/hAw2HpZ++O2b+jJKS+1/9SXLPz9lB80ubnwL+uPqH+QwDwys7vumHiDuig+RpxgtbP3tSZ9yq9Fm901H42SObq8OPIzdkHH4tdt6HfqNFzTPKXtyeCE6FXEpHS7rP/QRn9aS/82v39DXLeCIsZB9qtdK3sbd5UylguqaQDGi1XNaXtEno9/R10RvSCfgOYWmaKtGwfkpQdjkv+5wf+HfV19A/y7sWgLf2KANpA2AJf+8RIJdHhCD/vmFoblImDIpvJLVCJiHipZwhTHMhEqgO+45Z56ayKn79haoQr9Jcn4JcDHdKzdPvMwrk1swjFGOECDvmRBEBqtyIACEApMHUdGAkYsFzGzjn/7wxslPv3/LSpd3nnHHotgeDJ/WvKD31SxY8pYGlrafCz5ub5Zi/aMmDy34jtAOEZKeXZE/NiNIZ3GTmzdPJTjUhrdvnbDfBHU+L+NGRR7Y/wfhH+LAumX527sibPABbmAE3kUyOzr4n755IJRBZxOdDljLrBn/3W++YOWJEGCRGa3w7TEhI/A3Nyb4RJC5owwe+SYQMSI4C6bKAp+dRK9dv3dy6961k7Ov8gQGgtROnflj4tDH8ij9VQxDEwkXqppr3zB8wAAombe8WyTNkMg2fGjKtHWp/8tiZwLdP/3wpZOfyHh4W4sJMWuaXUkxHtQ095+eGKThP17/DVatfRD9C5IWmDr3U8P3vpnxg8aYLAZt//p9CVi5Z7xGhCoD/0q51P8gBqGUAOYJqoN+0HwPPZG5Q+cI5r/kSSH4k7kYn8kDwbfteCPOT/7l3677SZmV9VRIvwUhV75Ust95iy/xYPxKiwb9kv0SPJGML5iEO+WBN5dy/SL+3+iftqoPj0J/hoFUVR/xqjGmTJj8px/ePPmRFBALR90W7/mpH45WAeOIg7p1KH82+LpFt/E68BBwV0/An8gNiuv7l1p9kNc0rHsCL+IFjDdINVGn2u11J/Rx0m3xG58e0p4fa8vub75xI59vrvH4AviP0v9D/nsQ/Rn/6jcemB9oCejrgs+nhrdlUDPxj4XOMGjXp+yg3+hR+9i3glV8kT9vqi/ZfO+lbGAl5YksgrehQvM/8lMeZPaqYGx4Ov+lPBZ8lfWJNrPaeDQkxRDYc8TnoMxvwMPh9R7Eq9+TsfMjGYJs/Mf9KeJxM1nSUMZT/QH+g/oPbTgs/UNNIkweHL4rjwyG5fpSh88x+fT0Axk/eL/t9R7I1AJpMG/B3mW1FY9S8HLz5PvqM54IdI15V5nh78vwWQ8E2cu8MSaissgZ8H+rNTOYkMnrcwDR7EP5h7z314N6KEYX8CCEx5cdlDF2H7n/qvt++vcy/T8O/Y0Hgt4qCAERUKALtOknigqALETj+/RwbnsgJ/tsQko1RrjzaKBHnskKcnXphG5SBcQGgnBTvS6r6i0JJp5IeWf1jfdZIZL3qlSYlbMgGc+EgtKpG4Gj0WJFwa+L4H4s4wECfFWEb+vMbYHMxOM6uBiHA/i0F22CVUld7ISJgOBJndcbf9C34EgIm0EQrhSmJ4op1UJbZwJPmjxpYIXzaSCLLfEedE0qU1PvC3/R+WX8C4yF46uymL8jBeP39Go676v5lAo3dBBNxdQN2Q1eSRJeYXQsbp6GvqOnoa+x1oHaFLe9UbjR+WX4U+kXjr9ABH8vMNfiuqqBjjSuGhOs+6/rCcyCirGlybQ1TXY+X1CHy9EDZbKIJ0l9MgHt+GeQLJAoQ1bCffrvCUvCAS7Df5BL+y15cfDm8FqIzcM87imd41Oif6QJX6AwZ+R1zRmhycwVAAdZ4vfEi/TwuSd0h1GR/iuPMsF/1lAk84NITcNcB6dUZqWoiMvolgFAE7oHVez072L+BJdJYNARE+P+/XfsEMkcJOUXDKACJx4hrxqhOMbNmdqZPQ/YMvqPquMOr2bcbrXDBS/Cp6pD+FyTzd3hgsD4OyX9T9r95I/aJhnhz/1EX9A0O8v+5K0bJ3//nZueac+kQWSKYQyudviB6nuKgi+HGX9eWdyScP7GG2zVfC6evqYdLvUgoX6G707lqcyaCtA6gRrxpKIMURLIgG+xAqIE/Wt6qkYRSo9BCtPHXf5dhr9jRXWr7V9W/kImKqxXMWd6uNLW4eofr3lfU/t+J6XFEzee1u0rBDcEetJYqrG0+VW9Uv6a+OdtfU7JBlZeR4OnXvLSddEDYJA1tzR59U2tt4DHADpi2W4UMkYX+DHWdQg9Cl9qDwYe8oin6dvyjuK1Ze0KNjvDRc9rXCgP3eL5XoLnAQP2wPfwKv5o+kcwRTOvyROAzsDQAR+sAfM7fabK11J8UXEP5E2DF/2zci1eBD4FRs7TTl6Fen0K9ff556KMMsZ7+8y+ukSnMZ8NL86nf3nJEztpB6+meZ2C1wYesvw7gI9h+oIc5G9AV5KleC/AE/MgNJyQiAnr0foP/t2xhb7P0f90PB34Avo7/ejdd6jNIezLqCgEhjtDl4AJIibZwJEX0FHu62LD3JSnHhOlVacH3PVQEY8oBJ2IIZgQpghRJpqxYhguewssZZg+O++INhH51CFkP68MNzSoMC/WIYQRA0K518wYgb0ffLfDbUCA6xNEJrtJWHz4sQZWbcHV5HLTf7qJkHT/FbdoVVuwUP2OShYu1jQMgBXPPIF0/uHwL+PfhCdmxqUGo9+RkP9A780Q9szRgPEfhn9EFJ4S5nkgUHnFw+6bngPhd2fTIbWOcBk+g7zSDvuvZG6l/64C+oiiQvnxhIag/VBMwS58MCRvW/zCR6iwQXAw/sAmLFi+2FCGSvly9IeQw9V6Q1uk4zoEB7yuws0M/Zk0h4SeBnz344D+AcVcEJYVhrb+TXMH/sf//ujkf2rfgP/1iz/5kzBm/i9BAqODJvofwt8xRLXMKbGxZvwo4yH/GXh6BeY9YirjcaQ+Ikm1YoFXcM2CL3uQuEc2Ad7huwgD6MinGufM5ZDgQ/gtIpmyya1KHgLf/UrGHRbXgDiA7wcX0TL0Be/RRrxIzGP5gYyG//KPr5z8/ds3vdQx74d5R+0nQjJfhn9J/gCOsPpK9zDwWMPgY2SAnqB5QmR3TngOVzMPDvA/Rn7ok4ceHob0RK12MQ+A30t6+n9B/LfwahR9AXw35lL/F2onGdR8jv8ujD8ZFWgbK+zyyokn6z+JH/miAtnK+H2mH/2gz/R/MQX9w0DjAYA+8ED2kuQqC1Th7QWtlINGVv/xoDFBmKdrzy8QzqB1r1RLi/kH1kTAHQ9Fpj0rc42pXKNMNmU+BQrew6c8X7b/6c9F+mchQaboM1+HBxtkK/IKOQX/2aBSO9PkkT9cIjbUIDyHeKf5sgMPDQ+aeCb8ZQVIJ1CeAIKG/pwkHPH6+U93tSiXxoHVMYEPH+GFNG4odwAfOcarKJb1Zv7Dy3hsJMfRNYgyHij86vqQ/+8Df8P/k6S/QwOCRlO3+0yctvkX1lLU18mXuxAeg0w5F1iFyOxg8tpQKFLYslk4Um4CRMsnf3xGhTHhz/+UlveiqmfBUH6Mh1UX8DHYEKYIjjVhiuyUIV9IaC9DMy/Dp2EMIff4FtyfIklY6F+N0GHg57TXxbXv6UQbGOw1uMDH4HlU+PfDP8jlSQglzNciMKq3xlU6TVvwVxNpDsHpyoEFi/XLExICjjZxuF//7wc/eAbS1KnosmKBeXn8wSFjiBD2qpTqPD4ccLjGjNo2+LQn1ac/c+22kE6DV+e2fHtdZKezKwuXBNLxYLA733MIJPXf25aTV/c2+GQmKPFJ9H8QnzpV6SH9ZSwRqve8SNH/0aI7//yvd07+uwyJX/zqE2/Ww1bICGIMCQiHGtxgpKgC/QqVuocBRxbddhaSD0LgU8uOM2qi/6Z3ykKguobXGE/HdXJVxj8XbsnAD0VrmH3tBybiRqDOB214GHyyT4UDf8rSlgvwBVsNpn/w+IsyCnmqZnnqn/7g5sl/+vEr9jxgtPOEidBNE9LntDZx6uX3sPEHH8gYnggx1Bgvv55RPA81qQsghhNg5n+UDF5VDBixm9M850FQadWjwCcT+ag2ZbgaWNybgWbML/OfCzl32kp5xhkCsQxRnzAoEGxL3nn8B4CHm/uj4JEZyDSUFQqfNt0PPnVg4Kna4AucgTwNsr0/asNh//1cJRhLdtvDKjjgzjBoguGBM1WqYDTTlUfsv3IaJt25TP88V/KpKfNakFX8kK0rmJS5NEJUj4ADn7ONH+TKjHXy5H4audVyAb5xoTqBw8ME59CZWkq/pn4iCz4PgbQdWBhvHgMhz14g3XnY+D+s/w+jf8OnLf49GP96DiUkQ5hODVsd8T2IbIZdPaJTBDVbMOTMVOv9RAniF3aVHoSSsERdCnI1JKi6RD20VClOV12sbCUcSejr3Q4Y1Z04r1XnAg4ojaJbxlnpXIFoExwdUDyfGJl1BmZa80D4qosWqapx/4vw1aD0f+CnS67vMnwlKmA1q4Q6kb/Hg+9+CL7+U51iFupc0z+5Fa8ZvZp/Qcum/6Y+w+dwgH9xdb7pV2vAi24/rP/3g5/+0yjdNQzqePD4UwdPL3z3jODxMKpEKCHjn/il8adxypWjog7kHBMM4HPz8vjfr/9r/Ol/6EIVCgdPu/8X8D+9DszA94wYCYCX9a78bT25oPRu4RJ9/c8n/6I19pnY6L0EmOei8WN5dZugnEGZz+BFnHEw/qBGg0yGnD1YykefZ+AoBe7AV9y0i9hIB89g20NtVDMexj/Sljp0k22cyWv4XJMe0jKNPhZ8Cqr8ahcxyFT/G3zuM0eH1j2n1yvgi3fAP9TnuP/5J6940t3X5dLlqcz7mNBf0EC7XDN1Ec9V4tP/gXQZPtmBZ6NFfX1Oc1iYKEm7wN0h/bmlELlBeIAsF4ETnnOMkm4NV455MNPTy/AP+/+4/HeIf8MXNHGAYT8nNzvekGuMvyZOeoVWtcfwp11pHa1Vl7hQO8E/7R6UKrbGX2kkSv47L0oVupSsOhcc36NkBkSVTT06m5i41j3gLx4FgyrCv8KSv8ovOIbv25+H7wKGc4n+nX/VFvjUixWAErWCFn1jKF1nbAGb7Iq4Zboc+lc6t9wflUGpu8Zt/Ln7YPgQN3SFkXQPXHkcVLvhUjbwwU5C4FunqJyK6Ag+iSDbVWLwr2QapsOD4R+O8+f0r8q6N6CaqtyAh+NfBkSaSkHH1yCpoxmtkArVrcGjZhrirrq4DspvRBqoMqgPlgTKTN3gVxRi4ZMsJKyfa/e1kYOiNHyTEuAUMi/c9fia0pmcyKURaVjJ/WXhu5OqgoEiDoRD+APa/XkwfBWma/TB5R+9/8A0ni/jXx1kojTEp0Y5HMInIfintfoFtNpJDxZ8MR18QA63jRg/Skz8QfDJEURM9RnvFFdZ1bfG32NIdR4+Wgx8FRZSge9qUEiJHZwV5UUxGbb+r1wZf93ZwqP0H2Tt/VdMys/hKfbfLX4I/dMChCXfgb+g3T95ouapOWt98MqFd56neqXBaohMdAN/CGMxM6g2roPv8EPGzk+5REHgBl9XyuR8h/znbMqsGx4vI51r/au46QNa8F0qJdHZBz5ZSXCy7guGBZArfiz4U8J1UJ/pbMYfQY2wvS73EXtbsBohxgJ7jPxYn+OyNfebmm/AJ5cxWtUmwtZ/enef/j/C+IfzZQS7ShTWCoEB/QmlWwg+SFj8Dx6/PPxBhGoL/o0XoAkEo7/wn0HIdZqj4336j6KUVqe4WJEMKhlkO56EB/EfWJyxVgUPhK977rEy80oHXKQk0cv8z/3DoEK0hwbO+HPxpPp/P/0DnWuIDM54HPgYjgv/NId+0P/DgClAcP9UD+ORvDreB/8LPnms3xQJ/7oaHe7ff/LHYF/5OD/++C/4ruUR6H/1/2H45034QasUn0s6FnT4OXfiTnQ/KbTheAqBzhAWg5KKOGJBgzCEH2cQHTtMCVNWkcS/AP5mtCv3s4Dv5oIGtfNZwgdbjwLfMmPhX2WeU6H/CP5X/x8V/pMe//9f4Gv01BXoXxO55I5nQhbvVdk9kEWHeNf5lRc/OfnXX3+sTYz0xvYzFp3RaywxEV5hePNw/D2qYtr8qdbhP3Iiy0wHus8yyigNCztd+0mGwXRbNFqL/5QS5acnb9UVDwb5lUHNRj4cwkcQ7/xPWVdKLQ+FvwG8BJ8+4qqFXr1gmd41v6EFkdjP4HuaDIvx8JZms/M57ov+2krqXPkXBp6U/GH+lHGlfni86BfDpuD+O5bOuv+Wb4Mn3ePOk5R/rvAQvkEfwB8MPGr/Vz53g8pTlbuYe1/Q/wfBH8uK2+6/anwS8v9J9391OPR60H/h+Cr036PiP+10oy7S34PwPwy44f8J6d/L+PcrDITBckmCNLfJabDjIi2bVHkCwkpDEPmWjqkg1pRuYTPGBOOW6jNjq4hSYUZChKejUxw7B1Ir/OJfdPE3Qn/wOa95bmqxjufwRHhyljwQmu3NjO3nxWcvao2FTzTJi10AmWTMBmZMWLzIf2FD2Gs4KEgEjxLmeC/Mf/CuwkP5jyx+TeFhyFjEDNj5/3PwgeGKBz4X+n0J+PIke/dcJvDxJQVfIX3rDX3Cpk8z+QSOnTW/r4WGWNOEPKzjkT4u+JU/lb/oK5Ff9c9T1b82IGKs7D6BWNwIqCVsLAc8IE7BKtfA2ALH0ky2uY8ZgLGwC5T4rUdkIVAsfPZChQ/qiv/1TP63Sn/MPD/T9+T+kkeuehQnqyve/vWfT977vTbt0Wdmp/p9pAXWWKUVbe71f3ZWEt+F/0haCt38xx3xHcx5X/7TPT41VQ7zNhljcqCMw//cM6h5/WSDZJ40ncn3F/+rbS6gA++t5O5/GHxKuT6gytXNWgx8NcN6DHwO+bbWZGB9FbZlJo17xhdzjQ76IZFzFgAAMIpJREFUTw8qfyp/q3+uRv/6FcaIDbsqYXq20MZtCcMjVDYDQFFkEHnMtDAu3KpEnnqIHgr/JajI62zcp4zF0KqMkqpQP8Ms/OL/b5T++FLmBSlkvo/nU8BrfIqs+Kt6nfHv7+vzZC1mdOOFT/S9+qlXfWThGX9WCHeJseCx+PDgJnhUPGXO1D14VIn34z9yM0/inPeDOmOEsKsgpQ/5Hz52Ha5bB4IZO1CIJsb50eHTTuYZsDoq39nfsvGk5dv1WudNbZP87a+xSNRLJ1/XgkZ/J6OKtVWYLOkJbAAaqDv86bfqdXtUt5tJTsUrf0CCfkMQlb8QkWgFnado9d/gQvRxyP/wjklGOFr6//TOz9/xujV2e4I9MxhMpuDrJIBix7aIc+wH1U6ly/7fy1JAwdA3NlaCMzPBN25RXxd+8W9qyeFvlP7oNnMd7mqJa77Zf19rovzmg7snrJbHyqi/1PnX7911OmuD3NW39iwh7QCHb7wU3nX6lfFf4LOnTKQM17RIjL5NnE2ahIWbyox91m1hNcLbr7JEcFZyZBEmPA4s1MNumq94DROMB2RN5I0r51D5U/lb/XPl+vf5zWbw9HgxpZgaWeOARaaIrY3R/TES5rbEAjY+f0kfwXD52gOrPBZiyIzUCzC/o6K6wjeii//Sn9jD8yLONKESLwRfHrCyH596skga+7ywuuFvNTfivT9+qsW6WO1PBocWCvLeA/AqLCXm9iStx+E/yrm0Dpf5HxvA99fxPvzvW1HuyAUHpXkq3ggWf66nuvx1hTwJ9O22lj1mQiRfWDBRkqWg2TnxDe1Rw0qBGBjMC6Hsal/kSOVP5W/1z7PSv/tKlJEJSA0kDy/RdkmiSzeQPDYkYGFlQOnr6cEPPUqhbObs+mJJm7k4OKm4X4/EWZobhT/4Lv5Lf+E/2BAjwIuaaeWfO1pc6kOtkPr+h5oP8YG8Eu//WZ6IT2VIfGoPxQd/+ExfbOizT60EyIx3WBm2IsC/CdCX/jWB6czrGpBRgfuOcl+RB/H/ZE8B8b8q5sFgfau18f88LHj6g2GnIFXztcT1F7U6qlYdZPddljr/rr6sYJ1/lk3+qr62uM08B3kcWO2PPQS8qqxe8VT+MFbgsvK3+ufZ618ZEP/VnI2LEWE1fC8ChU65PpAk5LQwyAlhEMGjpwIRNfn9xQV5uKefDQ/n4wLZFIEDExiWK+FW4Rf/pb8H8R+0wcZybD38p1kq+D2t2/9bvdr4jTYB+tV72gxIrzUwLP6oJcRZoveufqwE6v01xIywYfaVESNe4D+e5cXDgvEg+CqaMLztk/ma5BgQaPcsWLT43M8XmhSpeR3abOkai6DJ7XBDyyGzAyj7zHzttewd871vaI6DXlWw3THLA7+k5XpZHvhUiwkwR8IG0AbPosR2jkALWOVP5W/1z7PQv/FAIDX8SUVkBMcDXrWw2SSLPRB7vsPYyBYnrfjFM1epwOkLSOEX/6W/MN0w1GKNMJOuxCNe8lZfX7DE+1+0JsSfZUjc0bLXLDb1e3kePpBB8Zv373qjJF5tsK3ye9o06Y72JPDy8CrL/gfEYzCodjOirlhXGKATDuFHOaGklX3xv8ut3CqqNpHEbYIu5ZzUREfVy54V7KXA+havy7PwdzIS2LzodU2IvC1vw+u39KpCWyPfuqEvKzAy9DUKi0J5yV5gmjaIqOIF31AuHri9urDiF897BU5fnaz8qfyp/NmZZ/gIHnGQAf8g/b+9wrjIaCNgVgU6p47kynG4T8y3FltxdiQHbk2xckQKwkQxpS1+JZ+FEQkTCj/jt3AbDC7sFP+lP3hGPDSKmsnKf9VaDX/RBMq7n2mNCHkb2Lzsgz/c9X4a7+v8W3kj2KIYAwPDAc8FG/iwec9deTN4NcJcx8N1+cHzmq+wjAGo8BD/ciiYu5mPwD4raxdC5jRc0yIOz2uuwlo98oY8CTe1e+HrGA8yFr6qOQ4YEOy8e1ufYrKd8Ut6VXFT+Ww4qE6ALfrn8jL8xSPKaEFS+bO9OBI+Kn+rf65O//oVhtd0gBfFqQgpXCFm2jmaPLkPbToteYmTk+Z+/tEAIcAHYfsjgz8rw+BwuZSkhsJnclhwWfyX/h6V/2A+r0zJWbskZdfW7IZ4R8bCx/I8fKgJlh/pzG6Df7wjr8TvNYdC3gl2db3zsQwJfQr6sRanwrD4RMaI9vfxJj8jAszd5mAp9cX/VuqiV14xvKhlt7+iVxLXtUcFkyFf1WRIdn29KaPgtvb6uP2KPA8635Kh8PJNvb7QuhastolXwjs76kNy9iBg7Qvvq6PKkRoE5ATHyh8ewDQuQktwEllBHExV/oKJXc/oQqH65yr0rz/jhArxF5g8fZq4qTVxXJcMiTfw8FnX3NJvEXeo+2AwiU5VrGzHkwWXnlWhiD2Hk6fwB1E+TRzcDAKLfzABDc1KB4qW/kIei/+gGnYWZPtk1odgN1kMBLZx/lgbc7GF+Hv6JPT3MiDe1+uND2VUsKol28N/qFch7LnB56CfyS3BtvaeiLkYGPksK5dNffA6sDMje3jc0JoMGAN4D9jLg9cUr9w80xwHbQGN10HGw8syKL5ynW3k5bGQ0UE5Xk+wVwKrTi4QGtyJl/6Ni/L/RhyVf8cp/7ZXGBopB9OsGNm7g+Ui6eLpcwkQv4hQ3JMh8WsqcPQeF1gEBCfobKMQ0yA2su9xwEWpvCm9pTpS+EZQ8S/rAMW4AqRW+ns4/53LSMeoYmEX7PVzGRDn+gwCY4CtinmNYYPiL9oqXMbC3ZlgibHB5Ezy8NUERgUeDAyJFczqvJ7Qu2JeU1zXOwqWkWZNBuYryD6wJ+EFzWHI5mCZBMmmYCz6xIJYeBj4MaeByZaEwzH2dVJL/6X/C7RR/j9O+eelrNHknigV82AUfNS+bQI0vQTScq2Gx/Uk6EcfX9mgSIy8GAhyRGI2jvFgXQAc5Ia9EeSeigu/+IdmSn8xqs0/j89/Sxmf8mTPiwDvuKiLYTWMg7+KEe9hKCgN4+JcDH6OwSGFhfFB4MsNvBJ4Mw7nXUj3e/VHPqm8Jm8CRgRBDgnLAu4jE3iYOFMjTgWfa3jfm3vB58P/ER0ApEHA6fiX/ueh8kvSP7To4PLVP1ehf08/+m/vwLn6Z/BgaI5hetJ5mvG64sQlbPxJlRkeYcF9FeGsE7LBQshCQsk6Ryil7pCHMk+gjMba5Qu/+C/9wQxPh//sUZy6YcpAErjhX2lwpXGheRAy8G1UcAX/i9HJD6NiHGA2nMrr4DkLKmI+VxrLNMDv+fKb+9RGqdB2ain/CyUOxk0QtOEIjFX+Vv+YS+CnI9e/p3fefWfp+HC/STkMv9hfSRfukW4RZPeE7vn+CIrxOoQvdMToODAkXLOljFG0ik4dKbUETuFv0qX4N5VCGSG20l94y5qo/GdRYblR+WOBHMkRGqn8HfFp6SHJUf0jfftk9C9fvxqh9gQs4QwTun75HsggcyFPKDywaAB8T6aAzngkHEhTuQj4FHecpxc/2BjSlHHmVEvtGtDCB4vgBfwW/6U/6KH8V/kDHVT+ojjQINU/R6Z/P3r3Z5hkklWLSKX2/bSn0UKfTYhhoKy6jhdBboUpQzYGluAitjD2Op2Y286T6Lwa4Wbhb7i0+7L4N52EmFYUyir9wTvlP0RW5U/lr7hBuqb659npX+1cqkGw1hdDWjjN069Nf8QVP3R8hDeTqlyA+/w7Hc+DUpPVEWezIaFLVUlpg3FpxZPB5QtfSPEMEjBb/O/EBEGFqEp/5T9TQ+WPJaiFrRBS+QtfVP88K/2r+VG7gEZWx55DoRFTs/QCjRyePMnlGBLJgSGw8nKeAGFPlNv56CIuqNglTIrgXxAK35hCEICT4t8EJZyU/sp/CJzKH2Rp5W90TfVPHiRQGmjUZ61/pcmjsqzHxa/osRVMuErIoKm59iSsu26+lR4pGAP8O8SZ4ahXkeMGhgcn8ozRgMIs/OJ/I4mQiemGQ+kPVin/Vf6gNCp/q38iEyMgj0P/ZhIlLbIU10lnorEkxtpRotPmHvFlB8UCcoH0DqkvQwPpz2JRfALKhb8HJ42s3HRILb7ihn6FPziyJVf8hzZKf+Yb+CNsUv4bGVL5E0lqmQqz8Kv8NR6qf56+/t1eYZgMx8MQoS3VL+50fOiSUUGUo9ss0HRe911+pJt3z1P8nMkPUzb5pj4mQNlSUG3LG0HGwjc+jSu5bov/0t/ir5zLf5U/lb/VP8ejf8/unc/7BiQU0U1iKaJ/GNbGAgpeMZ6JMzdSN7EDcuG768DqdhRaCvCCGqB+z6okoroKP2gDHcV/6Q86ICAl9V/+q/yp/A1LwA3VP8elf+OBgEL5yQOweQTkGeDPSp4zUYKFWgRbZNwkHGRwdeSPA0KRnQViW+h66jM8F0j+wl+IKf5Lf9DC0MGQRfkv0gSzovIn1BHxuhNI5a9oBHRU/wgJhKenfz3FOR4CAdH/9pmmgY53QvHN0TBtGWdq2mZO5kael4iRPwqAVMWm3Mb4foWh+jXQhQ+1C0HgzC91QRa/4l9IUCj9Lf4xWQgj5T9LkrBJ5Q+Cw3wSCZzLyt8YVdU/T0//eo6jXzmgycE3XghHuFgDED5dwks3dCsiLMJdxKv/9USg5bttAfIKI3kFZtJcp5JtuVBA8cIHT8KF/ot/U1TwUfoz+0Ad/Mp/RkcOlT8ih1CGHzoUrfxFhLIxnFiFX/XP8MrT07/jgRjG1HZ6u+dgxJZOWaZDBgMKDiolzG2GzOm6PvOkSc38VNy5yMOQOoPq4Vo3GGTuz+2cyVr4xb9pZ1GHLvRf+oNTyn+VP5CBJWvlLyzBb/GF4tU/vLO5Wv1rDwTDQDjVh7YeE46mU4SWfh6k8UuMVUe+83nHRA6enON+34o6DV/DpMgiFAx+/gqD/ADVb0LhF/8hBx1Lf+KK8l/lT+Vv9Q9y4Dj173rJbhXOdt2W26PYiUO+fts4ip4CPAngQ8AYwCC2G2PZCa6ATPPz8+PUu1nPKq1885WnMiYUfvFv8in9mX/ARfmv8qfyV3Kx+sdK8tj07xgQS3FBqjEQaG3GjJXGCRJn+eeke7EYznRCyE0m3aCUcrjwqoFL4sBx7sScV8m+4lT4xhIIBh0+Fv+lPwghzAdp8Cv/Vf5ACZW/YEGScrzh1T9oDUkIK4+lQbgk/hT0b8QRQ4BY4j1EUuxmUEpEFffVgLTHZwwBl6IYheSWcJRLMnpASaGkznY5KKbXF3gaErifX+GDh+LfpAJxzLwZ6AcPV+mv/CciSNC58qfyt/oHfQpL6PCM9K/M+MWVNGQXUmkY9/IEzGA5HGT3OthbYp6JFmsfZufNPus7sGGUJ7q4szxBEA4qJD6Xhb9wU/xji5b+hjEO2KX8B48QQErlTyRqTKslR8FM5W/1z9PSv6a5KGue82zOhB0xauY6LJoJfs6LB0H/cSQoI7ucKKSexcrUhdHANTUtpyskfbHuwgcjxX/pD54xa9kBU/4LPoKTyh8kZ+UvSKj+ORb9awMiUxHkHaBVjI/OJlYfV5z0CDdmP9owcIJy8t0mBXyKBexSM9CbgZHKlW0XDCQVfhBT/ENEpb/y35I5ESockRiVP5W/lhDVP0ejf2VAhFlR6uh7M6msAz7JZP0G7uZTKt3MvzNlIMXV9i8rnwpS1u4y6lJ8LUuNgcA1ITAovSor/GCj+C/9hU+8fXX5r/Kn8rf658j17+mdn79zzyt3odDtVrCez8HXqLcRbBciTt4Pkv4xFLAoZJdsZcd0QDvMQlNbbbqlTSezcljhF/+lP9vVG1NtPLRxzEFky5VI+a/yBxHuJ7rK3+oflCu6++nq37NNZjOPAR0/8CyVeAoictAOt8k3SeYGTaSxHDMXgpTkm8qUzatRYkQorHIuQ1ESC9+IKP4hhgmlPzgrDLJYKSxkBC0+Kv8hRCp/Kn+rfyI5r07/ylSdwDwGBa8mibAaQeWTxsW3dYHBoaMz3Bulz7t78q0P7laOVQfZXY8PqQN2X/OmyR8AhV/8Q2Sih6EVn0p/5T8IAdKo/BEiKn8hhuofCUbxxLPUv/i6TJAslUk0TzOhUd7FuoW5lfkOipMW38SUUVlsPwbUFonzKCH9Cwgq91PCKq8yftwufBBU/A8tmU4gJsil9Ff+E12ENCp/ELKWrZW/1T8jG3ViXaVnpX9PP3r3HdkMoko+KqdNE6Z5uULRkwfi3Yh45dzP3F5VrPjF816B0xeQwi/+S3878wwfwSMO5b/Kn8rf6p9dfS7JcOFsnTopK37xvFfg9Cegf/MKQwLKzgABp2Ik2f5ug0tZvAAbIl55yOl7YzbYeIiPkRu5TUxpLu5jSntnzkQFtPCLf5NL6W+4pvwXegg6Kn8qf0UJ1T9W0MekfyWnpNyj682r5579uDmIJNATZwPNmAGc+U03RNkxN6aSmWXJFWWdc9LORkuSGve0ItRa+CDCofg3dZjGEiv9md/Kf0gK84jxUfkTXFT+iiowt0eJVP9sPHIV+vfsVAhnguRizlO+6VyMSro+vWRM+ALT7+l1D8E+cy7tmbCIxzp04EwdSrXBQGGSdM3PeeaaXIVf/Is+Sn/hjPJf5U/kp0Vm5W/1z1HrX3/GOaLLqt3Ggiw6ewXMy5buvocXgt6QfO53EFzPtIhtYX7dHVeT50ugGihw4H3wAlUqp3/f43audHR64Rf/EAc/EUQI5KT0B5uU/yCHyh+kp4JOnpZW+Rt8ICyqf6JOIYynrH8xCSyg1xNgZDZehnlJMXQKofq1wwhzXBJR9mnrvsOm6pOxYG/FeCCowj/KElnGx6YZ3E3dcFM0/oVf/Jf+YBXzy5zLfygHkKFQ+VP5KwaxXhE5VP9YWpg1rlL/soOTR+Fsmza5PAZSYWoTy1RiB5BtDRLXeb9CWtrMyV1wRGV1g9cTCfOZyaqIenXDKmIKFn5sObASj03xX/oTNZT/Kn8kIy0vYQiFyt/qn2PRv5oDYZr0U3/IlOWdVmKMALuOUfeiXDfct6Xo7CJJeYg6rqNQu4U/mlD/KUe+qXmsDqopfPAC6oxAxYr/0l/5L0xR+cNDWOWvJWT1zxHqX785s7cA/WXDQYaBZ0xyLVHudB1kERDVPpy2E8iLkbA2zHJR3IqOpKYYG8qHoWGjIWXjmVBhqvUtCQoiLlv4xb8Ixjq09Ff+Qy4gKCp/EJGVv9U/6F0E5FHo34/e/ZlGRKTphXxgUqn98RBEiNNYmkurldVxisjlPmW4A2ET3Df3cK9zivo+h+TM9uHAK/wdV8V/6a/8FwkRYRKxUflT+Vv9c3z6V19hiFmt9fMO3rMVuPajD4wcZt4Wg/I7B2XgPv8qzyYuWxH4XfecLaaSPwEll8Fwm3gyuHzhg7TiHyyU/sb7Uv4TNVT+VP5W/yAXj1X/ag7EPkDwayx9mkwMQ2HmWY5RwNNRSpBjDIXkpFCCMux58tEFdZEWuShl6TxKLXzjzIaccGKcO4VY8V/6K/9ZblT++KGs8rf6B34gHIP+lSaPyrIel75aby9ooBlXCSFaNVcPR6vx0/wtwf6F5WLIwzRV+NWGIWB4UD95xmhIZYW/oQT87Agu/k0qpb/yX/yXlT+buIUzJB8QGIoqVP4KFwhSQvVP8KAjUwuepv7NJErAgXzGYI2DNdlYe0r02Mw94ssO9JsIykPJEDM/T5pUXbIWMqNenaAO3XM9zpQyq0jhCx/gd3AcS6L4hz5AiulmcEO89GfMmF5AUflP+FjCpPLHuKj8rf552vp3e4VhGTQehghtgZbgjpgKb3JElGNbWKDrvO67PIkIecwSnc/5mkOBPMk39TEB05pStS1vBBkLf8eVXh0V/6W/xV85l/8qfyp/q3+sXq1Ul3xAfVopX7H+Pbt3Pv4eWkJ0tYhR0j8Mi12QgEDXnxN0EzsgFyuDz+ek8T8GyAU1QP0YFsvDUfjBHXgp/kt/0AGh/Ff5I1qo/K3+OWb9Gw8ELeQnvb55BOQZiJt4zptgS1aGNTLOVI7E04/AU5LycBkHBFf6JcS20PVkNzwX0P3CL/6XR6r0V/6zkKj8sRzexWvka+Vv9Y9owrRh9boTiNUpl1egfz3FOx4CgdX/PV4tDInus1GUg2TCnMeZmmtbEim3LGbyu3MuotiU2wwPv8LQI7c6WviMthAEzor/ITIIBpcMofS3+AcaIZT/LEnMM9EkICbSh1jlDzQSpYJ8XfRT+StsCC2Ws3pNDIqqf768/vEcC79yAJPUgxfAES74hUctt0Z4OVGjADE6t40B5XYVWhVCZx4keYWRvAIzaTNiUg1kJlEgTd1cK3fhF/+lPzECzMDPLGJOy8FJ5p3yX+UP1BFlaJIQxVT+Vv+IKiQ6rkL/jgdihNIZxIjYQnCFOTllmSgZDJZpEWrrNrmdrnxnnjSpma+uY6qgNmdQPVSp4tS/IBAh2aHwi3/TzqIOXei/9AeHlP8qfyADeEMBkuC36ELxyl989tU/V6l/7YGADAmn+tDaNMnRdIrQ0s9EOn6J8SqQ73zesZADz0Hc71tRp8UNHaK3o0JZT/0VBvkBCuSEwi/+Qw46lv7EFOW/yp/K3+of5MBx6t/1ktkanO26LbdHsROHfP3ebBQ9BXgSwIeAQYBBbDcGN1LAddkwcBmU4tS7Wc8qrbzzlWfyU7zwjcKFu6Cz+C/9iX/Kf5YTlT+Vv9U/x6N/x4BYhgOiOgQKt0ZmsdMFQeos/1ZyLNFBwplOGBmTSYUohXVAmVUDMeLAce7ExpuRdG4XvrGE5QA6fCz+S38QQvlvUMBJvFH5U/lb/fPM9a8Fk5U6bMl7iKTYzYDcMqvGDzEazZoNQ4DUOBVUSGYhNSRI9Vnqk+LnR1VKHvLLX7Eep1yCPK5J58IHJWCk+DcWQIQ9XDYtY1GRJByV/sp/lT+VvwhLyYrqn+gN0IGAvCL9KzN+SeUBPJchTC7yBIywcjjI7nWwt8Q8EyzRfpjdLzEYYFXqiT4ebJ4gCAcVEp/Lwl+4Kf7hhdLfMMYBu5T/4BECSKn8iUSNab3kKJip/NXjR/XPU9G/prkoa2Yy5KnP7IhRN9dh0Uzwc148CPqPI0EZ2eVGIfUsVqYujAauqWk5Han9Yt2FD0aK/9IfPGPWsgOq/Bd8BCeVP0jOyl+QUP1zLPrXBkSmIsg7QKsYH51NrD6uOOkRbsx+tGHgBOXkuxEK+BQL2KVmoDcDI5Ur2y4YSCr8IKb4h4hKf+W/JXMiVDgiMSp/Kn8tIap/jkb/yoAIs6LU0fdmUlkHfJLJ+g3czadUupl/Z8pAiqvtX1Y+FaSs3WXUpfhaFhsDgWtCYFB6VVb4wUbxX/oLn3j77vJf5U/lb/XPkevf0zs/f+eeV+5CodutYD2fg69RbyPYLkScvB8k/WMoYFHILtnKjumAdpiFprbadIvVRAsfc6r4L/3BEDtL7Ty0ccxB5CAf0fJf5Q8ixE90lb8771T/WFI8Jf17ttkMzGNAxw++DZSnICIItUnHSFghvgNu6aYKrg8OSUm+VUgpdlGk8CrnMhSlwsI3Ior/RV06l/7grDDIYqXy30YgS45U/iBEK3+rfzIX8Sr1r0zVCcxjUPBqkgirEVQ+qV2+rQsMDhpIhnuj9Hl3T771wd3K4cS5cD0+pA7Ifc2bJksAFH7xD5GJHoZWfCr9lf8gBEij8keIqPyt/jkO/YuvywTJUplEY82HRnkXa67Nrcx3gJHFyfFNTBmVxfbBoLBF4jxKUKKjVEPltpKJU15l/LjNTeZQTF3Ot7IXvjEY1BT/EJkJqvRX/hvZoBPrylT+VP5W/1y9/j396N13ZDNIKvNROTw5YdgzVyh68iC8NyG+cu5nbq8qVvziea/A6QtI4Rf/pb+deYaP4BGH8l/lT+Vv9c+uPpdkuHC2Tp2UFb943itw+hPQv3mFIQFlZ4CAUzGSbH+3waWe+AA2RLzykNP3xmyw8RAfIzdym5jSXNzHlPbOnIkKaOEX/yaX0t9wTfkv9BB0VP5U/ooSqn+soI9J/0pOSblH15tXzz37cXOQSqAnzgaaMQM485tuiLJjbkwlM8uSK8o656SdjZYkNa9HFKHWwgcRDsW/qcM0lljpz/xW/kNSmEeMj8qf4KLyV1SBuT1KpPpn45Gr0L9np0J49g/PAJzyTeViVEnwe/r0kjHhC0zPU9A9BPvMubRnwiIe69CBM3Uo1QYDhUnSNT/nmWtyFX7xL/pYyqH0V/6L/LDIqPyp/K3+QYUeqf71Z5xR6mh5FDr6ng2vdOGfpbvv4YUgA8nnfgfB9UyL2Bbm191xNXm+BKqBAgfeBy9QZTjKSnbddkUcC7/4L/2V/xAK/lX+jIA8qfyNgoAsqn/EFwSdPC3xGelfTAIz6noCDM/iZZiXFNNOGurXDmQgLMuYqH77DpskqKyNCDLHkUKe5ZDQ5xe6IkxlOhV+cMExK4AW/6aSRSo6l/7MKOac8t94RoUNSKTyZzEKCKn8rf6xwDR3QBn+oVyIPEH9yw5OrvRsmza5PAYyIQSMZSpR/GRbTMp1zALSdIN7+tG2RFRWN3g9kTCfWa2KqNdZJ6JT4ceWAzPx2BT/pT9RQ/mv8kfC0vIShlCo/K3+ORb9qzkQpkk/9YZMeYGxEmME2HUmEmZvCzfct6Xo8J1MgKjz6iLUbuE/7ydSjoxT81gdVFP44AXUGYGKFf+lv/JfmKLyh4ewyl9LyOqfI9S/fnNibwH6y4aDDAPP2OBaotzpGAUiZKVoH07bCeTFSFgbZrkorzUcSU0xNpQPQ8NGQ8rGM6HCVOtbEhREXLbwi39mDEEPpb/yH3SAoKj8QURW/lb/oHcRkEehfz9692caEZGmF/KBSaX2x0MQIU5jaS6tVlbHKSKX+5ThDoRNcN/cw73OKer7HJIz24cDr/B3XBX/pb/yXyREhEnERuVP5W/1z/HpX32FIWa11s87eM9W4NqPPjBymHlbDMrvHJSB+/yrPJuYbEXgd91ztphK/gSFXAbDbeLJ4PKFD9KKf7BQ+hvvS/lP1FD5U/lb/YNcPFb9qzkQ+wDBr7H0aTIxDIWZZzlGAU9HKUGOMRSSk0IJyrDnyaRP6iItclHK0nmUWvjGmQ054cQ4dwqx4r/0V/6z3Kj88UNZ5W/1D/xAOAb9K00elWU9Ln213l7QQDOuEkK0aq4ejlbjp/lbgv0Ly8WQh2mq8KsNQ8DwoH7yjNGQygp/Qwn42RFc/JtUSn/lv/gvK382cQtnSD4gMBRVqPwVLhCkhOqf4EFHphY8Tf2bSZSAA/mMwRoHa7Kx9pTosZl7xJcd6DcRlIeSIWZ+njSpumQtZEa9OkEduud6nCllVpHCFz7A7+A4lkTxD32AFNPN4IZ46c+YMb2AovKf8LGESeWPcVH5W/3ztPXv9grDMmg8DBHaAi3BHTEV3uSIKMe2sEDXed13eRIR8pglOp/zNYcCeZJv6mMCpjWlalveCDIW/o4rvToq/kt/i79yLv9V/lT+Vv9YvVqpLvmA+rRSvmL9e3bvfPw9tIToahGjpH8YFrsgAYGuPyfoJnZALlYGn89J438MkAtqgPoxLJaHo/CDO/BS/Jf+oANC+a/yR7RQ+Vv9c8z6Nx4IWshPen3zCMgzEDfxnDfBlqwMa2ScqRyJpx+BpyTl4TIOCK70S4htoevJbnguoPuFX/wvj1Tpr/xnIVH5Yzm8i9fI18rf6h/RhGnD6nUnEKtTLq9A/3qKdzwEAqv/e7xaGBLdZ6MoB8mEOY8zNde2JFJuWczkd+dcRLEptxkefoWhR251tPAZbSEInBX/Q2QQDC4ZQulv8Q80Qij/WZKYZ6JJQEykD7HKH2gkSgX5uuin8lfYEFosZ/WaGBRV/3x5/eM5Fn7lACapBy+AI1zwC49abo3wcqJGAWJ0bhsDyu0qtCqEzjxI8gojeQVm0mbEpBrITKJAmrq5Vu7CL/5Lf2IEmIGfWcScloOTzDvlv8ofqCPK0CQhiqn8rf4RVUh0XIX+HQ/ECKUziBGxheAKc3LKMlEyGCzTItTWbXI7XfnOPGlSM19dx1RBbc6geqhSxal/QSBCskPhF/+mnUUdutB/6Q8OKf9V/kAG8IYCJMFv0YXilb/47Kt/rlL/2gMBGRJO9aG1aZKj6RShpZ+JdPwS41Ug3/m8YyEHnoO437eiTosbOkRvR4WynvorDPIDFMgJhV/8hxx0LP2JKcp/lT+Vv9U/yIHj1L/rJbM1ONt1W26PYicO+fq92Sh6CvAkgA8BgwCD2G4MbqSA67Jh4DIoxal3s55VWnnnK8/kp3jhG4ULd0Fn8V/6E/+U/ywnKn8qf6t/jkf/jgGxDAdEdQgUbo3MYqcLgtRZ/q3kWKKDhDOdMDImkwpRCuuAMqsGYsSB49yJjTcj6dwufGMJywF0+Fj8l/4ghPLfoICTeKPyp/K3+ueZ618LJit12JL3EEmxmwG5ZVaNH2I0mjUbhgCpcSqokMxCakiQ6rPUJ8XPj6qUPOSXv2I9TrkEeVyTzoUPSsBI8W8sgAh7uGxaxqIiSTgq/ZX/Kn8qfxGWkhXVP9EboAMBeUX6V2b8ksoDeC5DmFzkCRhh5XCQ3etgb4l5Jlii/TC7X2IwwKrUE3082DxBEA4qJD6Xhb9wU/zDC6W/YYwDdin/wSMEkFL5E4ka03rJUTBT+avHj+qfp6J/TXNR1sxkyFOf2RGjbq7Dopng57x4EPQfR4IyssuNQupZrExdGA1cU9NyOlL7xboLH4wU/6U/eMasZQdU+S/4CE4qf5Cclb8gofrnWPSvDYhMRZB3gFYxPjqbWH1ccdIj3Jj9aMPACcrJdyMU8CkWsEvNQG8GRipXtl0wkFT4QUzxDxGV/sp/S+ZEqHBEYlT+VP5aQlT/HI3+lQERZkWpo+/NpLIO+CST9Ru4m0+pdDP/zpSBFFfbv6x8KkhZu8uoS/G1LDYGAteEwKD0qqzwg43iv/QXPvH23eW/yp/K3+qfI9e/p3d+/s49r9yFQrdbwXo+B1+j3kawXYg4eT9I+sdQwKKQXbKVHdMB7TALTW216RariRY+5lTxX/qDIXaW2nlo45iDyEE+ouW/yh9EiJ/oKn933qn+saR4Svr3bLMZmMeAjh98GyhPQUQQapOOkbBCfAfc0k0VXB8ckpJ8q5BS7KJI4VXOZShKhYVvRBT/i7p0Lv3BWWGQxUrlv41Alhyp/EGIVv5W/2Qu4lXqX5mqE5jHoODVJBFWI6h8Urt8WxcYHDSQDPdG6fPunnzrg7uVw4lz4Xp8SB2Q+5o3TZYAKPziHyITPQyt+FT6K/9BCJBG5Y8QUflb/XMc+hdflwmSpTKJxpoPjfIu1lybW5nvACOLk+ObmDIqi+2DQWGLxHmUoERHqYbKbSUTp7zK+HGbm8yhmLqcb2UvfGMwqCn+ITITVOmv/DeyQSfWlan8qfyt/rl6/Xv60bvvyGaQVOajcnhywrBnrlD05EF4b0J85dzP3F5VrPjF816B0xeQwi/+S3878wwfwSMO5b/Kn8rf6p9dfS7JcOFsnTopK37xvFfg9Cegf/MKQwLKzgABp2Ik2f5ug0s98QFsiHjlIafvjdlg4yE+Rm7kNjGlubiPKe2dORMV0MIv/k0upb/hmvJf6CHoqPyp/BUlVP9YQR+T/pWcknKPrjevnnv24+YglUBPnA00YwZw5jfdEGXH3JhKZpYlV5R1zkk7Gy1Jal6PKEKthQ8iHIp/U4dpLLHSn/mt/IekMI8YH5U/wUXlr6gCc3uUSPXPxiNXoX/PToXw7B+eATjlm8rFqJLg9/TpJWPCF5iep6B7CPaZc2nPhEU81qEDZ+pQqg0GCpOka37OM9fkKvziX/SxlEPpr/wX+WGRUflT+Vv9gwo9Uv3rzzij1NHyKHT0PRte6cI/S3ffwwtBBpLP/Q6C65kWsS3Mr7vjavJ8CVQDBQ68D16gynCUley67Yo4Fn7xX/or/yEU/Kv8GQF5UvkbBQFZVP+ILwg6eVriM9K/mARm1PUEGJ7FyzAvKaadNNSvHchAWJYxUf32HTZJUFkbEWSOI4U8yyGhzy90RZjKdCr84IJjVgAt/k0li1R0Lv2ZUcw55b/xjAobkEjlz2IUEFL5W/1jgWnugDL8Q7kQeYL6lx2cXOnZNm1yeQxkQggYy1Si+Mm2mJTrmAWk6Qb39KNtiaisbvB6ImE+s1oVUa+zTkSnwo8tB2bisSn+S3+ihvJf5Y+EpeUlDKFQ+Vv9cyz6V3MgTJN+6g2Z8gJjJcYIsOtMJMzeFm64b0vR4TuZAFHn1UWo3cJ/3k+kHBmn5rE6qKbwwQuoMwIVK/5Lf+W/MEXlDw9hlb+WkNU/R6h//ebE3gL0lw0HGQaescG1RLnTMQpEyErRPpy2E8iLkbA2zHJRXms4kppibCgfhoaNhpSNZ0KFqda3JCiIuGzhF//MGIIeSn/lP+gAQVH5g4is/K3+Qe8iII9C/3707s80IiJNL+QDk0rtj4cgQpzG0lxarayOU0Qu9ynDHQib4L65h3udU9T3OSRntg8HXuHvuCr+S3/lv0iICJOIjcqfyt/qn+PTv/oKQ8xqrZ938J6twLUffWDkMPO2GJTfOSgD9/lXeTYx2YrA77rnbDGV/AkKuQyG28STweULH6QV/2Ch9Dfel/KfqKHyp/K3+ge5eKz6V3Mg9gGCX2Pp02RiGAozz3KMAp6OUoIcYygkJ4USlGHPk0mf1EVa5KKUpfMotfCNMxtywolx7hRixX/pr/xnuVH544eyyt/qH/iBcAz6V5o8Kst6XPpqvb2ggWZcJYRo1Vw9HK3GT/O3BPsXloshD9NU4VcbhoDhQf3kGaMhlRX+hhLwsyO4+DeplP7Kf/FfVv5s4hbOkHxAYCiqUPkrXCBICdU/wYOOTC14mvo3kygBB/IZgzUO1mRj7SnRYzP3iC870G8iKA8lQ8z8PGlSdclayIx6dYI6dM/1OFPKrCKFL3yA38FxLIniH/oAKaabwQ3x0p8xY3oBReU/4WMJk8of46Lyt/rnaevf7RWGZdB4GCK0BVqCO2IqvMkRUY5tYYGu87rv8iQi5DFLdD7naw4F8iTf1McETGtK1ba8EWQs/B1XenVU/Jf+Fn/lXP6r/Kn8rf6xerVSXfIB9WmlfMX69+ze+fh7aAnR1SJGSf8wLHZBAgJdf07QTeyAXKwMPp+Txv8YIBfUAPVjWCwPR+EHd+Cl+C/9QQeE8l/lj2ih8rf655j1bzwQtJCf9PrmEZBnIG7iOW+CLVkZ1sg4UzkSTz8CT0nKw2UcEFzplxDbQteT3fBcQPcLv/hfHqnSX/nPQqLyx3J4F6+Rr5W/1T+iCdOG1etOIFanXF6B/vUU73gIBFb/93i1MCS6z0ZRDpIJcx5naq5tSaTcspjJ7865iGJTbjM8/ApDj9zqaOEz2kIQOCv+h8ggGFwyhNLf4h9ohFD+syQxz0STgJhIH2KVP9BIlAryddFP5a+wIbRYzuo1MSiq/vny+sdzLPzKAUxSD14AR7jgFx613Brh5USNAsTo3DYGlNtVaFUInXmQ5BVG8grMpM2ISTWQmUSBNHVzrdyFX/yX/sQIMAM/s4g5LQcnmXfKf5U/UEeUoUlCFFP5W/0jqpDouAr9Ox6IEUpnECNiC8EV5uSUZaJkMFimRait2+R2uvKdedKkZr66jqmC2pxB9VClilP/gkCEZIfCL/5NO4s6dKH/0h8cUv6r/IEM4A0FSILfogvFK3/x2Vf/XKX+tQcCMiSc6kNr0yRH0ylCSz8T6fglxqtAvvN5x0IOPAdxv29FnRY3dIjejgplPfVXGOQHKJATCr/4DznoWPoTU5T/Kn8qf6t/kAPHqX/XS2ZrcLbrttwexU4c8vV7s1H0FOBJAB8CBgEGsd0Y3EgB12XDwGVQilPvZj2rtPLOV57JT/HCNwoX7oLO4r/0J/4p/1lOVP5U/lb/HI/+HQNiGQ6I6hAo3BqZxU4XBKmz/FvJsUQHCWc6YWRMJhWiFNYBZVYNxIgDx7kTG29G0rld+MYSlgPo8LH4L/1BCOW/QQEn8UblT+Vv9c8z178WTFbqsCXvIZJiNwNyy6waP8RoNGs2DAFS41RQIZmF1JAg1WepT4qfH1Upecgvf8V6nHIJ8rgmnQsflICR4t9YABH2cNm0jEVFknBU+iv/Vf5U/iIsJSuqf6I3QAcC8or0r8z4JZUH8FyGMLnIEzDCyuEgu9fB3hLzTLBE+2F2v8RggFWpJ/p4sHmCIBxUSHwuC3/hpviHF0p/wxgH7FL+g0cIIKXyJxI1pvWSo2Cm8lePH9U/T0X/muairJnJkKc+syNG3VyHRTPBz3nxIOg/jgRlZJcbhdSzWJm6MBq4pqbldKT2i3UXPhgp/kt/8IxZyw6o8l/wEZxU/iA5K39BQvXPsehfGxCZiiDvAK1ifHQ2sfq44qRHuDH70YaBE5ST70Yo4FMsYJeagd4MjFSubLtgIKnwg5jiHyIq/ZX/lsyJUOGIxKj8qfy1hKj+ORr9KwMizIpSR9+bSWUd8Ekm6zdwN59S6Wb+nSkDKa62f1n5VJCydpdRl+JrWWwMBK4JgUHpVVnhBxvFf+kvfOLtu8t/lT+Vv9U/R65//x+lcLQdljOTpQAAAABJRU5ErkJggg==;clipPath=inset(23.85% 1.67% 24.87% 3.33%);" vertex="1" parent="1">
          <mxGeometry x="50" y="310" width="157.5" height="55.26" as="geometry" />
        </mxCell>
        <mxCell id="PqfnIOR5tWagAkAa2jEj-12" style="edgeStyle=orthogonalEdgeStyle;rounded=0;orthogonalLoop=1;jettySize=auto;html=1;exitX=1;exitY=0.5;exitDx=0;exitDy=0;entryX=0;entryY=0.5;entryDx=0;entryDy=0;" edge="1" parent="1" source="PqfnIOR5tWagAkAa2jEj-3" target="PqfnIOR5tWagAkAa2jEj-7">
          <mxGeometry relative="1" as="geometry" />
        </mxCell>
        <mxCell id="PqfnIOR5tWagAkAa2jEj-3" value="Lakehouse" style="shape=image;verticalLabelPosition=bottom;labelBackgroundColor=default;verticalAlign=top;aspect=fixed;imageAspect=0;image=data:image/png,iVBORw0KGgoAAAANSUhEUgAAAQAAAAEACAYAAABccqhmAAAABmJLR0QA/wD/AP+gvaeTAAAgAElEQVR4nO2deXwcxZ32nxkdI41sSZZkHZZt2Vg2tkViiB0ImGwS8nKFI9gkQBKcZRc7YQMJOchyJIHlfTdcyZIsBNYYE64kBEM4DGtInGOTjS0fYHCIbUm2LNmSdWtG59zT/f4h9ai75+q7q3rq+/lYnumprq6pruepo3/dAzAYDAaDwWAwGAwGg8FgMBgMBoPBYDAYDAaDwWAwGAwGg8FgMBgMBoPBYDAYDAaDwWAwGAwGg8EgDZfdBbCa9vb2sng8vikcDl8cjUaXRyKRinA4XBSLxdwcx9ldvIzwPO+4Y9nxndxuN/Lz87nCwsJQQUGBz+PxHCkqKnrb5XI9uXz58nHLCkQAOWEAXV1dFePj4w8FAoErxsbGquPxuN1FyggTuj3HcrvdmD179oDX632toKDgzqamJp/BRSMORxtAe3v7mvHx8S0jIyNnRqNR4r4rDaIg+VhmHic/P5+fM2fOe16vd9PKlSsPmHYgmyFOFEbQ0dGxaHR09NXh4eEzSRnWO0EUdh3Lzu/kdrtRWVl5wOv1rmtqajppWUEswnEG0Nra+khfX9/NkUjEnS5NUVERysvLUVpailmzZsHj8aCwsBB5eXlWFjWBngauVxxa9lezjxFpU23Xky/HcYhEIgiFQggEAhgfH8fIyAjC4XDaPAoKCrjq6upHV61a9U3FB6YAxxjA8ePHa/x+/z6fz7cw1ecFBQWoq6tDTU0NZs+ebXXxTO3FrDYBs9LzPG+KuShNNzY2hsHBQfT39yMWi6VMU1FR0VlVVXVOY2PjgOKCEowjDKCjo+MTPT09vw0EAh75Zx6PBw0NDairq7Okh7dyuGrksa00gWz7Gi1stXnG43H09/eju7s75aiguLg4XF1dfWFTU9P/Ki4AoVBvAK2trdf19/f/MhwOS4b8brcbDQ0NWLhwIdxuN1wuY7+qnULPBCkmoGfYbucoQJwuHo+jq6sL3d3dkK8lFRYWcvPmzbuuqanpJcWFJRCqDaC1tfW63t7eX8lX+L1eL8444wyUlJQAgC7xZ2s4WvM220C05q92PzWLrFavHRiVbmJiAi0tLQgEApLtBQUFfH19/XVNTU3blJWUPKg1gI6Ojk90dXX9Ud7zV1dXY/ny5YnhvhKBqm30Ro8mtJTBzDzV9t60CltNOo7j0NLSgqGhIcn26ZHAJ2mdDlBpAMePH6/p7e09EQgEPOKTtWDBAjQ2NiYEKheqHpGZIfp0GGkGWgVn5poAbVMB8bb29nb09PRItnm93tDChQsbaFwYTHupjGR8Pt++ycnJJPEvXboULpcrcfKEVWW1q8tiXC6XpeIXH9OI46bKQ14vqerH6u+cChLKIMblcqGxsRF1dXWSOgsEAkUDAwN7bS6eJqgzgNbW1kfkl/qqq6uxZMmSxEkxSjgkNEA95ZALW48RZkNNGc1Ia2W6xsZGVFVVSbb5fL5F77///sOKMicI+1u4Cjo6OhadOHGiXRzkU1JSgtWrV6ua82eCBNFnwuigGDvTkzTHV5suHo/jwIEDkoXBwsJCrqampmHVqlXdig5AAFSNAEZHR18Vi9/tdqOpqcmw6/ski1/ce+uZ2qj9jiTUCYmjgLy8PKxYsQJu94yEwuGwOxgMvqYoc0KgxgDa29vXDA0NnQnMCGDhwoWJS32AvsZKQkMHlM/Prfyudg/vSWXWrFmor6+XnKPh4eHVbW1tZ9pcNMVQYwBjY2Nb4vF4oqKLiorQ0NCQ+Jw28SsRejacYAJG52l1ukWLFsHjmQlA5TgOPp9vq6LMCYAKA+jp6any+/0SV21oaJAMv7RipvjTidzIhTg9owESTID2UYDb7cbChdLbT0ZGRj7S3t5eZlORVEGFAYyMjNwvjvYTbuwRsEoA6TBb5Eqwuw70QGrvrjRdbW0t8vPzE++j0ahrZGTkPkWZ2wwVBjA+Pn6l+H1dXZ3u3l9Lw1czP1fyz2isELPdUwESycvLQ21traRNTE5Orre7XEog3gDa29vLxsbGqoEZAdbU1CQ+19LIsu2jpkfXI2ozDEFrOcxMb2SedqXLRnV1teT9xMREzcGDB0vSJCcG4g0gHo9vki/+6bmfXzjheufnZvTiRhuBmentztdqskVUzp49W7IYGIvFXPF4/EYry6gF4g0gGAxeLH4/Z86cxGulN/oYOT+3IkLQzDBgo9LTHs2nJp3SNlRWJl33i8Vin1FUABsh3gDC4fBy8fvS0tKU6cyOb7fzngC9eZiV3im9O6BsRJjt+5aWlkr2C4fDK8wut17ysyexl2g0WiF+7/V6NfXgtMUJpDq+nhuarL4qobUMZqczsx68Xq/kfSQSqTTtYAZBvAGEQqEi8UkrLi4GYJ0o7Ra/GD1GoMYEzEprJWpFb8T3ENqmQDQaLdKVoQUQPwWIx+OSMhYUFKjOg+Zr5Kmw4vvQMsc3e+qnpmyFhYWS99Fo1J7HTKuA+BGA/Fd8jIj+UwKp4hewouclpXe3qgx6v6+4bfI8r+pxaXZB/AhAjtqFMTPiBEjBimv+RuebKZ28B1dyxcaOc5XumOIRCUDug2PFED8CEGNFhdIifjFqey675/h2CIOU0QxpEG8A7KQpgwQTEKfLlN7olX4jyTWjoG4KoAZShsdWYUf5aboRyqrFQJogfgQgx+45LOmYObwn4To+qdA07xdDnQEwsqPHBGhrwAJGGkWmvJxQV2KINwA90W9mpHUC8jo1cy3AiHRGovSYpJbfaIg3AIY2XC6X4uvQpDdks8pnxEIl7TADcACZnlVAeu9uxdBd64hHD7SYR84bAC3Df5pvBDICJd9D6RUIM02HtrqmygDU9Ga0YmcDIrl3F7Cyfpxinpkg3gCcegJYQ54hVfmUDOWV5sVID/EGYCZWjBRIaYyk9u5qrp9bdanPzrysJqcNwChoPflWIL9BxunQ9j2ZAaiAtpMrx66n7bDenVyINwA7Kt/JJ9wI7HjaDul50QrxBmAWuXri1fTuNDzQwk7siC8wGscbQKYgGcYUehouqT2y0b272rxoMQPHGAAtFW4XWnorUgVpR2iwlXlYCVUGkEuryVph9ZMZrfEFToV4A8jlk5MJvfVCao9sR3yBUdA4rSTeAHIZEsyPRHGLsaqOnHrFgBkAATixYRmJnvgCqyGxTJlgBmAhpDUO0np3ux6r5dTeXQnEGwCNJ4bGMmfC6ktqpBmTkyHeAEiFNarssDoiH2YAWXB6I9bbQ9r5MAyre3cznqJsNzlrADzPSy7b0HCy7MTp9+IbZYS0fX+qDMCoRSZGejKFTpPc21oFiWXSA/EGoKXCnXaSjMYJN7GoQYuZOL1OBIg3gExkOkk0RmUZjZpnKOZq727nGgYJUGcAuXiSsqGlTkYn4+gdiQMAasvzUOal82cijXxasBHHo619UmkAudq7621csTiP1/ZO4JW94zjaE5Hkt2xeAdZ/bDY+e/Zs5Odpr187e3faxEcCxBuAmSeVRDMx6/v2+GL47rMDaOuJpDgOj7aeCB54ZRiv7hnHQ/9Yg3kV5DYNs9YwSJqaWAWd4z4HIAxL5f/MoL0vik2P96YVv6hQaD0Vxj8/egqtp8KmlEUp4stqVtRRruJYAyCloVgp9FQcaA9h42O9GBiNJ8ojKp24oImXw+MxbHq8B3vagpK8zBgtWVU/doz0SGmDmaDSAEir2HSN2O5y/vlQEN94qh8TIS5RzhlSix/gwQMIhDl8a2sPfvf+hCFlSVUvdtePGZBy7pVClQGYUalqQztJE3k6tu+fwO3PDSAcTSW2zOIXtkfjPL73iz788s8jio9LUx1phbR1Iz2Qu9Izjd7wTC0ni/YG++yfRvGzHf7Eey3iF+/7k+2D8E3EcMtnqlLkZz+5uHhnFMQbgJmIh6JOcHWOAx581YdX9owltukRvzj9s3/wYWg0iu9fU408N/11xZiCWgNQKtpc6RkiMR53/2oQf/ggkNhmlPjBT6V5851xjAU53Hd9DTwFVM0eFWPk3ZE04JizSOpCnBWMBzncsqXfVPEL2/9yaAI3/dcpjEzGDSg5w26oMIBM4jZK5LQaxdBYDF/d3If3OkKJbWaJX+DvJ0L46uPd6B+J6Sk6gwCINwAnxV0bCc/z6OiP4IZHe3F0OsBH2C5KJd5Bsl2r+Kde8jjeF8Y//edJHO2xN2CIoQ/iDcAIlBoFiYaSbsRzqCuMr27uR/9IXJJWtKc4E8l27eLnJe8Hx6L4yuMn8X6HNGDISGhenCWxPcmh3gBoqORsqJ3a7Dsawi1bBuCfsFr8klKDBzAe4HDz5i786QNjAobMxAozoW3tiXoDUAoJowAj1i/++91JfPPnA5gMz/xyr13iF/6Eoxxuf/YUXt2jPGCIdmgemYgh/jIgLU4qxqwy//qv4/jJGz6JHu0WvwDHcbjvpV4MjkSx6eKq7F+GQQTEG4AS1MQEGJXOSmPieeDRHX784s9jsu1kiF94zXPAlt8Owj8Zw23rasHihcjHEQZgBoIJ2D0CicZ5/N8Xffit7KYc0sQvbOcBbPurH4OjUfz79fWODRhKh93tRS2OOTt65/gkBhEFwhxue2aQKvELG/70wThufbIrcSei0yGhvWiBCgMwOuBHqdDtPKG+CQ43bR5Ac6v0EhsN4hf+e+foBDY+chwDo1E4BRI7Cj0QbwBqb9cV/s90orTkaSU9vhg2Pd6HFtlTeWgSv/D6WG8Ymx7twIkBbQFDdonLaUJPB/EGkAk9J4lUEzjWF8XGx/vRNSTtNWkUv7Dh1HAEGx/twJEu8wKGtGKm0GkwDOoMgORhu17ebQ9j0+P9GBqTxtjTLH4he994FF/5WQeaW6wPGDLzHpJMx6IB6gzASEgaBfzp74GpAJ+Q+C47eUOiU/zC60A4jm9t7cDbB0ZMFx9tQrQL4g2ApOG9WY3ppd0TuPP5IYSj4hVzXqZNusUvbI/GeHz/uZN4/o9D0AoTunGwOACVKA0mUpYXsPX3o3hy5yjkQnGi+IX/eAD/ub0H/SMRfGfdPKSqTi0Ltgz1UGcARkf9qU2rJX0qOA544FUfXts7gVwSv/h4L/xlCKOBGO6+br6uXyMiCdoMi/gpgB7MHN7rOdGhCI/bnh0kQPw87BK/8HrHfj9u3dKBQDg3AoZIgwoD0HMdX+1xzEwPAGMBDl/fOoC/HgnCfvHDVvELb/a2juNfHmuHf8LcJwzR1jtbAfEGoPekmX3S1SxADY3FcdPmfhzsDIOJX5ru0MkANj1yFH3+macbMcyHeANIB2kr/dn26+iP4p8e7cOxviiY+FOUETw6+8P4x4ePou1UcDpfZeeCpGhBEsqlBmoNACBnKpBtvw9OhPHVzQPoH40jt8TPJ+eVRvzCR0NjEXzl0aM40E7OE4bU3j9C02VJqg1ADVYt8slP/l8OB/G1LQPTj9HONfFDlfiFv+PBOG5+/Bh+/761TxjKxfgC4g0g28kgdaWf53m8+c4Ebn9uaPr3+Zj4k8qYQvzC9kiUw/ee7cRvdmkPGEpHLgo9HcQbgBJINIHn/mcM/+8lH+IcE79a8Qtv4xyH+7edxCPbT0EtVsb/0wx1gUBGYGbgD8cBP97ux2+ahTlsOsEmfybenuviF3/67B/64J+I4vvXNST9LiFpoiapLEpwjAEYGaKrNf9IjMe923z4/UHhJ7qY+JPKKBkBZRe/sH37nmGMTsbwwy8vRlGh/QNX2oSeDvtrUgFKh29mX+7LtE8gzOE7zwwx8QuvDBS/sP3PH4zg1ieOYSKU7vcQGGoh3gDMPMFaTUC+3/AEh5ueGMS+o8Lv8zHxJ5VRp/gF3j02hht/0oL+EXUBQ6THFNgF8QagFqsv93UPR/GVx/vRekpokJkEy8SvR/zC9mO9Qdz40xacGAiBZGgwE8cZAGCsCWRaTT7SHcHGxwbQPSzEsCsQ7PRnojdM/CrEL2zp9YVxw8NHcLCDnIAhQNpeaMCRBgCoNwGO41RdMtp7NIybnxyCf1K4i42JP6mMJolfeDUWiOHmx1rRfGQUJECL6MUQbwB6ruGmCxxKJ3Sl+X9wIoLbnx8W3cLqHPHziezJFv/USx6hCIfbth7D3ywaCTgtvoB4A5CjpKL1nKRsacIxHv+2zT8d3QcoEyyoEX+2fKSf2it+gXA0jnt+cRyRWOpnCuhZ7HWCyDNBnQEAMydUyUky+nLfb98LosenYs6fTmjT+8gSZskrnfj5pGOIj+1k8QvbTw6GsGOf+rBhcbsRTwP1QJNhUGcAWirXSBP4/d+EZ9uTJH4kfZZL4hfqYed7PqTDyB4926IxTVARCZhuLm/2c/yE44r3m/q1Hib+pDLaLH4AaOmeTNtWGKkhfgRgpNsa4fiSH7tk4p/Jy2bxA8DoZPJvEDLxZ4Z4A8iG1SaQ2N0G8fNIbvSSfUwT//SRCRa/tBwMpVAxBciGFdMBYb/pF7aIP3m7aB9TxS9OSqb49WLUSIG2EQf1IwCtaD5RTPwzeZEmfsrERwLEjwDU3MShZZFP7chBlfjTCW0qMyZ+ifhl388A8ZvRG9PWw2eDeANQg1EmkP0kM/Gn2m63+J0lTWtwlAEA6kxAHFCk3DiY+FNtJ0P82ixAT69O+2VHxxkAkCxoNSHAio2AiX/mNYHiN1KE4ryy5UuT+AFKDEBLDL+elf6s+8mPlUGA4n2Y+Mnq+eU4TdxKIN4A9MT2m2ICTPwzr0kTv4oF40zvcwniDUAvZo4EmPhT5EWA+NXE+eey+AEKDcCKy33i/YDU6wJM/Cnyokz8ZkCboVAZCGT0Lb5q980qfh46xc9L82LiVyT+qXKbI0DahK0U4kcA6SreypGAuByKxJ9KsFOZSNKnF7/4JRO/UvGrxamiVgOVIwABq0cCM5kk/og3MPHL0pMsfsYUVBsAYIMJMPETK35SenSanghE/BRACUY97CNTOtGW5NfUiT/5O+Wa+M16ohQNohdDjQEoCdLQc7lP/Ylj4qdV/IwZiDcAowN/jHi8GBN/6vS0iJ9dKZiBeANQi9YeXfm9AFnEn06wUwdJzkdLXkz805uTv5PR0ChqNVBtAEZeIlS1LxO/JH2y+HnZIekUvxZoMwzqrgIoXWE1+hbPmQ+n/jDxEyh+BaecNoGaDfEjAL1C1hv4k7w/Ez+54jdW3E5e/RegbgSgFr0nJjkMWPaKiT9FPrK8CBE/rSI1E+JHAHLMvOavfH8mfnvFn1yf8hLpxbQpJGFQOQIw4gc+tO/PxE+u+NOfXzNFqeaJQaRBjQHIF/7sMoGpTBJ/EhuY+GV5ESR+RnqIN4BMK/62mEAmwTLx2yv+NKfVzDBh2qFuDUCOKQ/7yNgAVAh2KjPZFiZ+88RvvXBpNwvqDQDQZwLaLxUy8SflRaD4ze79aX++oCMMAMhsAkqDhtT8NgATvywvB4g/HUZPQUmCeANQ83BHPYE/Qh5K7gVg4pflRYz49QmS47jsiRwG8QYgx/jeXN3+5ImfFx82+bMcFX+mduKEntsoqDMApZg2GmDiFxWFMPHLdG1mKK9TDMaxBgAYYwKAfDSgRLCpPxM2MPGbI34e9j+KiybxAxQZgJ5r/npMQHzslEaQE+KXfTNCxZ+cpzJyOU6AeAMworL1rgsklyV3xX9abREWVRcBADr7gzjeF4S4QPK8ltQWY3FtMVwuF473TqK9NzCdPLX4F84tTuTf3hdA91BQlCR5n/lVU/kDwLGeSTDUQbwByDH9YR/ZcxH9lzviX3XaLPzr5xqwrN4LMUd7Avjxy5149+iYJK+zlszGdz+3OCl926lJ/Oil4zhwbExyjLOWlOLb6xdj+YISSfoPOsfx8MvH8UHnmGgrjzOXlOE7Vy/BioWzZray3l81xIcCp8L2O7VyTPz/56wKPHHL8iQxA0BjXTEeu3k5Ll5dmdjnoo9UYfMtK7F0XnFiTi78WzrPi//6ehMuWVOVSH/x6rnY/PUzksQPAB9aNBtPfutDuODMqkS5Ll5TjSe+8WHLxa80T6UPrSEB6kYAAuY87EPJzok/OSH+2goP7vnSYuTlSetK3LjdLuD7X1iMQycn4HYB93zpNLgzdC15bhd+8MVGHDoxARd43HP90ozp8/PcuPfLp6O1axwuF3D3l5ZJymOV0GgQtFqIN4Bsl1vMD/xJ2kv0V/TKgeLnAWz4VA2KCtzTZeAR5zjsbxuHC8CaZbPhnq4/T4Ebt1yxAC4AhfkzdcrxPPa3joEHj7NPL5Ok/8ZnGwAABXmQpH+nbRQAsGbZTPriQjduvnJxYl+BOMdhb4sfbpcLHz29PJE+G2b1/rRBvAFkw+zAn5T7yF85TPyF+S6sX1uNS1ZXYPkCryRC7v4XO/F68yAA4Krz5uKuaxcnPrtgVQXk3Pfr43htdz8AYN3aGnzvuiWJzz61qjJJNPf9uh2v7eoDwGP92jrc9YXGxGcXrZ6bnP8LR/Harl4APNatrcP3vnh6UhojoPme/0xQuQaQCqMf/ZU2nfgVj5SipVn8c8sK8PS3V+Lb6xZgxQIvxLZ4cjCEN/cOJVJv3zOItlPpV95buibwxp6BxPvtzf2J9KnmyC3dk9i+uz9Rlteb+9DWPZE2/yMnx7F9d18i/fbmPpwaDqVNn/imCs61fC6vZl5P0xqAYwwAMMYEsucxrfo0QqNZ/AX5bvzkK41orCtKqodYnMeD2zoR5xJX3BHneNz59DEMj0chp98fwR1PtyHOCflMpb/jqRYMjoZTpA/jjq1HwPEzo404x+GOnx/B8FgkRfoQ7th6SJI+xnF44NdtiMXTn8NUd+9lE7mZEYV2Q40BqHFf04/lQPEDwFXnVmHpPOlKP8fzeK99HF97rAX728aS8jo5EMT1D/0NO/YPIhCOYzwYw2vNA9jwo4PoHhR6Y2n6Lz90UJp+dx+uf/D9mWv+on1O9Adx/YMHsGNfPwKhOCaCMby6qwfXP/CuJL1gS7sPDeNrj7yH946NgJMN2zmOo26V3myIXwPQc3nHiMCfpDwcKn4ewKWrpXP4P/3Nj/u3dWJkuodPymu6oEOjUdzz/DHRV0pRB6Ltg6MR3P1cG5TVA4+BkTB+8GxL2vS8bPu7R0ew8eEDKC/Jx79euwwXra6BVpxuEtSMALRg3mjAeeIHz2PJvOKZbTzSin9+VRHOX1mWXHbpF0hsv2BVJf6haU6q1Cnr4YIzq/DxMyqSy54iPQ8en1xVhfrKoqT0I5NR/PsvWxCLa+vtnS5+gIIRgF6Mif4TNwazxZ/CbCwQvxyXC3CJizv9d+3Kctz9xdNQVpKPrW+fwjM7uxGLpxZ/YYEbN148HzdcWA+eB558qwvP7DyFWDyesh4KC1zYeEkDbrhoAXge2LLjBJ75XVfa9Pn5wKZLF+OGixbCPx7FPc8dwZ4jPojrmecBnudgRV9H47TC8QYAwLApgSxXx4n/eG8QKxfOROPdcW0DHth2AnGOw3krynHlx+ZizdLSxOdf/cx8XHZ2FV763z7sPuxH91AYLhfQUF2EtSvLcfX5taid45lK7AJuumwhLj97Ll76ax+aD/nRNRSEy+VCQ3Ux1jbNwdVr61BbMZXe5QJuuqwBl59Tg5f+cgrNh/3oGpy6j6Ch2ovzP1Q5nX7qvoHK0kL87JZV2Nviw/bmXuw57EOc5/Hdzy9Ffp568dMmZK0YqQhT2LJli+RMrF+/XpeQ9ZrA+Xe2g3bxz7yVpvviJ2vwzasWQg9GPz7Lqsu7Ru3z8ssvS7bfcsstRGuMyjUAvfcC6GtU04/ecpj4AeA3uwbQ0SdeiVdOpuvmNIk/16DSAABzG0fmxpxIJd5D9B/p4udTih8AwhEO33yiTZEJCPXBcZzk8ppR2CV+o0YMtKwHUL0GoHeBTwhx1Xo/gOQ1NeJP8z2mG2uPL4wNP/47Pnd+NS5eXYWldcWSG284nsfellG4XMBHl5Vmjb3neB77WkcBHjh7eVnW9HGOwzutIwCANQpi+zmex74WPwDg7OVz4Ha5LBc/zWHC1BhAtrllJhFnOylqFgnz84BYPLGn6D/6xS/85XnXVMQfz8PlFpJMfXr/ix2J2P6rzqvGXdeehkzc/+LxRGz/uvNqJbH9cniex30vHMXr0+G969bW4a4vLMuY/w9/1YLXd/WCB7D+/Hm46wvm3wugZDstED8F0BJ/rXX+qSRtbbngmc4Uf3V5IX7+rZX49roGLJ8/dS+AUC9dgyFJbP8bewbQdiqAdLR0T+KN5pnY/u17+nE0zb0DPM9P3TsgTt/clzY9ALR0jeON3X2Jsr++uwenhqxbw6Bd/AAFBiDHjMWmVPmnY3WjF2aKn0cq0Voj/oI8Fx7etCzxIA8xsTiPB1/qSIrtv+vpVgyPpboXIIw7nmpBnEuO7R8SxfYL9T11L8DhpNj+2586lOZegDDuePLviM+syCLO8XjwxdaM9wKIjylex3CCmLVAnQFkw2wj+OzZpXC5YJr4U22XpzdD/ACw7rxqLBVFAwKiewF+dnhqLi/L5+RAEF/+UXJs/4aHDsp646l9TvQHsWE6tn8yGMN4MIbXm/uw4cEDODWcHNt/sj+ADQ++gx37+hL3Ary+uxcbHtiPrqFgUj3sPjSMmx99D++3jyCeIvZfz40+Svaj7V4DatYA1GJ0BKCQ17J5Hlyxpgzb900tVDlF/ABwyepKSQn/eNCHB17qxMi4uAdOzmdwNIJ7nm+TJUlfD1P3ArTOpJGll8f2D4yEcfezRwAcln3l1PXwbpsPG//Dh/KSAnz32tN13QuQChqErRTiRwB6HNVIFxbndeuVc3HmYq+jxA8++V6AdOKvr/Jg7cpy0VZelkRaRrWx/RecWYVPfKgqbXp52T/54SrUVxZL0wHwT0bww18eSTslcJKQteLYEYAYo0YDQl6FecB/3FiPn24fwBv7RzA1baVb/IA0LHRqmiP+rbypNOetLMc9X2pEqTcfW9/unr4XILWYC/KRiO3nOB5PvnUSz+7szhjbvyfDvxAAAAptSURBVPGSRbjhooXgeWDrWyfwzO9OStLzkvxd2Ci6F+De5w+j+fDwdNLpekusEaR/pqEanGYaedmT2Mvll1/+b+L3K1eu1JWfUUaQ5wbWrijBP6ycBbfbhckwh0CEA8fRKX4A+MSH52BuWWHi/YK5RXjn6Cg8BW58alUFvrN+Mf75ovkoLsyD2+XCmqVluHTNXOTluTEZiGMiFEOeG1hSV4Irz63BvdefjvPPqIALmEq/rByXrKlGfp4Lk8GZ9KfVluCKc2tx7/XL8fEPVcHlcs2k/+hM+vFE/rPw2fPqcO+XV+LjZ1TC5XLB68nDpWfX4swl5YhxHAb9YRQW5OH2a0/H6Qtm7l+Y+srmif/w4cOStG+//fa9mg5mEUTHKQPA5s2bJbV+9dVX687TyNGAGfk6ATMWwYxa3DVz323btkne33rrrUQ3CmqmAELlqwnayZaX0jyUNhpxulwyA/m5MfMYduXhtKG/APEGkOlyi5FP/DGzt3KKGdgVEEOL+Gk0CeINIBNaTCDddWAzRUqTGZDW2EkUP41CTwfVBgCkF7CWS4ap8jEaUsxA640vVmHk5Vs9+2ptR7RAtQGIK9uswB8zSdVYjD4ujfNeK8WfKQ1tYtYC8QagJnTTSPFaaQSpjisnWzloFLocI8uhN+SXlDoxG+INQAtGB/4A9s/daYkt14LRwtebXy4FCTnSAADjhWv31MCJmCE0u8RvVj5m41gDEDByNCDkBxg7zchF9M7PjUhv5P5WxEKYAVUGoLfHMMMIsuVLW4MwGzMuq5F4qZAWiDcAo+eHZgzhhXmn3esEpGJm78jErw/iDUCOXqHpHQ0onX/mqhnIL81adSw786AZ6gwAMC4MGEgvVCOHpU40A7vCgo08hhlTD9oMhUoDAIwzARYKnBkzFuv0QLL4aYR4AzAi8EdNI7YyFNiK4ymB9LBgo4/HxD8D8QagBGE0YOSc0CphWhEOnOlYVuyrFyZ+86DOALLNPWkM/El3bDlGP7/A6H2NxuiyWCl+kuoxE9QZQDZIDvzRi5Ur7HZC4uVCpfvTdl6oMgC1J8EJRkBbg9ILzeKnEeINwIjhLA1G4ORGpgQShW9UHiRDvAEYgRlRelov7Tm9QanBzLpg4ldGThgAYO4QXm4GudBw9ODkCEHazn3OGICA2XfzkbRoSBo0CN/IfGiAeAOQnwyjhvNqhKo3UCaXzcAqMTHxa4N4A0iFkXN6cV5mnXwSo//MhMbQYCPy4jgueyLCoNIAAO1DbRKG7U4zBLt6TbvEr+QmIFpGEtQagEC60YCeYbvd1/pJNwS7G7dVEYJagn/srhu1UGUAwt17YoGYcUef3fN3vaHAZpfDLswoj5HDdtqMHKDAANxuN+LCz0MDiMViyM9PXWyaAn+0QJogrcKsy3pG5xuLxSSfud1u3fmbDfElLCgokFh0OBzOuo9ZUWW5KkC70FLnwj7yf3rzTXcsMfK26fF44iAc4g3A4/GExO8DgYCi/cwSbLpGxTCObPWbTuRKzomZlwsnJiYkZSksLAwacjATocEAfOL3o6OjqvY3U6zMCIxFXp9aRZ4pfyNIl4+8bRYXFw8bckATIX4NoLi4uIXn+fnCe5/Plyl5Wsy4H0CctwAJawW0Yfb1c6uChIaHpXovKipqMeTAJkLDCOAt8fuBgQHNeVnRY7MpQnrEdcNxXOKf2ce0Kp/+/n7Je6/X+6YhBzcR4g1g7ty5T+Xl5SXeB4NB+P1+XXlaJdBcNINM83Mr68PI4yjJZ3h4GKHQzHJVfn4+X19f/7QhBTAR4g1gzZo1oxUVFZJu/8SJE4bkbaU4rRaA2SgVth3f2Y4Iwc7OTsl3rays7Fu1atWkYQUxCeINAADKyspeA2YaU2dnZ9I1Vz3YIUpaDEFLD27X9zL6mEqvKkSjUXR0dEi2l5WVvWxYQUyECgMIBAJ3FhQUJM5GJBJBR0eHKSfcLjHaaQh6L6vZbWZmHFeeX6b6OX78OCKRSCKtx+PhS0pKfmBogUyCCgO45pprfLW1te+Jt7W0tCQiBM04+Xb3zGbMnfXmSYLYU5XHSISFSaXfMxqN4vDhw5JtdXV1+y+88EJ116ttggoDAIDy8vJN8sXAI0eOJN6b1SBJaOhilCywiVfYszVipYt2JNaB3v1T1ZtaDh06hGBwJt7H7XajpKTkRs2FsxhqDODTn/70gXnz5h0Q3vM8j5aWFoyMjEjS5YoRAOrCXkkXtRKMGLFkMkK1+P1+HDlyRJL3/Pnz911++eV/V52ZTVBjAABQVla2zuPxcMLJ4jgOe/fuTbkgaFbjtlo8ThGvHrJ9Xz31o7Uuo9Eodu3aJdnX6/XG58yZc5XqzGyEKgO48MILTy5YsOBR8bbR0VHs27cv5Uk0WyhG5p/rIk+FuA7MMEKt+/I8j+bmZoyNjUm2L1iw4KeXXHJJr+YC2QCVcasvvPBCR29v7yLxtqVLl+Kss87KuJ8VYbpG/FBpLmPVY7X0nIf9+/fj6NGjkm319fXtGzZsaNRbLquhagQgUFFRcc7s2bMT917yPI+2tjYcOHBA0VDRTMSLcKxHT0+6hUurjqt131TiLysrC5WXl3/MiPJZDZUjAAB4++23P97e3v4/oVBIYmLz58/HOeeck/ahIWL0jgjUNqRcvFEomyGTUA4lRKNRNDc3o7u7W7K9uLiYW7Zs2fmXXnpps64D2ATVLfKtt976/LFjx16MRCKS71FaWopzzz0X5eXlivKxY9juJDNQuzJvNXqP6ff7sWvXrqQ5v8fj4ZctW/b5yy677De6DmAj1LfCnTt3XtPW1vaCfCTgcrmwYsUKrFixQtFowG5oMAQtQrJz2mNEr3/o0KHEpT4xxcXFXGNj4zU0ix9wgAEAU9OBrq6u342NjRWlOFFYuXIlFi9ejPz8fEWNghQx2lUOPXNkEtBbjlgshvb2dhw6dEhyh59AWVlZaNGiRRfQOuwXQ0ZLN4BXXnmlOhQK7e3p6VmU6vPCwkIsWrQIDQ0NqKioUJwvKWYgxqyfNbNyfzPQW6ahoSF0dnais7NTEtsvpr6+vr28vPxjV1xxxZCugxECea1bJ2+++ebDnZ2dt8qnBGKKiopQU1ODiooKlJaWYtasWSgqKso4VSDRCMyARGFnQ22Zo9EoQqEQJicnMTo6iuHhYfT19aXs7QW8Xm98wYIFP123bt1testLEo5s1Tt27Jg/MTHxWk9Pz2orowRTYWXEoFXQaBJaycvLw/z58/fNmTPnKtqCfJTgSAMQeOuttz48Njb28/7+/o+Ew2FTvysTurPweDx8bW3t/tmzZ99IU2y/WhxtAAI7d+4sCwaD9/n9/vV+v78mGo1q/t5M6M6lsLCQr6ys7CstLX151qxZP6Dlll495IQBiDl48GBJd3f3xmAweGkoFFoeCoUqQ6FQcSQSyRP/ApETBciEPkVeXh48Hk+8qKgo6PV6hwoLC1uLi4t3VFZWPnneeecR/yx/BoPBYDAYDAaDwWAwGAwGg8FgMBgMBoPBYDAYDAaDwWAwGAwGg8FgMBgMBoPBYDAYDAaDwWAwGM7m/wNGSSARFT4RFwAAAABJRU5ErkJggg==;clipPath=inset(5.47% 15.23% 5.47% 14.84%);" vertex="1" parent="1">
          <mxGeometry x="260" y="279.63" width="91.0701754385965" height="116" as="geometry" />
        </mxCell>
        <mxCell id="PqfnIOR5tWagAkAa2jEj-5" value="Warehouse" style="shape=image;verticalLabelPosition=bottom;labelBackgroundColor=default;verticalAlign=top;aspect=fixed;imageAspect=0;image=https://debruyn.dev/2024/all-microsoft-fabric-icons-for-diagramming/data_warehouse.png;clipPath=inset(5.08% 15.23% 5.47% 14.84%);" vertex="1" parent="1">
          <mxGeometry x="640" y="277.63" width="94.09" height="120.37" as="geometry" />
        </mxCell>
        <mxCell id="PqfnIOR5tWagAkAa2jEj-6" value="" style="image;aspect=fixed;html=1;points=[];align=center;fontSize=12;image=img/lib/azure2/power_platform/PowerBI.svg;" vertex="1" parent="1">
          <mxGeometry x="810" y="308.63" width="51" height="68" as="geometry" />
        </mxCell>
        <mxCell id="PqfnIOR5tWagAkAa2jEj-15" style="edgeStyle=orthogonalEdgeStyle;rounded=0;orthogonalLoop=1;jettySize=auto;html=1;exitX=1;exitY=0.5;exitDx=0;exitDy=0;" edge="1" parent="1" source="PqfnIOR5tWagAkAa2jEj-7" target="PqfnIOR5tWagAkAa2jEj-5">
          <mxGeometry relative="1" as="geometry" />
        </mxCell>
        <mxCell id="PqfnIOR5tWagAkAa2jEj-7" value="Warehouse" style="shape=image;verticalLabelPosition=bottom;labelBackgroundColor=default;verticalAlign=top;aspect=fixed;imageAspect=0;image=https://debruyn.dev/2024/all-microsoft-fabric-icons-for-diagramming/data_warehouse.png;clipPath=inset(5.08% 15.23% 5.47% 14.84%);" vertex="1" parent="1">
          <mxGeometry x="450" y="276.63" width="95.65" height="122.37" as="geometry" />
        </mxCell>
        <mxCell id="PqfnIOR5tWagAkAa2jEj-8" value="&lt;font style=&quot;font-size: 19px;&quot;&gt;&lt;b&gt;Landing&lt;/b&gt;&lt;/font&gt;" style="text;html=1;align=center;verticalAlign=middle;whiteSpace=wrap;rounded=0;" vertex="1" parent="1">
          <mxGeometry x="275.54" y="220" width="60" height="30" as="geometry" />
        </mxCell>
        <mxCell id="PqfnIOR5tWagAkAa2jEj-9" value="&lt;font style=&quot;font-size: 19px;&quot;&gt;&lt;b&gt;Staging&lt;/b&gt;&lt;/font&gt;" style="text;html=1;align=center;verticalAlign=middle;whiteSpace=wrap;rounded=0;" vertex="1" parent="1">
          <mxGeometry x="469.24" y="220" width="60" height="30" as="geometry" />
        </mxCell>
        <mxCell id="PqfnIOR5tWagAkAa2jEj-10" value="&lt;font style=&quot;font-size: 19px;&quot;&gt;&lt;b&gt;Presentation&lt;/b&gt;&lt;/font&gt;" style="text;html=1;align=center;verticalAlign=middle;whiteSpace=wrap;rounded=0;" vertex="1" parent="1">
          <mxGeometry x="660" y="220" width="60" height="30" as="geometry" />
        </mxCell>
        <mxCell id="PqfnIOR5tWagAkAa2jEj-11" value="Data Factory" style="shape=image;verticalLabelPosition=bottom;labelBackgroundColor=default;verticalAlign=top;aspect=fixed;imageAspect=0;image=https://entdna.com/wp-content/uploads/2024/02/FabricDataFactoryLogo.png;fontSize=8;" vertex="1" parent="1">
          <mxGeometry x="390" y="280.37" width="29.77" height="29.63" as="geometry" />
        </mxCell>
        <mxCell id="PqfnIOR5tWagAkAa2jEj-13" value="Copy Activity" style="text;html=1;align=center;verticalAlign=middle;whiteSpace=wrap;rounded=0;fontSize=10;fontStyle=2" vertex="1" parent="1">
          <mxGeometry x="360" y="335.26" width="80" height="30" as="geometry" />
        </mxCell>
        <mxCell id="PqfnIOR5tWagAkAa2jEj-14" value="Data Factory" style="shape=image;verticalLabelPosition=bottom;labelBackgroundColor=default;verticalAlign=top;aspect=fixed;imageAspect=0;image=https://entdna.com/wp-content/uploads/2024/02/FabricDataFactoryLogo.png;fontSize=8;" vertex="1" parent="1">
          <mxGeometry x="580" y="279.63" width="29.77" height="29.63" as="geometry" />
        </mxCell>
        <mxCell id="PqfnIOR5tWagAkAa2jEj-16" value="Data Flow" style="text;html=1;align=center;verticalAlign=middle;whiteSpace=wrap;rounded=0;fontSize=10;fontStyle=2" vertex="1" parent="1">
          <mxGeometry x="554.89" y="335.26" width="80" height="30" as="geometry" />
        </mxCell>
      </root>
    </mxGraphModel>
  </diagram>
</mxfile>
